<?xml version="1.0" standalone="no"?>
<!DOCTYPE svg PUBLIC "-//W3C//DTD SVG 1.1//EN" "http://www.w3.org/Graphics/SVG/1.1/DTD/svg11.dtd" >
<svg xmlns="http://www.w3.org/2000/svg" xmlns:xlink="http://www.w3.org/1999/xlink" version="1.1">
<metadata></metadata>
<defs>
<font id="oldsansblackunderlineregular" horiz-adv-x="1251" >
<font-face units-per-em="2048" ascent="1638" descent="-410" />
<missing-glyph horiz-adv-x="624" />
<glyph horiz-adv-x="0" />
<glyph horiz-adv-x="682" />
<glyph horiz-adv-x="569" d="M-86 1522q10 -104 39 -171t82 -104q100 -70 250 -69q147 -1 247 69q53 37 83 103.5t40 171.5h-178q-10 -53 -26.5 -79t-38.5 -38q-59 -27 -127 -27t-127 27q-23 12 -39.5 37.5t-26.5 79.5h-178z" />
<glyph horiz-adv-x="569" d="M141 1198h291v283h-291v-283z" />
<glyph horiz-adv-x="569" d="M41 1419q0 -51 19.5 -95t52 -77t76.5 -52t96 -19q100 -1 172 71t71 172q0 51 -19.5 95.5t-52 77t-76.5 52t-95 19.5t-95.5 -19.5t-77 -52t-52 -77t-19.5 -95.5zM197 1419q0 37 25.5 62.5t62.5 25.5q38 1 63 -24t25 -64t-24.5 -63.5t-63.5 -24.5q-37 0 -62.5 25.5 t-25.5 62.5z" />
<glyph unicode="&#xa;" horiz-adv-x="569" d="M-102 1178h247l310 344h-379zM295 1178h248l309 344h-379z" />
<glyph horiz-adv-x="569" d="M37 -262q0 -53 19.5 -91t53 -62.5t76.5 -37t90 -12.5q86 0 170 37q41 18 80 39.5t86 56.5l-61 113q-18 -12 -43 -28.5t-52.5 -31t-55 -24.5t-52.5 -10q-37 0 -61.5 17t-24.5 58q0 49 32 87t77 68t94 51.5t86 33.5v68q-158 -25 -256 -56.5t-152 -74.5q-106 -84 -106 -201z " />
<glyph horiz-adv-x="569" d="M-123 1522l270 -344h275l270 344h-289l-118 -154l-119 154h-289z" />
<glyph unicode="&#xd;" horiz-adv-x="569" d="M0 0v-430h588v430h-154v1087h-299v-1087h-135z" />
<glyph horiz-adv-x="1617" d="M-12 -43h231l875 1567h-234zM369 0v-430h1161v430h-1161zM782 715q0 -70 27 -131.5t73 -107.5t107.5 -72.5t130.5 -26.5q70 0 131.5 26.5t107.5 72.5t72.5 107.5t26.5 131.5t-26.5 131t-72.5 107t-107.5 73t-131.5 27t-131 -27t-107 -73t-73 -107.5t-27 -130.5zM938 731 q0 35 24.5 58.5t59.5 23.5t58.5 -23.5t23.5 -58.5t-23.5 -58.5t-58.5 -23.5t-59.5 23.5t-24.5 58.5z" />
<glyph horiz-adv-x="1138" d="M0 0v-430h1161v430h-131v1087h-299v-1087h-282v838h215v249h-215v82q0 72 33.5 87.5t99.5 15.5h80v250h-193q-168 0 -245 -73t-77 -243v-119h-145v-249h148v-838h-150zM731 1239h295v283h-295v-283z" />
<glyph horiz-adv-x="1138" d="M0 0v-430h1161v430h-129l-2 205v1296h-299v-1501h-282v838h215v249h-215v99q0 59 36.5 72.5t87.5 13.5h89v250h-187q-176 0 -252 -75t-76 -251v-109h-145v-249h148v-838h-150z" />
<glyph horiz-adv-x="1138" d="M-23 496l158 63v-582h975v283h-649v432l327 133v252l-327 -133v557h-326v-690l-158 -63v-252z" />
<glyph horiz-adv-x="569" d="M-23 532l158 80v-635h299v785l158 80v256l-158 -80v483h-299v-633l-158 -80v-256z" />
<glyph horiz-adv-x="1138" d="M0 0v-430h1509v430h-401v260h-700l692 985v256h-1043v-282h623l-670 -971v-248h-10zM143 1880l271 -344h274l270 344h-288l-119 -154l-119 154h-289z" />
<glyph horiz-adv-x="909" d="M0 0v-430h1509v430h-612v227h-496l490 647v213h-836l-2 -249h453l-492 -650v-188h-14zM47 1522l270 -344h275l270 344h-289l-118 -154l-119 154h-289z" />
<glyph unicode=" "  horiz-adv-x="624" />
<glyph unicode="&#x09;" horiz-adv-x="624" />
<glyph unicode="&#xa0;" horiz-adv-x="624" />
<glyph unicode="!" horiz-adv-x="681" d="M0 0v-430h690v430h-184v313h-330v-313h-176zM164 1501l57 -1024h238l57 1024h-352z" />
<glyph unicode="&#x22;" horiz-adv-x="681" d="M-63 0v-430h813v430h-813zM27 899h274v602h-274v-602zM381 899h274v602h-274v-602z" />
<glyph unicode="#" d="M0 0v-430h1264v430h-424l55 410h192v229h-161l28 201h195v229h-164l57 432h-239l-58 -432h-151l57 432h-239l-58 -432h-190v-229h160l-29 -201h-193v-229h162l-53 -410h-211zM449 0l55 410h151l-53 -410h-153zM535 639l28 201h152l-29 -201h-151z" />
<glyph unicode="$" d="M0 0v-430h1264v430h-430q109 27 186 86q145 115 145 334q0 199 -153 307q-135 94 -299 154v366q72 -16 129 -63t108 -97l193 189q-55 51 -101.5 90t-95.5 66.5t-104.5 44t-128.5 24.5v148h-197v-150q-82 -10 -161 -42t-140 -83t-99 -123.5t-38 -165.5q0 -186 131 -286 q104 -80 307 -160v-406q-86 23 -144.5 72t-103.5 125l-213 -182q74 -100 160 -159.5t197 -88.5h-412zM354 1110q0 33 15.5 57.5t38 42t51 26.5t57.5 15v-297q-25 10 -53.5 24.5t-52 33t-40 43t-16.5 55.5zM713 225v336q59 -28 94 -51q84 -47 84 -121q0 -41 -15.5 -68.5 t-40 -47t-57.5 -31t-65 -17.5z" />
<glyph unicode="%" horiz-adv-x="1820" d="M0 0v-430h1878v430h-362q76 27 143 92q117 113 117 275q0 80 -31 151.5t-85 125.5t-126 85t-152 31t-150.5 -31t-124.5 -83t-86 -122.5t-32 -150.5q0 -66 19.5 -124.5t54.5 -106.5t83 -85t105 -57h-637l854 1522h-225l-852 -1522h-391zM47 1114q0 -82 31 -153.5t84 -126 t124.5 -86t153.5 -31.5q162 0 277 117q117 113 117 274q0 80 -31 151.5t-85 126t-126 85t-152 30.5t-150.5 -30.5t-124.5 -83t-86 -123t-32 -150.5zM295 1106q0 61 43 105t104 44q60 0 103 -43t43 -102t-43 -104t-103 -45q-59 0 -103 41.5t-44 103.5zM1237 365q0 61 43 104 t104 43q58 0 103 -41q43 -43 43 -102t-43 -103.5t-103 -44.5q-59 0 -103 41t-44 103z" />
<glyph unicode="&#x26;" horiz-adv-x="1366" d="M0 0v-430h1407v430h-86v238q-45 4 -93 22.5t-112 58.5q59 88 103.5 181.5t78.5 195.5l-268 72q-27 -72 -57.5 -139.5t-71.5 -132.5q-47 43 -102.5 106.5t-120.5 149.5q86 63 168 155q106 117 106 262q0 156 -114 254q-111 98 -260 99q-84 0 -157 -26t-126 -73t-84 -115.5 t-31 -156.5q0 -53 8.5 -98t22.5 -86t35.5 -81t50.5 -83q-109 -72 -173.5 -166t-64.5 -229q0 -186 121 -320q55 -57 127 -88h-307zM371 422q0 59 23.5 92t64.5 68q51 -61 97 -113.5t89 -95.5q16 -16 36.5 -35t43.5 -41q-76 -57 -166 -57q-35 0 -68.5 15t-60.5 41t-43 58.5 t-16 67.5zM463 1171q0 63 33 103q33 35 69 35q45 0 76 -35q29 -35 29 -98q0 -31 -14.5 -61t-37 -57.5t-48 -51t-48.5 -39.5l-6 10q-53 92 -53 194zM772 0q43 18 82 44t80 60q31 -27 70.5 -55.5t80.5 -48.5h-313z" />
<glyph unicode="'" horiz-adv-x="454" d="M0 0v-430h465v430h-465zM90 899h275v602h-275v-602z" />
<glyph unicode="(" horiz-adv-x="681" d="M0 0v-430h690v430h-149q-92 150 -139.5 313.5t-47.5 350.5q0 248 84 459.5t246 398.5h-311q-47 -59 -92 -143.5t-99 -194.5q-102 -233 -102 -520t102 -521q18 -39 36 -74.5t34 -68.5h-252z" />
<glyph unicode=")" horiz-adv-x="681" d="M0 0v-430h690v430h-258q16 33 33.5 68.5t36.5 76.5q100 225 100 519q0 293 -100 518q-51 113 -96.5 196.5t-92.5 143.5h-311q160 -186 243 -398.5t83 -459.5q0 -186 -46 -350t-139 -314h-143z" />
<glyph unicode="*" horiz-adv-x="1024" d="M0 0v-430h1038v430h-1038zM98 1108l299 -41l-219 -205l207 -151l129 272l129 -272l207 151l-219 205l299 41l-80 240l-264 -142l55 295h-254l55 -295l-264 142z" />
<glyph unicode="+" horiz-adv-x="1228" d="M0 0v-430h1243v430h-500v406h424v262h-424v419h-262v-419h-422v-262h422v-406h-481z" />
<glyph unicode="," horiz-adv-x="624" d="M0 0v-430h629v430h-201l7 6t16.5 38t16.5 99.5t7 190.5h-328v-334h-147z" />
<glyph unicode="-" horiz-adv-x="681" d="M0 0v-430h690v430h-690zM68 399h546v267h-546v-267z" />
<glyph unicode="." horiz-adv-x="624" d="M0 0v-430h629v430h-154v313h-328v-313h-147z" />
<glyph unicode="/" horiz-adv-x="569" d="M-102 0v-430h751v430h-452l460 1522h-270l-461 -1522h-28z" />
<glyph unicode="0" d="M0 0v-430h1264v430h-414q121 53 197 168q139 207 139 571q0 137 -24.5 277.5t-88 252t-172 182.5t-276.5 71t-276.5 -71t-172 -182.5t-88.5 -251.5t-25 -278q0 -111 15.5 -224.5t54.5 -213.5t104.5 -179t163.5 -122h-401zM375 739q0 254 61 387q57 129 189 129 q131 0 188 -129q61 -133 61 -387q0 -256 -61 -387q-57 -129 -188 -129t-189 129q-61 131 -61 387z" />
<glyph unicode="1" d="M0 0v-430h1264v430h-220v227h-231v1295h-235q-66 -61 -158 -81t-178 -22v-217h264v-975h-230v-227h-276z" />
<glyph unicode="2" d="M0 0v-430h1264v430h-131v252h-662q35 33 72 63.5t75 61.5q111 90 227 186t197 211q92 129 93 295q0 111 -41 196t-110 141t-161 86t-196 30q-201 0 -348 -117q-74 -59 -119 -137t-66 -189l281 -63q20 104 80.5 171.5t173.5 67.5q86 0 139 -45t53 -135q0 -49 -31.5 -101 t-75.5 -102.5t-93.5 -93.5t-83.5 -69q-82 -66 -153 -127.5t-134 -116.5q-66 -55 -106 -109.5t-52 -109.5v-246h-92z" />
<glyph unicode="3" d="M0 0v-430h1264v430h-426q39 16 73.5 35.5t67.5 48.5q154 125 154 336q0 129 -58.5 229.5t-179.5 151.5q90 49 139 132t49 185q0 184 -143 295q-139 109 -369 109q-145 0 -265 -63.5t-214 -170.5l209 -190q59 68 125 112.5t160 44.5q35 0 68.5 -10t59 -29.5t42 -49 t16.5 -68.5q0 -90 -80 -133q-84 -47 -278 -47h-39v-226h49q55 0 124.5 -8t130 -34.5t101.5 -74t41 -124.5q0 -49 -18.5 -91.5t-49 -72t-72.5 -47t-89 -17.5q-123 0 -195 60q-41 33 -65.5 63.5t-44.5 71.5l-252 -142q33 -70 83 -123t124 -100q53 -33 104 -53h-346z" />
<glyph unicode="4" d="M0 0v-430h1264v430h-271v317h207v250h-207v934h-325l-641 -893v-291h665v-317h-692zM297 567l395 570v-570h-395z" />
<glyph unicode="5" d="M0 0v-430h1264v430h-420q47 18 87 43t75 59q152 143 151 402q0 213 -135 364q-139 154 -334 154q-66 0 -128 -10.5t-120 -48.5l17 264h600v274h-842l-59 -827l252 -47q35 61 85 95t121 34q57 0 101.5 -20.5t73 -56.5t43 -83t14.5 -102t-14.5 -104.5t-44 -86.5 t-73.5 -57.5t-104 -20.5q-104 0 -174 56q-39 31 -59.5 57.5t-30.5 64.5l-264 -137q43 -98 112.5 -163.5t161.5 -102.5h-356z" />
<glyph unicode="6" d="M0 0v-430h1264v430h-394q82 33 152 96q154 141 154 363q0 111 -34 204t-97.5 160.5t-153.5 106.5t-203 39q-78 0 -153.5 -21.5t-139.5 -68.5q27 162 88 239q102 135 252 137q76 2 139.5 -31.5t116.5 -84.5l139 258q-90 59 -186 92t-205 33q-305 0 -483 -234 q-178 -229 -178 -633q0 -174 38 -304t115 -218q82 -92 181 -133h-412zM387 547q39 72 98.5 113.5t145.5 41.5q59 0 101 -16t73 -47q59 -63 59 -182q0 -100 -54 -167t-159 -67q-76 0 -123 28t-75.5 74t-43 103t-22.5 119z" />
<glyph unicode="7" d="M0 0v-430h1264v430h-715l608 1323v178h-1061v-274h699l-588 -1227h-207z" />
<glyph unicode="8" d="M0 0v-430h1264v430h-373q76 27 141 74q162 121 162 313q0 143 -72.5 242.5t-195.5 158.5q100 59 156.5 140.5t56.5 201.5q0 106 -45 181t-119 122.5t-165 68t-183 20.5q-94 0 -187.5 -19.5t-167 -65.5t-118.5 -122t-45 -187q0 -119 58 -199.5t155 -140.5 q-127 -66 -198 -162t-71 -243q0 -188 164 -309q68 -47 139 -74h-356zM367 395q0 84 82 164q86 76 155 86q29 -2 71 -21.5t99 -62.5q55 -43 81 -83t26 -81q0 -55 -22.5 -92t-58.5 -58.5t-82 -30.5t-93 -9q-45 0 -91.5 9t-83 30.5t-60 58.5t-23.5 90zM422 1128q0 43 17.5 72 t46 44.5t64.5 21.5t73 6q53 0 90.5 -10.5t64.5 -26.5q49 -37 49 -111q0 -61 -71 -131q-72 -66 -132.5 -68.5t-136.5 62.5q-66 59 -65 141z" />
<glyph unicode="9" d="M0 0v-430h1264v430h-537q147 59 248 197q174 236 174 628q0 172 -38 302t-116 219q-158 176 -401 176q-117 0 -216 -35t-172 -100.5t-114 -161t-41 -215.5q0 -106 35 -197.5t97.5 -159t151.5 -105.5t197 -38q86 0 160 21.5t144 70.5q-12 -70 -37 -136.5t-66 -119.5 t-100.5 -87t-140.5 -36q-78 -2 -140.5 33t-115.5 82l-140 -256q39 -25 78 -45.5t80 -36.5h-254zM362 1012q0 106 52.5 174.5t165.5 68.5q126 0 196 -106q41 -68 66 -213q-33 -72 -95.5 -116t-144.5 -44q-115 0 -177.5 60.5t-62.5 175.5z" />
<glyph unicode=":" horiz-adv-x="624" d="M6 6v-430h629v430h-154v313h-327v-313h-148zM154 598h327v336h-327v-336z" />
<glyph unicode=";" horiz-adv-x="624" d="M0 0v-430h633v430h-184l26 78v256h-328v-334h-147zM154 598h327v336h-327v-336z" />
<glyph unicode="&#x3c;" horiz-adv-x="1228" d="M0 0v-430h1229v430h-62v225l-725 307l725 308v276l-1108 -475v-217l990 -424h-1049z" />
<glyph unicode="=" horiz-adv-x="1228" d="M0 0v-430h1235v430h-1235zM59 176h1112v262h-1112v-262zM59 627h1112v262h-1112v-262z" />
<glyph unicode="&#x3e;" horiz-adv-x="1228" d="M0 0v-430h1239v430h-1061l989 424v217l-1108 475v-276l725 -308l-725 -307v-225h-59z" />
<glyph unicode="?" horiz-adv-x="909" d="M27 0v-430h915v430h-280v313h-330v-313h-305zM82 1163l283 -78q6 53 19 86t36 56q43 45 90 45q39 0 75 -23.5t36 -66.5q0 -49 -31 -104.5t-58 -94.5q-31 -41 -61.5 -84t-55 -89t-41 -95t-16.5 -103v-137h271v98q0 80 46 145.5t95 123.5q35 39 62.5 79t50.5 83 q43 86 43 163q0 145 -101 248q-104 106 -295 107q-180 0 -293.5 -91.5t-154.5 -267.5z" />
<glyph unicode="@" horiz-adv-x="1638" d="M0 0v-430h1653v430h-787l2 152q-100 0 -203.5 48t-185.5 128q-162 162 -162 409q0 242 158 410q160 166 377 166q213 0 350 -131q35 -31 60 -66h-207l-11 -49q-39 43 -104.5 66.5t-120.5 23.5q-205 0 -321 -160q-117 -158 -117 -342q0 -172 110.5 -278.5t231.5 -106.5 q57 0 105.5 22.5t89.5 61.5q12 -37 41.5 -62.5t70.5 -25.5q193 0 363 180q172 180 172 428q0 264 -201 455q-201 195 -512 195q-326 0 -555 -236q-227 -238 -227 -543q0 -315 221 -550q129 -135 299 -195h-590zM649 692q0 41 14.5 79t39 66.5t60.5 46t79 17.5q59 0 96 -39 q37 -41 37 -98q0 -43 -13.5 -84t-38 -74t-61.5 -53.5t-82 -20.5q-72 0 -101.5 47.5t-29.5 112.5zM1163 535q0 6 6 22l111 535q61 -96 61 -209q0 -158 -57 -271q-31 -59 -54.5 -81.5t-39.5 -22.5q-2 0 -6 4t-15 8q-6 6 -6 15z" />
<glyph unicode="A" d="M-4 -23h4v-407h1257v430h-10l-426 1503h-385l-432 -1503h-4v-10zM330 0l82 297h432l78 -297h-592zM485 575l148 541l139 -541h-287z" />
<glyph unicode="B" horiz-adv-x="1366" d="M0 0v-430h1407v430h-483q119 27 192 82q150 104 150 330q0 133 -49 225q-47 86 -177 143q94 47 143.5 131t49.5 189q0 117 -44 194.5t-118 123.5t-169 64.5t-195 18.5h-570v-1501h-137zM465 252v385h258q109 0 164 -45q51 -45 51 -143q0 -109 -53.5 -153t-157.5 -44h-262 zM465 911v316h252q94 0 141 -43q47 -41 47 -123q0 -39 -15.5 -66.5t-40 -46t-57 -28t-67.5 -9.5h-260z" />
<glyph unicode="C" d="M0 0v-430h1305v430h-400q57 20 109 59q72 51 126 129t99 195l-307 80q-23 -49 -47.5 -90t-55 -71t-72.5 -46t-102 -16q-152 0 -217 120q-71 123 -71 362v7q0 45 3 100.5t13 111.5t29.5 109.5t50.5 95.5t77 67.5t107 25.5q106 0 163.5 -61.5t90.5 -155.5l299 72 q-39 133 -91 216t-124 126q-141 86 -328 86q-172 0 -290.5 -65.5t-191.5 -175.5t-104.5 -251t-31.5 -291q0 -121 19.5 -235.5t64.5 -212.5t115.5 -174t175.5 -117h-414z" />
<glyph unicode="D" horiz-adv-x="1366" d="M0 0v-430h1407v430h-555q186 43 307 176q92 98 135 238.5t43 322.5q0 174 -41 314.5t-127 241t-218 154.5t-314 54h-500v-1501h-137zM465 260v959h172q188 0 278 -119q45 -59 69 -148.5t24 -210.5q0 -98 -16.5 -185t-58.5 -153.5t-115 -104.5t-185 -38h-168z" />
<glyph unicode="E" d="M0 0v-430h1305v430h-109v260h-721v371l508 2v278h-508v308h696v282h-1021v-1501h-150z" />
<glyph unicode="F" horiz-adv-x="1138" d="M0 0v-430h1202v430h-739v631l495 2l-2 278h-493v308h661v282h-987v-1501h-137z" />
<glyph unicode="G" horiz-adv-x="1366" d="M0 0v-430h1427v430h-163v770h-600v-283h280q-10 -100 -78 -168q-77 -79 -201 -79h-3q-92 0 -150.5 49t-90.5 122.5t-43 158.5t-11 155q0 68 9 157t39.5 168.5t87 134t150.5 54.5q119 0 179.5 -54.5t107.5 -158.5l303 80q-41 123 -96 200.5t-131 125.5q-150 90 -322 90 q-182 0 -308 -66.5t-203 -178.5t-110.5 -258.5t-33.5 -307.5q0 -117 21.5 -227.5t66.5 -205t115.5 -167t171.5 -111.5h-414zM874 0q74 35 138 96v-96h-138z" />
<glyph unicode="H" horiz-adv-x="1478" d="M0 0v-430h1509v430h-184v1501h-330v-588h-516v588h-329v-1501h-150zM479 0v612h516v-612h-516z" />
<glyph unicode="I" horiz-adv-x="681" d="M0 0v-430h711v430h-207v1501h-328v-1501h-176z" />
<glyph unicode="J" horiz-adv-x="909" d="M-41 184q41 -66 87 -110.5t101 -73.5h-147v-430h936v430h-387q55 25 98 68q113 111 113 331v1102h-326v-1116q0 -23 -4 -48.5t-14 -47t-28.5 -35.5t-47.5 -14q-59 0 -91 34.5t-59 81.5z" />
<glyph unicode="K" horiz-adv-x="1366" d="M0 0v-430h1509v430h-153l-488 922l439 579h-379l-463 -610v610h-328v-1501h-137zM465 0v434l180 228l346 -662h-526z" />
<glyph unicode="L" horiz-adv-x="1138" d="M0 0v-430h1202v430h-96v260h-643v1241h-326v-1501h-137z" />
<glyph unicode="M" horiz-adv-x="1705" d="M0 0v-430h1714v430h-151v1501h-441l-272 -979l-270 979h-437v-1501h-143zM434 0v1014l287 -1014h-287zM981 0l291 1016v-1016h-291z" />
<glyph unicode="N" horiz-adv-x="1478" d="M0 0v-430h1483v430h-148v1501h-311v-954l-551 954h-330v-1501h-143zM455 0v977l561 -977h-561z" />
<glyph unicode="O" horiz-adv-x="1366" d="M0 0v-430h1407v430h-469q137 53 225 166q164 203 164 573q0 158 -33.5 300.5t-110.5 250t-199 170t-300 62.5t-301 -62.5t-200 -170t-110.5 -250t-33.5 -300.5q0 -127 21.5 -242.5t68.5 -212t121 -170t180 -114.5h-430zM367 739q0 250 77 377q74 123 240 123 q164 0 238 -123q77 -125 77 -371v-6q0 -250 -77 -377q-73 -122 -235 -122h-3q-166 0 -240 122q-77 125 -77 371v6z" />
<glyph unicode="P" d="M0 0v-430h1305v430h-861v575h234q262 0 403 117q145 119 146 344q0 127 -42 216t-116 144.5t-173 80t-216 24.5h-563v-1501h-117zM444 850v377h207q134 0 191 -45q27 -20 41 -56t14 -94q0 -57 -20.5 -93t-54.5 -55.5t-78 -26.5t-93 -7h-207z" />
<glyph unicode="Q" horiz-adv-x="1366" d="M0 0v-430h1364v430v147q-72 6 -113 18.5t-63 31.5q139 201 139 542q0 158 -33.5 300.5t-110.5 250t-199 170t-300 62.5t-301 -62.5t-200 -170t-110.5 -250t-33.5 -300.5q0 -127 21.5 -242.5t68.5 -212t121 -170t180 -114.5h-430zM367 739q0 250 77 377q74 123 240 123 q164 0 238 -123q77 -125 77 -371v-6v-12q0 -133 -22 -219q-27 35 -46.5 59.5t-43 42t-57 26.5t-89.5 15l-82 -274q57 -10 97.5 -37t70.5 -70q-46 -30 -137 -30h-6q-166 0 -240 122q-77 125 -77 371v6zM946 0q14 6 26.5 22.5t22.5 22.5q4 -4 9.5 -20.5t11.5 -24.5h-70z" />
<glyph unicode="R" horiz-adv-x="1366" d="M0 0v-430h1407v430h-104l-320 647q127 45 195.5 144.5t68.5 234.5q0 117 -35.5 206t-100 148.5t-157 90t-204.5 30.5h-613v-1501h-137zM463 0v580h209l268 -580h-477zM463 854v373h227q119 0 172 -47q27 -23 41.5 -60t14.5 -90q0 -59 -23 -94t-59.5 -53.5t-83.5 -23.5 t-95 -5h-194z" />
<glyph unicode="S" d="M0 0v-430h1284v430h-393q72 27 133 76q143 123 143 346q0 207 -145 315q-137 106 -311 166q-123 43 -222 98q-47 27 -66.5 55.5t-19.5 59.5q0 39 17.5 66.5t45.5 43t61.5 22.5t66.5 7q102 0 158.5 -54t93.5 -142l301 92q-45 104 -100.5 172t-126.5 111q-143 88 -324 88 q-215 0 -358.5 -119t-143.5 -301q0 -184 123 -289q117 -96 354 -186q121 -45 207 -103q78 -51 78 -127q0 -51 -18.5 -84.5t-50 -53t-72.5 -28t-84 -8.5q-61 0 -109.5 17.5t-85.5 48t-65.5 75t-53.5 97.5l-272 -119q47 -111 108.5 -181.5t145.5 -115.5q47 -27 96 -45h-395z " />
<glyph unicode="T" horiz-adv-x="1138" d="M0 0v-430h1182v430h-451v1221h387v280h-1098v-280h386v-1221h-406z" />
<glyph unicode="U" horiz-adv-x="1478" d="M0 0v-430h1509v430h-505q100 37 172 111q152 154 151 444v946h-326v-942q0 -176 -59 -248q-29 -35 -79 -53t-128 -18q-145 0 -200 73q-59 72 -60 250v938h-325v-960q0 -209 83.5 -345.5t243.5 -195.5h-477z" />
<glyph unicode="V" horiz-adv-x="1138" d="M-8 1501l397 -1501h-389v-430h1182v430h-432l399 1501h-328l-258 -1026l-246 1026h-325z" />
<glyph unicode="W" horiz-adv-x="1705" d="M0 0v-430h1735v430h-357l312 1501h-310l-186 -915l-178 915h-328l-192 -915l-172 915h-312l316 -1501h-328zM659 0l193 948l195 -948h-388z" />
<glyph unicode="X" horiz-adv-x="1138" d="M-20 0v-23v-407h1181v430h-14l-399 758l387 743h-359l-207 -428l-207 428h-358l387 -743l-399 -758h-12zM348 0l221 451l222 -451h-443z" />
<glyph unicode="Y" horiz-adv-x="1138" d="M-14 1501l422 -919v-582h-408v-430h1141v430h-408v588l420 913h-344l-240 -551l-239 551h-344z" />
<glyph unicode="Z" horiz-adv-x="1138" d="M0 0v-430h1141v430h-33v260h-700l692 985v256h-1043v-282h623l-670 -971v-248h-10z" />
<glyph unicode="[" horiz-adv-x="681" d="M0 0v-430h711v430h-361v1354h258v168h-524v-1522h-84z" />
<glyph unicode="\" horiz-adv-x="569" d="M-88 1522l461 -1522h-373v-430h647v430h-4l-461 1522h-270z" />
<glyph unicode="]" horiz-adv-x="681" d="M0 0v-430h711v430h-113v1522h-524v-168h258v-1354h-332z" />
<glyph unicode="^" horiz-adv-x="1228" d="M0 0v-430h1264v430h-1264zM106 690h275l233 508l236 -508h274l-393 811h-233z" />
<glyph unicode="_" horiz-adv-x="1024" d="M-23 -479v-148h1070v148h-1070z" />
<glyph unicode="`" horiz-adv-x="569" d="M-113 1522l346 -344h259l-222 344h-383zM0 0v-430h567v430h-567z" />
<glyph unicode="a" horiz-adv-x="1024" d="M0 0v-430h1038v430q-41 0 -63.5 1t-33.5 13.5t-14 40t-3 80.5v524q0 229 -99.5 339t-332.5 110q-133 0 -245 -54.5t-184 -168.5l201 -152q43 66 93.5 103.5t134.5 37.5q55 0 94 -26.5t39 -85.5v-64q-51 -4 -90 -12q-106 -20 -208 -51t-190 -100q-123 -102 -123 -273 q0 -88 38 -155.5t104 -106.5h-156zM313 291q0 53 34 87t82 54.5t101.5 31.5t94.5 19v-192q-41 -33 -99.5 -67t-113.5 -34q-47 0 -73 28t-26 73zM541 0q51 23 100 53l10 -53h-110z" />
<glyph unicode="b" horiz-adv-x="1138" d="M0 0v-430h1141v430h-303q86 45 143 129q117 172 117 428q0 233 -125 391q-129 160 -324 160q-63 0 -128.5 -24.5t-112.5 -65.5v483h-299v-1501h-109zM352 0l19 74q53 -47 100 -74h-119zM408 289v491q35 31 78.5 54.5t91.5 23.5q106 0 161 -82q29 -43 43.5 -103.5 t14.5 -140.5q0 -53 -8.5 -110t-32 -104.5t-65.5 -79t-107 -31.5q-59 0 -96 21.5t-80 60.5z" />
<glyph unicode="c" horiz-adv-x="1024" d="M0 0v-430h1038v430h-303q10 4 18.5 9t18.5 11q51 33 98.5 88.5t98.5 145.5l-232 131q-20 -35 -40.5 -66.5t-46 -56t-57.5 -40t-75 -15.5q-102 0 -145 78q-47 84 -47 247q0 166 47 248q41 78 141 78q43 0 72.5 -13.5t52.5 -36t39 -53t31 -65.5l252 98q-35 94 -80 155 t-109 95q-121 70 -260 70q-223 0 -354 -155.5t-131 -422.5q0 -178 66.5 -321t209.5 -209h-303z" />
<glyph unicode="d" horiz-adv-x="1138" d="M0 0v-430h1141v430h-109v1501h-301v-483q-49 41 -113.5 65.5t-128.5 24.5q-193 0 -321 -160q-125 -158 -125 -389q0 -272 117 -434q57 -82 141 -125h-301zM342 532q0 53 8 110.5t33 106t67 79t109 30.5q47 0 92 -22.5t80 -55.5v-491q-41 -37 -78 -59.5t-94 -22.5 q-68 0 -109.5 30.5t-66.5 77.5t-33 105.5t-8 111.5zM666 0q27 14 50 30.5t46 37.5l8 -68h-104z" />
<glyph unicode="e" horiz-adv-x="1024" d="M0 0v-430h1038v430h-288q10 4 20 10q57 27 107.5 73t99.5 120l-221 139q-45 -59 -97.5 -97t-130.5 -38q-61 0 -98 22.5t-58.5 59.5t-30.5 84t-15 96h643v143q0 109 -38 197t-100 158q-127 141 -321 141q-127 0 -218 -47t-150.5 -126t-87 -183.5t-27.5 -219.5 q0 -86 15 -166.5t49 -150.5t84 -126t122 -89h-297zM328 686q6 39 17 74t31.5 60.5t52.5 39.5t79 14q82 0 129 -53q45 -51 51 -135h-360z" />
<glyph unicode="f" horiz-adv-x="681" d="M0 0v-430h690v430h-241v838h215v249h-215v97q0 61 36.5 74.5t89.5 13.5h84v250h-188q-174 0 -249 -77t-75 -249v-109h-145v-249h148v-838h-150z" />
<glyph unicode="g" horiz-adv-x="1024" d="M0 0v-430h1100v430h-92q-16 68 -54.5 110t-90.5 66.5t-115.5 34.5t-129 15t-130 9.5t-119.5 14.5q-33 6 -43.5 17.5t-10.5 25.5t21.5 23.5t48.5 12.5t51.5 4t32.5 1q92 0 174 19.5t141.5 63.5t94 114.5t34.5 173.5q0 96 -43 174q29 12 74 12h76v217q-78 0 -150.5 -12.5 t-128.5 -73.5q-115 86 -254 86q-86 0 -165.5 -25.5t-141 -76t-98.5 -122t-37 -163.5q0 -86 36 -157.5t101 -125.5q-55 -33 -100 -81t-45 -119q0 -102 115 -166q-70 -23 -107 -72h-45zM281 -100q0 41 43 71q29 23 106 29q74 -4 129 -12t94 -19q49 -16 66.5 -34.5t17.5 -36.5 q0 -29 -23.5 -47.5t-56 -28.5t-66.5 -15.5t-52 -5.5q-78 0 -129.5 7.5t-79.5 19.5q-49 27 -49 72zM324 719q0 72 45 113.5t116 41.5q63 0 109 -45q43 -42 43 -110q0 -59 -44 -105.5t-106 -46.5q-66 0 -114.5 41t-48.5 111z" />
<glyph unicode="h" horiz-adv-x="1138" d="M0 0v-430h1161v430h-133v725q0 80 -19.5 150.5t-59.5 122t-102.5 81t-150.5 29.5q-78 0 -152.5 -32t-135.5 -79v504h-299v-1501h-109zM408 0v760q43 45 97 71.5t118 26.5q59 0 82 -37q10 -23 17 -57.5t7 -85.5v-678h-321z" />
<glyph unicode="i" horiz-adv-x="569" d="M0 0v-430h588v430h-154v1087h-299v-1087h-135zM135 1239h295v283h-295v-283z" />
<glyph unicode="j" horiz-adv-x="569" d="M-20 0v-430h608v430h-135q4 23 6 48.5t2 53.5v985h-299v-954q0 -16 -2 -34.5t-10.5 -33t-21.5 -23.5t-34 -7l-110 8v-43h-4zM162 1239h295v283h-295v-283z" />
<glyph unicode="k" horiz-adv-x="1024" d="M0 0v-430h1079v430h-35l-333 666l333 421h-348l-288 -376v790h-299v-1501h-109zM408 0v319l100 117l217 -436h-317z" />
<glyph unicode="l" horiz-adv-x="569" d="M0 0v-430h608v430h-174v1501h-299v-1501h-135z" />
<glyph unicode="m" horiz-adv-x="1705" d="M0 0v-430h1714v430h-119v776q0 66 -17 125.5t-53 105.5t-89.5 73.5t-124.5 27.5q-111 0 -197 -34t-164 -107q-45 72 -116.5 106.5t-155.5 34.5q-88 0 -156.5 -24.5t-134.5 -79.5v83h-278v-1087h-109zM408 0v756q14 12 36.5 30.5t48 34t52 26.5t49.5 11q57 0 82.5 -30.5 t25.5 -86.5v-741h-294zM1001 0v756q14 12 37 30.5t49.5 34t52 26.5t46.5 11q57 0 83.5 -30.5t26.5 -86.5v-741h-295z" />
<glyph unicode="n" horiz-adv-x="1138" d="M0 0v-430h1161v430h-133v725q0 80 -19.5 150.5t-59.5 122t-102.5 81t-150.5 29.5q-86 0 -163.5 -32t-145.5 -81v92h-278v-1087h-109zM408 0v760q43 45 97 71.5t118 26.5q59 0 82 -37q10 -23 17 -57.5t7 -85.5v-678h-321z" />
<glyph unicode="o" horiz-adv-x="1024" d="M0 0v-430h1042v430h-323q84 39 149 117q131 158 131 415q0 258 -131 416q-133 160 -356 160t-354 -160q-131 -158 -131 -416t131 -415q66 -78 149 -117h-307zM326 532q0 47 5 103.5t24.5 106t56.5 83t100 33.5q98 0 141 -78q47 -84 47 -248q0 -47 -5 -104t-24.5 -106.5 t-57.5 -82t-101 -32.5t-100 33.5t-56.5 83t-24.5 105.5t-5 103z" />
<glyph unicode="p" horiz-adv-x="1138" d="M0 0v-430h1161v430h-330q78 41 140 117q127 158 127 391q0 268 -119 432q-119 168 -332 168q-72 0 -133 -24.5t-117 -67.5v71h-288v-1087h-109zM408 0v70l46 -36t52 -34h-98zM408 285v491q41 39 78.5 60.5t97.5 21.5q104 0 155 -82q29 -43 43.5 -103.5t14.5 -140.5 q0 -53 -9.5 -110t-33 -105.5t-65.5 -79t-109 -30.5q-49 0 -93.5 23.5t-78.5 54.5z" />
<glyph unicode="q" horiz-adv-x="1138" d="M0 0v-430h1161v430h-129v1087h-241l-23 -94q-61 53 -124.5 84t-149.5 31q-125 0 -211 -54.5t-139.5 -140.5t-77 -192.5t-23.5 -212.5q0 -233 125 -391q61 -76 139 -117h-307zM342 532q0 53 8 110.5t33 106t67 79t109 30.5q57 0 94 -22.5t78 -59.5v-489q-33 -31 -76 -55.5 t-90 -24.5q-70 0 -112.5 29.5t-67.5 76.5t-34 105.5t-9 113.5zM635 0q29 16 53.5 33.5t44.5 34.5v-68h-98z" />
<glyph unicode="r" horiz-adv-x="681" d="M0 0v-430h690v430h-299v647q20 45 84 96q69 54 135 54h2l62 -4v315q-98 0 -173 -33t-130 -114v126h-279v-1087h-92z" />
<glyph unicode="s" horiz-adv-x="909" d="M0 0v-430h915v430h-241q20 10 38.5 21.5t35.5 23.5q116 91 116 236q0 143 -76 237q-39 45 -89 74t-104 48t-109.5 37.5t-106.5 47.5q-49 29 -49 68q0 51 39 66t82 15q59 0 109 -39.5t87 -82.5l195 170q-88 98 -182.5 142t-225.5 44q-74 0 -142.5 -21.5t-119.5 -63.5 t-82 -103.5t-31 -141.5q0 -160 101 -235q98 -72 215 -115q63 -25 107 -43t69 -33q41 -23 41 -65q0 -27 -12.5 -45.5t-32 -29.5t-43 -16.5t-45.5 -5.5q-39 0 -74 14.5t-64.5 38t-55 52.5t-44.5 59l-207 -155q53 -74 103.5 -120t107.5 -73q4 -2 8.5 -3t8.5 -3h-242z" />
<glyph unicode="t" horiz-adv-x="681" d="M0 0v-430h711v430h-54v233l-73 -18q-33 -8 -68 -8q-31 0 -49 8t-18 43v580h208v249h-208v291l-299 -102v-189h-148v-249h148v-617q0 -158 104 -221h-254z" />
<glyph unicode="u" horiz-adv-x="1138" d="M0 0v-430h1141v430h-113v1087h-299v-784q-39 -41 -94 -68.5t-115 -27.5q-66 0 -86 35q-26 36 -26 122v7v716h-299v-755q0 -111 37.5 -198t117.5 -134h-264zM627 0q33 16 63.5 33.5t61.5 38.5v-72h-125z" />
<glyph unicode="v" horiz-adv-x="909" d="M-8 1087l303 -1087h-295v-430h956v430h-350l314 1087h-304l-163 -657l-160 657h-301z" />
<glyph unicode="w" horiz-adv-x="1366" d="M-8 1087l280 -1087h-272v-430h1407v430h-313l278 1087h-287l-135 -591l-131 591h-272l-137 -593l-129 593h-289zM547 0l135 575l137 -575h-272z" />
<glyph unicode="x" horiz-adv-x="909" d="M-31 -23h11v-407h968v430h-20l-324 553l311 534h-327l-137 -268l-136 268h-333l313 -534l-313 -553h-2v-4zM305 0l148 283l153 -283h-301z" />
<glyph unicode="y" horiz-adv-x="909" d="M-12 1087l323 -1034l2 -37q-4 -12 -4 -16h-309v-147h-2v-254h2v-29h915v430h-337l346 1087h-303l-168 -600l-162 600h-303z" />
<glyph unicode="z" horiz-adv-x="909" d="M0 0v-430h932v430h-35v227h-496l490 647v213h-836l-2 -249h453l-492 -650v-188h-14z" />
<glyph unicode="{" horiz-adv-x="681" d="M-8 580q47 0 71.5 -7.5t40.5 -23.5q33 -31 33 -74v-407q0 -37 8 -68h-145v-430h711v430h-293q-14 23 -15 57v381q0 70 -22.5 130.5t-87.5 95.5q66 35 88 95t22 130v381q0 29 13.5 56.5t48.5 27.5h127v168h-158q-78 0 -137 -19.5t-94 -60.5q-66 -78 -66 -182v-408 q0 -43 -33 -74q-16 -16 -40.5 -23t-71.5 -7v-168z" />
<glyph unicode="|" horiz-adv-x="454" d="M0 0v-430h485v430h-125v1522h-266v-1522h-94z" />
<glyph unicode="}" horiz-adv-x="681" d="M0 0v-430h696v430h-159q8 31 8 68v407q0 43 33 74q16 16 39.5 23.5t68.5 7.5v168q-45 0 -68.5 7t-39.5 23q-33 31 -33 74v408q0 104 -66 182q-66 80 -227 80h-158v-168h125q35 0 47.5 -28t12.5 -56v-381q0 -68 21.5 -129.5t84.5 -95.5q-63 -35 -84.5 -96.5t-21.5 -129.5 v-381q0 -33 -13 -57h-266z" />
<glyph unicode="~" horiz-adv-x="1228" d="M0 0v-430h1264v430h-1264zM117 535l94 -240q41 74 64.5 106.5t39.5 44.5q33 27 76 27q51 0 101.5 -21.5t102.5 -48t109.5 -48t122.5 -21.5q100 0 172 59q66 53 111 137l-92 238q-45 -72 -68.5 -104.5t-40.5 -45.5q-33 -27 -73 -26q-51 0 -101.5 21.5t-102.5 48t-109.5 48 t-121.5 21.5q-102 0 -170.5 -55t-113.5 -141z" />
<glyph unicode="&#xa1;" horiz-adv-x="681" d="M0 0v-430h690v430h-194l-35 631h-238l-35 -631h-188zM176 795h330v335h-330v-335z" />
<glyph unicode="&#xa2;" d="M0 0v-430h1264v430h-410q72 35 126 98.5t107 155.5l-231 131q-20 -35 -40.5 -66.5t-46.5 -56t-57.5 -40t-74.5 -15.5h-23q-10 0 -18 2l199 549q8 -14 15 -29.5t17 -38.5l252 98q-63 176 -184 246l100 275h-168l-77 -215q-55 14 -119 14q-223 0 -354.5 -155.5 t-131.5 -422.5q0 -129 32 -234.5t97 -182.5q33 -41 93 -82l-13 -31h-354zM444 532q0 166 48 248q41 78 141 78q23 0 31 -2l-191 -528q-29 80 -29 204z" />
<glyph unicode="&#xa3;" d="M0 0v-430h1264v430h-283q57 35 98 90q47 66 72 158t29 221h-291q-4 -80 -14.5 -123t-26.5 -65q-29 -41 -103 -41q-57 0 -110 21.5t-100 49.5q29 72 39 153t12 157h237v237h-272q-14 51 -22.5 101.5t-6.5 103.5q0 41 7.5 76t24.5 61.5t46 40.5t76 14q51 0 84 -16t52 -46 t27.5 -69t14.5 -84h289q0 119 -31 205t-92 150q-121 127 -338 127q-106 0 -193.5 -26t-148.5 -79t-95 -135t-34 -192q0 -113 22 -232h-161v-237h196q2 -41 5 -76t1 -68t-11 -66.5t-30 -72.5q-18 -35 -52 -55.5t-97 -28.5v-254h-84zM295 0q51 27 102 78q78 -51 148 -78h-250z " />
<glyph unicode="&#xa4;" d="M-43 504h102q14 -86 43 -164t72 -143.5t102.5 -115.5t137.5 -81h-414v-430h1284v430h-379q57 20 109 59q72 51 126 129t99 195l-307 80q-23 -49 -47.5 -90t-55 -71t-72.5 -46t-102 -16q-152 0 -217 120q-33 55 -51 144h682v168h-700q-2 14 -2 26v31v31q0 16 2 33h700v170 h-680q10 53 29.5 103t50.5 88t75 61.5t103 23.5q106 0 163.5 -61.5t90.5 -155.5l299 72q-39 133 -91 216t-124 126q-141 86 -328 86q-141 0 -244.5 -44t-176 -120t-116.5 -177.5t-63 -217.5h-100v-170h82v-54v-34q0 -16 2 -33h-84v-168z" />
<glyph unicode="&#xa5;" d="M0 0v-430h1264v430h-500v391h369v238h-345l48 94h297v238h-177l275 540h-305l-301 -606l-299 606h-306l275 -540h-178v-238h299l47 -94h-346v-238h368v-391h-485z" />
<glyph unicode="&#xa6;" horiz-adv-x="454" d="M94 -43h266v623h-266v-623zM94 899h266v623h-266v-623z" />
<glyph unicode="&#xa7;" horiz-adv-x="1024" d="M0 0v-430h1038v430h-225q4 16 6 33.5t2 36.5q0 68 -19.5 122t-66.5 105q74 14 133 74q76 74 76 188q0 72 -39 137q-29 51 -74 103.5t-96 102.5t-102 95t-90 82q-14 14 -31.5 32.5t-33 39t-26 44.5t-10.5 46q0 41 23.5 57.5t62.5 16.5q55 0 98.5 -39t69.5 -82l174 135 q-41 49 -78.5 86t-79.5 60.5t-93.5 35t-116.5 11.5q-57 0 -110.5 -16.5t-95.5 -49.5t-66.5 -80t-24.5 -110q0 -68 18.5 -123.5t65.5 -104.5q-94 -23 -150.5 -93.5t-56.5 -168.5q0 -72 39 -137q27 -51 73 -103.5t97 -102.5t102 -95t90 -82q14 -14 31.5 -32.5t33 -39t26 -44 t10.5 -46.5q0 -41 -23.5 -57.5t-62.5 -16.5q-55 0 -98.5 39t-69.5 82l-174 -135l6 -6h-162zM319 803q0 35 12.5 46t47.5 11h14q53 -14 99 -65q49 -53 101 -103.5t95 -109.5q18 -25 19 -50q0 -35 -12.5 -46t-47.5 -11h-14q-57 18 -101 66q-47 53 -99 103t-95 110 q-18 25 -19 49z" />
<glyph unicode="&#xa8;" horiz-adv-x="569" d="M-53 1198h291v283h-291v-283zM336 1198h291v283h-291v-283z" />
<glyph unicode="&#xa9;" horiz-adv-x="1638" d="M0 0v-430h1653v430h-514q137 59 250 172q236 236 235 569q0 334 -235.5 569.5t-569.5 235.5t-569.5 -235.5t-235.5 -569.5t236 -569q113 -113 250 -172h-500zM231 741q0 240 172 416q174 172 416 172q240 0 416 -172q172 -176 172 -416q0 -242 -172 -415 q-176 -172 -416 -172q-242 0 -416 172q-172 174 -172 415zM399 750q0 -104 33 -190.5t93.5 -148t145.5 -95t189 -33.5q131 0 242 88q55 47 90 112.5t51 165.5h-231q-10 -78 -47 -109.5t-115 -31.5q-49 0 -85 22.5t-58.5 58.5t-33.5 79t-11 86q0 45 10 86t32.5 73.5t57.5 52 t86 19.5q68 0 110.5 -30.5t53.5 -100.5h223q-16 96 -48 159.5t-85 108.5q-102 88 -246 88q-104 0 -188 -33.5t-143.5 -94t-92.5 -145.5t-33 -187z" />
<glyph unicode="&#xaa;" horiz-adv-x="614" d="M-10 1006q0 -90 60.5 -141.5t146.5 -51.5q109 0 202 53l9 -41h196v45l-2 9q-6 20 -6 51v313q0 150 -70.5 214.5t-218.5 64.5q-92 0 -164.5 -34t-124.5 -112l144 -100q29 41 60.5 64.5t84.5 23.5q29 0 53.5 -12.5t24.5 -46.5v-29q-45 -6 -85 -12.5t-77 -16.5t-73.5 -26.5 t-75.5 -44.5q-84 -61 -84 -170zM0 0v-430h629v430h-629zM199 1022q0 27 16 43q27 25 65.5 38t73.5 19l31 4v-98q-27 -18 -61.5 -37.5t-67.5 -19.5q-25 0 -41 12t-16 39z" />
<glyph unicode="&#xab;" horiz-adv-x="1138" d="M0 0v-430h18h416h295h416h16v430h-16h-416h-295h-416h-18zM74 532l262 -350h287l-269 350l269 351h-287zM489 532l263 -350h286l-268 350l268 351h-286z" />
<glyph unicode="&#xac;" horiz-adv-x="1228" d="M0 0v-430h1243v430h-1243zM59 627h846v-455h262v717h-1108v-262z" />
<glyph unicode="&#xad;" horiz-adv-x="681" d="M0 0v-430h690v430h-690zM68 399h546v267h-546v-267z" />
<glyph unicode="&#xae;" horiz-adv-x="1638" d="M0 0v-430h1653v430h-514q137 59 250 172q236 236 235 569q0 334 -235.5 569.5t-569.5 235.5t-569.5 -235.5t-235.5 -569.5t236 -569q113 -113 250 -172h-500zM231 741q0 240 172 416q174 172 416 172q240 0 416 -172q172 -176 172 -416q0 -242 -172 -415 q-176 -172 -416 -172q-242 0 -416 172q-172 174 -172 415zM487 303h226v348h49l194 -348h236l-219 363q86 10 143 59q70 63 70 180q0 86 -30 140.5t-80 84t-117.5 40t-141.5 10.5h-330v-877zM713 836v159h133q61 0 90 -18q10 -6 17.5 -18.5t7.5 -34.5q0 -57 -38 -72.5 t-85 -15.5h-125z" />
<glyph unicode="&#xaf;" horiz-adv-x="569" d="M-92 1243h756v197h-756v-197z" />
<glyph unicode="&#xb0;" horiz-adv-x="819" d="M0 0v-430h834v430h-834zM94 1206q0 -66 24.5 -123t67.5 -100t100.5 -67.5t123.5 -24.5q131 0 223 92t92 223q0 66 -24.5 123t-67.5 100.5t-100.5 68t-122.5 24.5q-66 0 -123.5 -24.5t-100.5 -68t-67.5 -100.5t-24.5 -123zM268 1206q0 59 41 100.5t101 41.5q55 0 100 -41 q41 -45 41 -101q0 -59 -41 -100t-100 -41t-100.5 41t-41.5 100z" />
<glyph unicode="&#xb1;" horiz-adv-x="1228" d="M0 0v-430h1243v430h-76v244h-1108v-244h-59zM59 551h420v-270h266v270h422v266h-422v270h-266v-270h-420v-266z" />
<glyph unicode="&#xb2;" horiz-adv-x="749" d="M4 575h723v183h-434q49 39 99 74.5t100 70.5q43 31 86 64.5t75.5 74.5t53 89.5t20.5 107.5q0 74 -30.5 127t-81 87t-114 50.5t-126.5 16.5q-139 0 -240 -70q-53 -37 -85 -87t-46 -126l203 -41q16 70 57 107.5t113 37.5q47 0 85 -22.5t38 -75.5q0 -29 -21.5 -59.5 t-52.5 -60t-62.5 -54.5t-52.5 -39q-55 -39 -104 -74.5t-92 -70.5t-72 -69t-39 -68v-173z" />
<glyph unicode="&#xb3;" horiz-adv-x="749" d="M-23 768q57 -102 165 -153.5t220 -51.5q169 0 273 78q109 78 108 209q0 80 -38.5 138.5t-110.5 90.5q53 31 84 80t31 111q0 70 -34 118t-86 77.5t-114.5 42t-120.5 12.5q-102 0 -184 -39t-154 -111l154 -125q41 43 85 69.5t107 26.5q18 0 40 -4t39.5 -14t29.5 -26.5 t12 -39.5q0 -39 -28.5 -59t-66.5 -29.5t-78 -10.5t-64 -1h-33v-178h41q29 0 74 -2t87 -14.5t71.5 -37t29.5 -69.5q0 -31 -13.5 -52.5t-35 -34.5t-48 -20.5t-50.5 -7.5q-137 0 -207 117z" />
<glyph unicode="&#xb4;" horiz-adv-x="569" d="M0 0v-430h588v430h-588zM78 1178h258l346 344h-383z" />
<glyph unicode="&#xb5;" horiz-adv-x="1138" d="M0 0v-430h1161v430h-133v1087h-299v-784q-39 -41 -94 -68.5t-115 -27.5q-66 0 -86 35q-27 37 -26 129v716h-299v-1087h-109zM629 0q33 16 63.5 34.5t59.5 37.5v-72h-123z" />
<glyph unicode="&#xb6;" horiz-adv-x="1269" d="M0 0v-430h1284v430h-211v1284h150v217h-742q-100 0 -184 -21.5t-144.5 -68.5t-94 -122t-33.5 -183q0 -90 31.5 -157.5t86 -115t128 -72t157.5 -28.5v-733h-428zM682 0v1284h137v-1284h-137z" />
<glyph unicode="&#xb7;" horiz-adv-x="624" d="M0 0v-430h649v430h-649zM147 362h328v336h-328v-336z" />
<glyph unicode="&#xb8;" horiz-adv-x="569" d="M12 -428q61 -25 124 -44.5t130 -19.5q121 1 201 60q82 59 82 158q0 45 -16.5 78.5t-44 55t-65.5 33t-79 11.5l-25 -4l84 123h-163l-138 -209l62 -64l100 14q25 0 42.5 -7t17.5 -36q0 -41 -21.5 -51t-60.5 -10q-49 0 -88 11.5t-86 25.5z" />
<glyph unicode="&#xb9;" horiz-adv-x="749" d="M96 1311h178v-568h-155v-168h536v168h-157v777h-170q-47 -39 -110.5 -49.5t-121.5 -12.5v-147z" />
<glyph unicode="&#xba;" horiz-adv-x="614" d="M-18 1167q0 -74 21.5 -139t62 -112.5t101 -75t138.5 -27.5q146 0 236 98q88 96 88 256q0 74 -21.5 139.5t-62.5 112.5t-101.5 75t-138.5 28t-138.5 -28t-101 -75t-62 -112.5t-21.5 -139.5zM0 0v-430h629v430h-629zM190 1167q0 31 3.5 64t15.5 60.5t34.5 45t61.5 17.5 q59 0 84 -43q29 -47 29 -144q0 -29 -3 -61.5t-14.5 -60t-34 -46t-61.5 -18.5t-61.5 17.5t-34.5 45t-15.5 60.5t-3.5 63z" />
<glyph unicode="&#xbb;" horiz-adv-x="1138" d="M0 0v-430h18h416h297h19h415v430h-415h-19h-297h-416h-18zM98 182h287l258 350l-258 351h-287l264 -351zM514 182h287l258 350l-258 351h-287l264 -351z" />
<glyph unicode="&#xbc;" horiz-adv-x="1875" d="M117 1311h178v-568h-156v-168h537v168h-158v777h-170q-47 -39 -110.5 -49.5t-120.5 -12.5v-147zM391 -43h232l874 1567h-233zM1034 182h453l2 -59v-146h217v205h141v168h-141v559h-229l-443 -540v-187zM1243 350l244 309v-309h-244z" />
<glyph unicode="&#xbd;" horiz-adv-x="1875" d="M117 1311h178v-568h-156v-168h537v168h-158v777h-170q-47 -39 -110.5 -49.5t-120.5 -12.5v-147zM360 -43h232l874 1567h-233zM1042 -23h723v183h-434q49 39 99.5 74.5t99.5 70.5q43 31 86 64.5t75.5 74.5t53 89.5t20.5 107.5q0 74 -30.5 127t-80.5 87t-113.5 50.5 t-127.5 16.5q-139 0 -239 -70q-53 -37 -85 -87t-47 -126l203 -41q16 70 57 107.5t113 37.5q47 0 85 -22.5t38 -75.5q0 -29 -21.5 -59.5t-52 -60t-62.5 -54.5t-52 -39q-55 -39 -104.5 -74.5t-92.5 -70.5t-71.5 -69t-39.5 -68v-173z" />
<glyph unicode="&#xbe;" horiz-adv-x="1875" d="M0 768q57 -102 164.5 -153.5t220.5 -51.5q168 0 272 78q109 78 109 209q0 80 -39 138.5t-111 90.5q53 31 84 80t31 111q0 70 -33.5 118t-86 77.5t-115 42t-119.5 12.5q-102 0 -184 -39t-154 -111l154 -125q41 43 85 69.5t107 26.5q18 0 39.5 -4t39 -14t30 -26.5 t12.5 -39.5q0 -39 -28.5 -59t-66.5 -29.5t-78 -10.5t-65 -1h-32v-178h40q29 0 74 -2t87 -14.5t72 -37t30 -69.5q0 -31 -13.5 -52.5t-35 -34.5t-48 -20.5t-51.5 -7.5q-137 0 -207 117zM424 -43h231l875 1567h-234zM1040 182h453l2 -59v-146h217v205h141v168h-141v559h-229 l-443 -540v-187zM1249 350l244 309v-309h-244z" />
<glyph unicode="&#xbf;" horiz-adv-x="909" d="M0 0v-430h936v430h-35q4 12 6 23.5t6 25.5l-280 78q-6 -47 -16.5 -75.5t-26.5 -51.5h-205q-6 14 -6 31q0 29 18 75q27 63 68 121t80 114t66.5 118.5t27.5 140.5v137h-270v-98q0 -82 -44 -145.5t-94 -122.5q-57 -66 -107 -150t-50 -176v-22t2 -23h-76zM336 797h330v336 h-330v-336z" />
<glyph unicode="&#xc0;" d="M-4 -23h4v-407h1264v430h-17l-426 1503h-385l-432 -1503h-4v-10zM231 1880l347 -344h258l-222 344h-383zM330 0l82 297h432l78 -297h-592zM485 575l148 541l139 -541h-287z" />
<glyph unicode="&#xc1;" d="M-4 -23h4v-407h1284v430h-37l-426 1503h-385l-432 -1503h-4v-10zM330 0l82 297h432l78 -297h-592zM418 1536h258l346 344h-383zM485 575l148 541l139 -541h-287z" />
<glyph unicode="&#xc2;" d="M-4 -23h4v-407h1264v430h-17l-426 1503h-385l-432 -1503h-4v-10zM221 1536h289l119 154l119 -154h288l-270 344h-274zM330 0l82 297h432l78 -297h-592zM485 575l148 541l139 -541h-287z" />
<glyph unicode="&#xc3;" d="M-12 0v-430h1284v430h-25l-426 1503h-385l-432 -1503h-16zM223 1552h172q4 12 10.5 26.5t14.5 28t19.5 22.5t27.5 9q37 0 74 -11t74.5 -25.5t76.5 -25.5t78 -11q96 -1 168 77q35 37 55.5 88.5t32.5 129.5h-172q-4 -12 -10 -26.5t-14.5 -28t-20.5 -22.5t-27 -9 q-37 0 -73.5 11t-74.5 25.5t-77 25.5t-78 11q-96 0 -168 -78q-35 -37 -55 -88t-33 -129zM330 0l82 297h432l78 -297h-592zM485 575l148 541l139 -541h-287z" />
<glyph unicode="&#xc4;" d="M-4 -23h4v-407h1284v430h-37l-426 1503h-385l-432 -1503h-4v-10zM291 1556h291v283h-291v-283zM330 0l82 297h432l78 -297h-592zM485 575l148 541l139 -541h-287zM680 1556h291v283h-291v-283z" />
<glyph unicode="&#xc5;" d="M-4 -23h4v-407h1284v430h-37l-426 1503h-385l-432 -1503h-4v-10zM330 0l82 297h432l78 -297h-592zM385 1778q0 -51 19.5 -95.5t52 -77t77 -52t95.5 -19.5q100 0 172 72t71 172q0 51 -19 95t-52 76.5t-77 52t-95 19.5t-95.5 -19.5t-77 -52t-52 -76.5t-19.5 -95zM485 575 l148 541l139 -541h-287zM541 1778q0 37 25.5 62.5t62.5 25.5q38 0 63 -25t25 -63q0 -39 -24.5 -63.5t-63.5 -24.5q-37 0 -62.5 25.5t-25.5 62.5z" />
<glyph unicode="&#xc6;" horiz-adv-x="1933" d="M-20 0v-430h1959v430h-53v260h-653v371l440 2v278h-440v308h629v282h-1119l-749 -1501h-14zM340 0l154 324h413v-324h-567zM633 606l274 570v-570h-274z" />
<glyph unicode="&#xc7;" d="M0 0v-430h1284v430h-379q57 20 109 59q72 51 126 129t99 195l-307 80q-23 -49 -47.5 -90t-55 -71t-72.5 -46t-102 -16q-152 0 -217 120q-72 125 -71 369q0 45 3 100.5t13 111.5t29.5 109.5t50.5 95.5t77 67.5t107 25.5q106 0 163.5 -61.5t90.5 -155.5l299 72 q-39 133 -91 216t-124 126q-141 86 -328 86q-172 0 -290.5 -65.5t-191.5 -175.5t-104.5 -251t-31.5 -291q0 -121 19.5 -235.5t64.5 -212.5t115.5 -174t175.5 -117h-414z" />
<glyph unicode="&#xc8;" d="M0 0v-430h1268v428h-74v360h-719v273l508 2v278h-508v308h696v282h-1021v-1501h-150zM268 1880l346 -344h258l-221 344h-383z" />
<glyph unicode="&#xc9;" d="M0 0v-430h1264v430h-68v260h-721v371l508 2v278h-508v308h696v282h-1021v-1501h-150zM455 1536h258l346 344h-383z" />
<glyph unicode="&#xca;" d="M0 0v-430h1264v430h-68v260h-721v371l508 2v278h-508v308h696v282h-1021v-1501h-150zM258 1536h289l119 154l118 -154h289l-270 344h-275z" />
<glyph unicode="&#xcb;" d="M0 0v-430h1270v430h-74v260h-721v371l508 2v278h-508v308h696v282h-1021v-1501h-150zM328 1556h290v283h-290v-283zM717 1556h291v283h-291v-283z" />
<glyph unicode="&#xcc;" horiz-adv-x="681" d="M-59 1880l346 -344h258l-221 344h-383zM0 0v-430h690v426h-186v362v1143h-328v-1143v-358h-176z" />
<glyph unicode="&#xcd;" horiz-adv-x="681" d="M0 0v-430h690v430h-186v358v1143h-328v-1143v-358h-176zM127 1536h258l346 344h-383z" />
<glyph unicode="&#xce;" horiz-adv-x="681" d="M-70 1536h289l119 154l119 -154h288l-270 344h-274zM0 0v-430h690v430h-186v1501h-328v-1501h-176z" />
<glyph unicode="&#xcf;" horiz-adv-x="681" d="M0 0v-430h690v430h-186v1501h-328v-1501h-176zM0 1556h291v283h-291v-283zM389 1556h291v283h-291v-283z" />
<glyph unicode="&#xd0;" horiz-adv-x="1366" d="M0 612h137v-635h502q338 0 518 199q176 195 176 561q0 174 -41 315.5t-126 241t-217 153.5t-314 54l-498 2v-592h-137v-299zM463 260v352h307v299h-307v308h172q186 0 276 -119q92 -121 93 -359q0 -98 -16.5 -185t-57.5 -153.5t-114 -104.5t-185 -38h-168z" />
<glyph unicode="&#xd1;" horiz-adv-x="1478" d="M0 0v-430h1509v430h-174v1501h-311v-954l-551 954h-330v-1501h-143zM334 1552h172q4 12 10 26.5t14.5 28t19.5 22.5t28 9q37 0 73.5 -11t74.5 -25.5t77 -25.5t78 -11q96 -1 168 77q35 37 55 88.5t33 129.5h-172q-4 -12 -10.5 -26.5t-14.5 -28t-20.5 -22.5t-26.5 -9 q-37 0 -74 11t-74.5 25.5t-76.5 25.5t-78 11q-96 0 -168 -78q-35 -37 -55.5 -88t-32.5 -129zM455 0v977l561 -977h-561z" />
<glyph unicode="&#xd2;" horiz-adv-x="1366" d="M0 0v-430h1386v430h-448q137 53 225 166q164 203 164 573q0 158 -33.5 300.5t-110.5 250t-199 170t-300 62.5t-301 -62.5t-200 -170t-110.5 -250t-33.5 -300.5q0 -127 21.5 -242.5t68.5 -212t121 -170t180 -114.5h-430zM289 1880l346 -344h258l-221 344h-383zM367 739 q0 250 77 377q74 123 240 123q164 0 238 -123q78 -127 77 -377q0 -250 -77 -377q-74 -123 -238 -122q-166 0 -240 122q-78 127 -77 377z" />
<glyph unicode="&#xd3;" horiz-adv-x="1366" d="M0 0v-430h1407v430h-469q137 53 225 166q164 203 164 573q0 158 -33.5 300.5t-110.5 250t-199 170t-300 62.5t-301 -62.5t-200 -170t-110.5 -250t-33.5 -300.5q0 -127 21.5 -242.5t68.5 -212t121 -170t180 -114.5h-430zM367 739q0 250 77 377q74 123 240 123 q164 0 238 -123q78 -127 77 -377q0 -250 -77 -377q-74 -123 -238 -122q-166 0 -240 122q-78 127 -77 377zM475 1536h258l346 344h-383z" />
<glyph unicode="&#xd4;" horiz-adv-x="1366" d="M0 0v-430h1386v430h-448q137 53 225 166q164 203 164 573q0 158 -33.5 300.5t-110.5 250t-199 170t-300 62.5t-301 -62.5t-200 -170t-110.5 -250t-33.5 -300.5q0 -127 21.5 -242.5t68.5 -212t121 -170t180 -114.5h-430zM279 1536h288l119 154l119 -154h289l-271 344h-274 zM367 739q0 250 77 377q74 123 240 123q164 0 238 -123q78 -127 77 -377q0 -250 -77 -377q-74 -123 -238 -122q-166 0 -240 122q-78 127 -77 377z" />
<glyph unicode="&#xd5;" horiz-adv-x="1366" d="M0 0v-430h1386v430h-448q137 53 225 166q164 203 164 573q0 158 -33.5 300.5t-110.5 250t-199 170t-300 62.5t-301 -62.5t-200 -170t-110.5 -250t-33.5 -300.5q0 -127 21.5 -242.5t68.5 -212t121 -170t180 -114.5h-430zM281 1552h172q4 12 10 26.5t14 28t19.5 22.5 t27.5 9q37 0 74 -11t75 -25.5t76.5 -25.5t77.5 -11q96 -1 168 77q35 37 55.5 88.5t32.5 129.5h-172q-4 -12 -10 -26.5t-14 -28t-20.5 -22.5t-26.5 -9q-37 0 -74 11t-75 25.5t-77 25.5t-77 11q-96 0 -168 -78q-35 -37 -55.5 -88t-32.5 -129zM367 739q0 250 77 377 q74 123 240 123q164 0 238 -123q78 -127 77 -377q0 -250 -77 -377q-74 -123 -238 -122q-166 0 -240 122q-78 127 -77 377z" />
<glyph unicode="&#xd6;" horiz-adv-x="1366" d="M0 0v-430h1407v430h-469q137 53 225 166q164 203 164 573q0 158 -33.5 300.5t-110.5 250t-199 170t-300 62.5t-301 -62.5t-200 -170t-110.5 -250t-33.5 -300.5q0 -127 21.5 -242.5t68.5 -212t121 -170t180 -114.5h-430zM348 1556h291v283h-291v-283zM367 739 q0 250 77 377q74 123 240 123q164 0 238 -123q78 -127 77 -377q0 -250 -77 -377q-74 -123 -238 -122q-166 0 -240 122q-78 127 -77 377zM737 1556h291v283h-291v-283z" />
<glyph unicode="&#xd7;" horiz-adv-x="1228" d="M49 158l191 -191l374 375l375 -375l191 191l-375 374l375 375l-191 191l-375 -375l-374 375l-191 -191l375 -375z" />
<glyph unicode="&#xd8;" horiz-adv-x="1366" d="M0 0v-430h1380v430h-442q104 41 179 114.5t121 171t67.5 213t21.5 240.5q0 348 -143 543l202 303h-290l-90 -137q-59 39 -139.5 56.5t-182.5 17.5q-178 0 -301 -62.5t-200 -170t-110.5 -250t-33.5 -300.5q0 -342 137 -536l-135 -203h-41zM330 0l22 35q16 -10 32.5 -18.5 t35.5 -16.5h-90zM367 739q0 250 77 377q74 123 240 123q102 0 156 -37l-455 -684q-18 82 -18 221zM516 283l461 690q23 -94 22 -234q0 -250 -77 -377q-74 -123 -238 -122q-109 0 -168 43z" />
<glyph unicode="&#xd9;" horiz-adv-x="1478" d="M0 0v-430h1509v430h-505q100 37 172 111q152 154 151 444v946h-326v-942q0 -176 -59 -248q-29 -35 -79 -53t-128 -18q-145 0 -200 73q-59 72 -60 250v938h-325v-960q0 -209 83.5 -345.5t243.5 -195.5h-477zM338 1880l346 -344h258l-221 344h-383z" />
<glyph unicode="&#xda;" horiz-adv-x="1478" d="M0 0v-430h1509v430h-505q100 37 172 111q152 154 151 444v946h-326v-942q0 -176 -59 -248q-29 -35 -79 -53t-128 -18q-145 0 -200 73q-59 72 -60 250v938h-325v-960q0 -209 83.5 -345.5t243.5 -195.5h-477zM524 1536h258l346 344h-383z" />
<glyph unicode="&#xdb;" horiz-adv-x="1478" d="M0 0v-430h1509v430h-505q100 37 172 111q152 154 151 444v946h-326v-942q0 -176 -59 -248q-29 -35 -79 -53t-128 -18q-145 0 -200 73q-59 72 -60 250v938h-325v-960q0 -209 83.5 -345.5t243.5 -195.5h-477zM328 1536h288l119 154l119 -154h289l-271 344h-274z" />
<glyph unicode="&#xdc;" horiz-adv-x="1478" d="M0 0v-430h1509v430h-505q100 37 172 111q152 154 151 444v946h-326v-942q0 -176 -59 -248q-29 -35 -79 -53t-128 -18q-145 0 -200 73q-59 72 -60 250v938h-325v-960q0 -209 83.5 -345.5t243.5 -195.5h-477zM397 1556h291v283h-291v-283zM786 1556h291v283h-291v-283z" />
<glyph unicode="&#xdd;" horiz-adv-x="1138" d="M-14 1501l422 -919v-224h-123v-358h-285v-430h1509v430h-63v358h-713v230l420 913h-344l-240 -551l-239 551h-344zM362 1536h259l346 344h-383z" />
<glyph unicode="&#xde;" d="M115 -23l325 3v325h236q129 0 231 28t174 87q145 119 146 346q0 123 -38 211t-105.5 143.5t-163 82t-209.5 26.5h-271v272h-325v-1524zM440 578v376h207q53 0 99.5 -7t80 -27.5t52 -58.5t18.5 -99q0 -59 -20.5 -95t-54.5 -56.5t-80 -26.5t-95 -6h-207z" />
<glyph unicode="&#xdf;" horiz-adv-x="1024" d="M0 0v-430h1038v430h-215q55 27 95 78q90 121 90 325q0 63 -11.5 126t-37 117t-68.5 98t-105 73q78 51 103.5 130t25.5 167q0 98 -30.5 171t-86 121t-132 71.5t-170.5 23.5q-188 0 -299 -94t-111 -291v-1116h-86zM385 0v1130q6 63 27.5 92t87.5 29q39 0 62.5 -16t37.5 -42 t19.5 -57.5t5.5 -62.5q0 -23 -3.5 -50.5t-13.5 -51t-28.5 -40t-49.5 -16.5h-61v-249h80q51 0 83 -24t48 -59.5t21.5 -78.5t5.5 -84q0 -106 -27 -162q-20 -51 -74 -51q-31 0 -54.5 9t-51.5 26l-76 -222q14 -10 33 -20h-72z" />
<glyph unicode="&#xe0;" horiz-adv-x="1024" d="M0 0v-430h1038v430q-41 0 -63.5 1t-33.5 13.5t-14 40t-3 80.5v524q0 229 -99.5 339t-332.5 110q-133 0 -245 -54.5t-184 -168.5l201 -152q43 66 93.5 103.5t134.5 37.5q55 0 94 -26.5t39 -85.5v-64q-51 -4 -90 -12q-106 -20 -208 -51t-190 -100q-123 -102 -123 -273 q0 -88 38 -155.5t104 -106.5h-156zM115 1522l346 -344h258l-221 344h-383zM313 291q0 53 34 87t82 54.5t101.5 31.5t94.5 19v-192q-41 -33 -99.5 -67t-113.5 -34q-47 0 -73 28t-26 73zM541 0q51 23 100 53l10 -53h-110z" />
<glyph unicode="&#xe1;" horiz-adv-x="1024" d="M0 0v-430h1038v430q-41 0 -63.5 1t-33.5 13.5t-14 40t-3 80.5v524q0 229 -99.5 339t-332.5 110q-133 0 -245 -54.5t-184 -168.5l201 -152q43 66 93.5 103.5t134.5 37.5q55 0 94 -26.5t39 -85.5v-64q-51 -4 -90 -12q-106 -20 -208 -51t-190 -100q-123 -102 -123 -273 q0 -88 38 -155.5t104 -106.5h-156zM301 1178h258l346 344h-383zM313 291q0 53 34 87t82 54.5t101.5 31.5t94.5 19v-192q-41 -33 -99.5 -67t-113.5 -34q-47 0 -73 28t-26 73zM541 0q51 23 100 53l10 -53h-110z" />
<glyph unicode="&#xe2;" horiz-adv-x="1024" d="M0 0v-430h1038v430q-41 0 -63.5 1t-33.5 13.5t-14 40t-3 80.5v524q0 229 -99.5 339t-332.5 110q-133 0 -245 -54.5t-184 -168.5l201 -152q43 66 93.5 103.5t134.5 37.5q55 0 94 -26.5t39 -85.5v-64q-51 -4 -90 -12q-106 -20 -208 -51t-190 -100q-123 -102 -123 -273 q0 -88 38 -155.5t104 -106.5h-156zM104 1178h289l119 153l119 -153h289l-271 344h-274zM313 291q0 53 34 87t82 54.5t101.5 31.5t94.5 19v-192q-41 -33 -99.5 -67t-113.5 -34q-47 0 -73 28t-26 73zM541 0q51 23 100 53l10 -53h-110z" />
<glyph unicode="&#xe3;" horiz-adv-x="1024" d="M0 0v-430h1038v430q-41 0 -63.5 1t-33.5 13.5t-14 40t-3 80.5v524q0 229 -99.5 339t-332.5 110q-133 0 -245 -54.5t-184 -168.5l201 -152q43 66 93.5 103.5t134.5 37.5q55 0 94 -26.5t39 -85.5v-64q-51 -4 -90 -12q-106 -20 -208 -51t-190 -100q-123 -102 -123 -273 q0 -88 38 -155.5t104 -106.5h-156zM106 1194h173q4 12 10 26.5t14 28t19.5 22.5t27.5 9q37 0 74 -11.5t75 -25.5t76.5 -25.5t77.5 -11.5q96 0 168 78q35 37 55.5 88t32.5 129h-172q-4 -12 -10 -26.5t-14 -27.5t-20.5 -22.5t-26.5 -9.5q-37 0 -74 11.5t-75 25.5t-77 25.5 t-78 11.5q-96 0 -167 -78q-35 -37 -55.5 -88t-33.5 -129zM313 291q0 53 34 87t82 54.5t101.5 31.5t94.5 19v-192q-41 -33 -99.5 -67t-113.5 -34q-47 0 -73 28t-26 73zM541 0q51 23 100 53l10 -53h-110z" />
<glyph unicode="&#xe4;" horiz-adv-x="1024" d="M27 0v-430h1038v430q-41 0 -63.5 1t-34 13.5t-14.5 40t-3 80.5v524q0 229 -99 339t-333 110q-133 0 -243.5 -54.5t-182.5 -168.5l199 -152q45 66 95 103.5t132 37.5q55 0 94 -26.5t39 -85.5v-64q-47 -4 -90 -12q-106 -20 -207.5 -51t-187.5 -100q-125 -100 -125 -273 q0 -88 39 -155.5t104 -106.5h-157zM201 1198h291v283h-291v-283zM340 291q0 53 34 87t82 54.5t101 31.5t94 19v-192q-41 -33 -98 -67t-115 -34q-45 0 -71.5 28t-26.5 73zM569 0q25 10 49.5 23.5t51.5 29.5l8 -53h-109zM590 1198h291v283h-291v-283z" />
<glyph unicode="&#xe5;" horiz-adv-x="1024" d="M0 0v-430h1038v430q-41 0 -63.5 1t-33.5 13.5t-14 40t-3 80.5v524q0 229 -99.5 339t-332.5 110q-133 0 -245 -54.5t-184 -168.5l201 -152q43 66 93.5 103.5t134.5 37.5q55 0 94 -26.5t39 -85.5v-64q-51 -4 -90 -12q-106 -20 -208 -51t-190 -100q-123 -102 -123 -273 q0 -88 38 -155.5t104 -106.5h-156zM268 1419q0 -51 19.5 -95t52.5 -77t77 -52t95 -19q100 -1 172 71t72 172q0 51 -19.5 95.5t-52.5 77t-77 52t-95 19.5t-95 -19.5t-77 -52t-52.5 -77t-19.5 -95.5zM313 291q0 53 34 87t82 54.5t101.5 31.5t94.5 19v-192q-41 -33 -99.5 -67 t-113.5 -34q-47 0 -73 28t-26 73zM424 1419q0 37 25.5 62.5t62.5 25.5q38 1 63 -24t25 -64t-24.5 -63.5t-63.5 -24.5q-37 0 -62.5 25.5t-25.5 62.5zM541 0q51 23 100 53l10 -53h-110z" />
<glyph unicode="&#xe6;" horiz-adv-x="1593" d="M0 0v-430h1612v430h-287l12 4t11 4q59 29 111 74t106 121l-222 137q-47 -57 -100 -95t-133 -38q-61 0 -98 22.5t-58.5 59.5t-31 84t-15.5 96h645l2 143q2 104 -35.5 191.5t-99.5 159.5q-123 145 -317 145q-86 0 -161 -22.5t-138 -81.5q-31 33 -71 53t-83 31.5t-88 15.5 t-88 4q-129 0 -233.5 -56.5t-176.5 -166.5l201 -152q45 66 96.5 103.5t135.5 37.5q55 0 96 -25.5t41 -86.5v-64q-49 -4 -92 -12q-109 -20 -211.5 -51t-190.5 -100q-125 -100 -125 -273q0 -90 39 -156.5t105 -105.5h-158zM313 291q0 53 35 87t85 54.5t104.5 31.5t95.5 19 v-192q-43 -35 -101.5 -68t-115.5 -33q-47 0 -75 27t-28 74zM551 0q96 41 199 115q53 -72 133 -115h-332zM909 686q6 39 17.5 74t32 60.5t52 39.5t79.5 14q84 0 131 -53q43 -49 55 -135h-367z" />
<glyph unicode="&#xe7;" horiz-adv-x="1024" d="M0 0v-430h1038v430h-303q10 4 18.5 9t18.5 11q51 33 98.5 88.5t98.5 145.5l-232 131q-20 -35 -40.5 -66.5t-46 -56t-57.5 -40t-75 -15.5q-102 0 -145 78q-47 84 -47 247q0 166 47 248q41 78 141 78q43 0 72.5 -13.5t52.5 -36t39 -53t31 -65.5l252 98q-35 94 -80 155 t-109 95q-121 70 -260 70q-223 0 -354 -155.5t-131 -422.5q0 -178 66.5 -321t209.5 -209h-303z" />
<glyph unicode="&#xe8;" horiz-adv-x="1024" d="M0 0v-430h1038v430h-288q10 4 20 10q57 27 107.5 73t99.5 120l-221 139q-45 -59 -97.5 -97t-130.5 -38q-61 0 -98 22.5t-58.5 59.5t-30.5 84t-15 96h643v143q0 109 -38 197t-100 158q-127 141 -321 141q-127 0 -218 -47t-150.5 -126t-87 -183.5t-27.5 -219.5 q0 -86 15 -166.5t49 -150.5t84 -126t122 -89h-297zM115 1522l346 -344h258l-221 344h-383zM328 686q6 39 17 74t31.5 60.5t52.5 39.5t79 14q82 0 129 -53q45 -51 51 -135h-360z" />
<glyph unicode="&#xe9;" horiz-adv-x="1024" d="M0 0v-430h1038v430h-288q10 4 20 10q57 27 107.5 73t99.5 120l-221 139q-45 -59 -97.5 -97t-130.5 -38q-61 0 -98 22.5t-58.5 59.5t-30.5 84t-15 96h643v143q0 109 -38 197t-100 158q-127 141 -321 141q-127 0 -218 -47t-150.5 -126t-87 -183.5t-27.5 -219.5 q0 -86 15 -166.5t49 -150.5t84 -126t122 -89h-297zM301 1178h258l346 344h-383zM328 686q6 39 17 74t31.5 60.5t52.5 39.5t79 14q82 0 129 -53q45 -51 51 -135h-360z" />
<glyph unicode="&#xea;" horiz-adv-x="1024" d="M0 0v-430h1038v430h-288q10 4 20 10q57 27 107.5 73t99.5 120l-221 139q-45 -59 -97.5 -97t-130.5 -38q-61 0 -98 22.5t-58.5 59.5t-30.5 84t-15 96h643v143q0 109 -38 197t-100 158q-127 141 -321 141q-127 0 -218 -47t-150.5 -126t-87 -183.5t-27.5 -219.5 q0 -86 15 -166.5t49 -150.5t84 -126t122 -89h-297zM104 1178h289l119 153l119 -153h289l-271 344h-274zM328 686q6 39 17 74t31.5 60.5t52.5 39.5t79 14q82 0 129 -53q45 -51 51 -135h-360z" />
<glyph unicode="&#xeb;" horiz-adv-x="1024" d="M0 0v-430h1038v430h-288q10 4 20 10q57 27 107.5 73t99.5 120l-221 139q-45 -59 -97.5 -97t-130.5 -38q-61 0 -98 22.5t-58.5 59.5t-30.5 84t-15 96h643v143q0 109 -38 197t-100 158q-127 141 -321 141q-127 0 -218 -47t-150.5 -126t-87 -183.5t-27.5 -219.5 q0 -86 15 -166.5t49 -150.5t84 -126t122 -89h-297zM174 1198h291v283h-291v-283zM328 686q6 39 17 74t31.5 60.5t52.5 39.5t79 14q82 0 129 -53q45 -51 51 -135h-360zM563 1198h291v283h-291v-283z" />
<glyph unicode="&#xec;" horiz-adv-x="569" d="M-109 1522l347 -344h258l-222 344h-383zM0 0v-430h588v430h-154v1087h-299v-1087h-135z" />
<glyph unicode="&#xed;" horiz-adv-x="569" d="M0 0v-430h588v430h-154v1087h-299v-1087h-135zM78 1178h258l346 344h-383z" />
<glyph unicode="&#xee;" horiz-adv-x="569" d="M-119 1178h289l119 153l119 -153h288l-270 344h-274zM0 0v-430h588v430h-154v1087h-299v-1087h-135z" />
<glyph unicode="&#xef;" horiz-adv-x="569" d="M-49 1198h291v283h-291v-283zM0 0v-430h588v430h-154v1087h-299v-1087h-135zM340 1198h291v283h-291v-283z" />
<glyph unicode="&#xf0;" horiz-adv-x="1024" d="M27 494q0 -111 31.5 -209.5t94 -171t153.5 -115.5t208 -43q215 -1 350 149q133 152 133 383q0 317 -149 598q-59 106 -98 166l178 86l-94 170l-213 -102q-31 31 -57.5 55.5t-55.5 42.5l-272 -86q53 -43 84.5 -71.5t58.5 -57.5l-180 -86l94 -170l211 101 q16 -25 30.5 -49.5t26.5 -47.5l-47 6q-123 0 -214 -43t-151.5 -117.5t-91 -175t-30.5 -212.5zM326 502q0 47 6 98t26.5 94t57.5 71t96 28q96 0 139 -72q47 -78 47 -223q0 -47 -6 -98.5t-26.5 -94.5t-56.5 -70.5t-97 -27.5t-98 28.5t-56.5 71.5t-25.5 95.5t-6 99.5z" />
<glyph unicode="&#xf1;" horiz-adv-x="1138" d="M0 0v-430h1141v430h-113v725q0 80 -19.5 150.5t-59.5 122t-102.5 81t-150.5 29.5q-86 0 -163.5 -32t-145.5 -81v92h-278v-1087h-109zM156 1194h172q4 12 10 26.5t14 28t19.5 22.5t27.5 9q37 0 74 -11.5t75 -25.5t77 -25.5t77 -11.5q96 0 168 78q35 37 55.5 88t32.5 129 h-172q-4 -12 -10 -26.5t-14 -27.5t-20.5 -22.5t-26.5 -9.5q-37 0 -74 11.5t-75 25.5t-76.5 25.5t-77.5 11.5q-96 0 -168 -78q-35 -37 -55.5 -88t-32.5 -129zM408 0v760q43 45 97 71.5t118 26.5q59 0 82 -37q10 -23 17 -57.5t7 -85.5v-678h-321z" />
<glyph unicode="&#xf2;" horiz-adv-x="1024" d="M0 0v-430h1038v430h-319q84 39 149 117q131 158 131 415q0 258 -131 416q-133 160 -356 160t-354 -160q-131 -158 -131 -416t131 -415q66 -78 149 -117h-307zM111 1522l346 -344h258l-221 344h-383zM326 532q0 47 5 103.5t24.5 106t56.5 83t100 33.5q98 0 141 -78 q47 -84 47 -248q0 -47 -5 -104t-24.5 -106.5t-57.5 -82t-101 -32.5t-100 33.5t-56.5 83t-24.5 105.5t-5 103z" />
<glyph unicode="&#xf3;" horiz-adv-x="1024" d="M-6 0v-430h1038v430h-313q84 39 149 117q131 158 131 415q0 258 -131 416q-133 160 -356 160t-354 -160q-131 -158 -131 -416t131 -415q66 -78 149 -117h-313zM297 1178h258l346 344h-383zM326 532q0 47 5 103.5t24.5 106t56.5 83t100 33.5q98 0 141 -78q47 -84 47 -248 q0 -47 -5 -104t-24.5 -106.5t-57.5 -82t-101 -32.5t-100 33.5t-56.5 83t-24.5 105.5t-5 103z" />
<glyph unicode="&#xf4;" horiz-adv-x="1024" d="M0 0v-430h1038v430h-319q84 39 149 117q131 158 131 415q0 258 -131 416q-133 160 -356 160t-354 -160q-131 -158 -131 -416t131 -415q66 -78 149 -117h-307zM100 1178h289l119 153l119 -153h288l-270 344h-274zM326 532q0 47 5 103.5t24.5 106t56.5 83t100 33.5 q98 0 141 -78q47 -84 47 -248q0 -47 -5 -104t-24.5 -106.5t-57.5 -82t-101 -32.5t-100 33.5t-56.5 83t-24.5 105.5t-5 103z" />
<glyph unicode="&#xf5;" horiz-adv-x="1024" d="M0 0v-430h1038v430h-319q84 39 149 117q131 158 131 415q0 258 -131 416q-133 160 -356 160t-354 -160q-131 -158 -131 -416t131 -415q66 -78 149 -117h-307zM102 1194h172q4 12 10.5 26.5t14.5 28t19.5 22.5t27.5 9q37 0 74 -11.5t74.5 -25.5t76.5 -25.5t78 -11.5 q96 0 168 78q35 37 55.5 88t32.5 129h-172q-4 -12 -10 -26.5t-14.5 -27.5t-20.5 -22.5t-26 -9.5q-37 0 -74 11.5t-75 25.5t-77 25.5t-78 11.5q-96 0 -168 -78q-35 -37 -55 -88t-33 -129zM326 532q0 47 5 103.5t24.5 106t56.5 83t100 33.5q98 0 141 -78q47 -84 47 -248 q0 -47 -5 -104t-24.5 -106.5t-57.5 -82t-101 -32.5t-100 33.5t-56.5 83t-24.5 105.5t-5 103z" />
<glyph unicode="&#xf6;" horiz-adv-x="1024" d="M0 0v-430h1038v430h-319q84 39 149 117q131 158 131 415q0 258 -131 416q-133 160 -356 160t-354 -160q-131 -158 -131 -416t131 -415q66 -78 149 -117h-307zM170 1198h291v283h-291v-283zM326 532q0 47 5 103.5t24.5 106t56.5 83t100 33.5q98 0 141 -78q47 -84 47 -248 q0 -47 -5 -104t-24.5 -106.5t-57.5 -82t-101 -32.5t-100 33.5t-56.5 83t-24.5 105.5t-5 103zM559 1198h291v283h-291v-283z" />
<glyph unicode="&#xf7;" horiz-adv-x="1228" d="M0 0v-430h1264v430h-488v309h-330v-309h-446zM59 401h1112v263h-1112v-263zM446 752h330v338h-330v-338z" />
<glyph unicode="&#xf8;" horiz-adv-x="1024" d="M0 0v-430h1038v430h-321q84 39 149 117q131 158 131 415q0 256 -131 414l183 330h-240l-111 -201q-72 33 -188 33q-223 0 -354 -160q-131 -158 -131 -416q0 -115 30.5 -227t108.5 -201l-58 -104h-106zM324 532q0 47 5 103.5t24.5 106t56.5 83t100 33.5q23 0 39 -2t26 -6 l-243 -444q-4 27 -6 58.5t-2 67.5zM463 211l231 422q2 -23 3 -47.5t1 -53.5q0 -47 -5 -104t-24.5 -106.5t-57.5 -82t-101 -32.5q-27 0 -47 4z" />
<glyph unicode="&#xf9;" horiz-adv-x="1138" d="M0 -2v-430h1147v430h-119v1089h-299v-784q-39 -41 -94 -68.5t-115 -27.5q-66 0 -86 35q-27 37 -26 129v716h-299v-755q0 -113 38.5 -200t120.5 -134h-268zM172 1522l346 -344h258l-221 344h-383zM623 -2q35 16 65.5 33.5t63.5 40.5v-74h-129z" />
<glyph unicode="&#xfa;" horiz-adv-x="1138" d="M-6 0v-430h1161v430h-127v1087h-299v-784q-39 -41 -94 -68.5t-115 -27.5q-66 0 -86 35q-27 37 -26 129v716h-299v-755q0 -111 37.5 -198t117.5 -134h-270zM358 1178h258l347 344h-383zM627 0q33 16 63.5 33.5t61.5 38.5v-72h-125z" />
<glyph unicode="&#xfb;" horiz-adv-x="1138" d="M0 0v-430h1161v430h-133v1087h-299v-784q-39 -41 -94 -68.5t-115 -27.5q-66 0 -86 35q-27 37 -26 129v716h-299v-755q0 -111 37.5 -198t117.5 -134h-264zM162 1178h289l118 153l119 -153h289l-270 344h-275zM627 0q33 16 63.5 33.5t61.5 38.5v-72h-125z" />
<glyph unicode="&#xfc;" horiz-adv-x="1138" d="M0 0v-430h1161v430h-133v1087h-299v-784q-39 -41 -94 -68.5t-115 -27.5q-66 0 -86 35q-27 37 -26 129v716h-299v-755q0 -111 37.5 -198t117.5 -134h-264zM231 1198h291v283h-291v-283zM621 1198h290v283h-290v-283zM627 0q33 16 63.5 33.5t61.5 38.5v-72h-125z" />
<glyph unicode="&#xfd;" horiz-adv-x="909" d="M-12 1087l323 -1034l2 -37q-4 -12 -4 -16h-141h-168v-147h-2v-254h2v-29h168h1161h180v430h-180h-751l346 1087h-303l-168 -600l-162 600h-303zM246 1178h258l346 344h-383z" />
<glyph unicode="&#xfe;" horiz-adv-x="1138" d="M109 -412h299v461q49 -43 112.5 -67.5t128.5 -24.5q193 0 322 160q127 158 127 391q0 268 -119 432q-119 168 -332 168q-127 0 -239 -64v457h-299v-1913zM408 285v491q41 39 78.5 60.5t97.5 21.5q104 0 155 -82q29 -43 43.5 -103.5t14.5 -140.5q0 -53 -9.5 -110 t-33 -105.5t-65.5 -79t-109 -30.5q-49 0 -93.5 23.5t-78.5 54.5z" />
<glyph unicode="&#xff;" horiz-adv-x="909" d="M-20 0v-430h935v430h-337l346 1087h-303l-168 -600l-162 600h-303l323 -1034l2 -37q-4 -12 -4 -16h-329zM119 1198h291v283h-291v-283zM508 1198h291v283h-291v-283z" />
<glyph unicode="&#x152;" horiz-adv-x="1933" d="M0 0v-430h1960v430h-59v260h-658v371l445 2v278h-445v308h633v282h-895q-111 0 -220.5 8.5t-214 -1t-200.5 -49.5t-178 -136q-166 -197 -166 -584q0 -199 42 -345t130 -244q51 -57 109.5 -93.5t122.5 -56.5h-406zM332 743q0 256 71 377q35 59 93.5 89t144.5 30t138 -14.5 t81 -40.5q27 -27 42.5 -84.5t15.5 -155.5v-430q0 -88 -16.5 -141.5t-45.5 -77.5q-31 -27 -84 -41t-135 -14q-166 0 -234 120q-72 127 -71 383z" />
<glyph unicode="&#x153;" horiz-adv-x="1593" d="M0 0v-430h1612v430h-262q8 2 20 10q55 27 102.5 73t94.5 120l-221 139q-41 -59 -92.5 -97t-127.5 -38q-59 0 -94 23.5t-55.5 61.5t-29.5 84t-13 93h625v143q0 104 -37 191.5t-97 159.5q-121 145 -313 145q-96 0 -169 -27.5t-138 -97.5q-66 68 -152 96.5t-178 28.5 q-125 0 -214 -48t-146.5 -129t-85 -184.5t-27.5 -214.5q0 -258 125 -415q61 -76 145 -117h-272zM301 532q0 162 45 248q41 78 133 78t133 -78q45 -86 45 -248t-45 -247q-41 -78 -133 -78t-133 78q-45 86 -45 247zM694 0q70 33 115 84q51 -57 111 -84h-226zM936 686 q6 37 16.5 72t28.5 60.5t49 40.5t76 15q78 0 125 -53q41 -51 47 -135h-342z" />
<glyph unicode="&#x178;" horiz-adv-x="1138" d="M-14 1501l422 -919v-582h-408v-430h1202v430h-469v588l420 913h-344l-240 -551l-239 551h-344zM236 1556h290v283h-290v-283zM625 1556h290v283h-290v-283z" />
<glyph unicode="&#x2c6;" horiz-adv-x="569" d="M-123 1178h289l119 153l118 -153h289l-270 344h-275z" />
<glyph unicode="&#x2dc;" horiz-adv-x="569" d="M-117 1194h172q4 12 10.5 26.5t14.5 28t19.5 22.5t27.5 9q37 0 74 -11.5t74.5 -25.5t76.5 -25.5t78 -11.5q96 0 168 78q35 37 55.5 88t32.5 129h-172q-4 -12 -10 -26.5t-14.5 -27.5t-20.5 -22.5t-27 -9.5q-37 0 -73.5 11.5t-74.5 25.5t-77 25.5t-78 11.5q-96 0 -168 -78 q-35 -37 -55 -88t-33 -129z" />
<glyph unicode="&#x2000;" horiz-adv-x="1010" />
<glyph unicode="&#x2001;" horiz-adv-x="2021" />
<glyph unicode="&#x2002;" horiz-adv-x="1010" />
<glyph unicode="&#x2003;" horiz-adv-x="2021" />
<glyph unicode="&#x2004;" horiz-adv-x="673" />
<glyph unicode="&#x2005;" horiz-adv-x="505" />
<glyph unicode="&#x2006;" horiz-adv-x="336" />
<glyph unicode="&#x2007;" horiz-adv-x="336" />
<glyph unicode="&#x2008;" horiz-adv-x="252" />
<glyph unicode="&#x2009;" horiz-adv-x="404" />
<glyph unicode="&#x200a;" horiz-adv-x="112" />
<glyph unicode="&#x2010;" horiz-adv-x="681" d="M0 0v-430h690v430h-690zM68 399h546v267h-546v-267z" />
<glyph unicode="&#x2011;" horiz-adv-x="681" d="M0 0v-430h690v430h-690zM68 399h546v267h-546v-267z" />
<glyph unicode="&#x2012;" horiz-adv-x="681" d="M0 0v-430h690v430h-690zM68 399h546v267h-546v-267z" />
<glyph unicode="&#x2013;" horiz-adv-x="1024" d="M-23 424h1070v217h-1070v-217zM0 0v-430h1053v430h-1053z" />
<glyph unicode="&#x2014;" horiz-adv-x="2048" d="M-23 424h2094v217h-2094v-217zM0 0v-430h2083v430h-2083z" />
<glyph unicode="&#x2018;" horiz-adv-x="569" d="M0 0v-430h608v430h-608zM121 879h328v335h-115l104 308h-178l-139 -326v-317z" />
<glyph unicode="&#x2019;" horiz-adv-x="569" d="M0 0v-430h608v430h-608zM121 1165h115l-105 -307h178l140 326v317h-328v-336z" />
<glyph unicode="&#x201a;" horiz-adv-x="1617" d="M8 -43l873 1567h233l-582 -1043v-229l103 133h123l-117 -149l117 -236h831v-430h-1163v53q0 47 1 131t1 178v191v168l-188 -334h-232zM12 -444h1587v1978h-1587v-1978zM532 0h113l-76 154l-37 -41v-113zM803 715q0 70 26.5 131t72.5 107t107.5 73t131.5 27t131 -27 t107 -73t73 -107t27 -131t-27 -131.5t-73 -107.5t-107.5 -72.5t-130.5 -26.5q-70 0 -131.5 26.5t-107.5 72.5t-72.5 107.5t-26.5 131.5zM897 752q0 -35 24.5 -58.5t59.5 -23.5t58.5 23.5t23.5 58.5t-23.5 58.5t-58.5 23.5t-59.5 -24t-24.5 -58z" />
<glyph unicode="&#x201c;" horiz-adv-x="909" d="M-57 0v-430h57h399h90h58h399v430h-399h-58h-90h-399h-57zM63 879h328v335h-115l105 308h-178l-140 -326v-317zM520 879h328v335h-115l105 308h-179l-139 -326v-317z" />
<glyph unicode="&#x201d;" horiz-adv-x="909" d="M-59 0v-430h59h397h90h60h397v430h-397h-60h-90h-397h-59zM61 1165h115l-104 -307h178l139 326v317h-328v-336zM518 1165h115l-105 -307h179l139 326v317h-328v-336z" />
<glyph unicode="&#x201e;" horiz-adv-x="909" d="M0 0v-430h936v430h-90v313h-328v-313h-129v313h-328v-313h-61z" />
<glyph unicode="&#x2022;" horiz-adv-x="608" d="M0 0v-430h608v430h-608zM127 362h328v336h-328v-336z" />
<glyph unicode="&#x2026;" horiz-adv-x="2048" d="M0 0v-430h2062v430h-192v313h-328v-313h-354v313h-328v-313h-354v313h-328v-313h-178z" />
<glyph unicode="&#x202f;" horiz-adv-x="404" />
<glyph unicode="&#x2039;" horiz-adv-x="681" d="M0 0v-430h690v430h-690zM55 532l262 -350h287l-268 350l268 351h-287z" />
<glyph unicode="&#x203a;" horiz-adv-x="681" d="M0 0v-430h690v430h-690zM80 182h287l258 350l-258 351h-287l264 -351z" />
<glyph unicode="&#x205f;" horiz-adv-x="505" />
<glyph unicode="&#x2122;" horiz-adv-x="2048" d="M0 0v-430h2062v430h-2062zM23 1284h245v-672h250v672h246v217h-741v-217zM889 612h250v492l174 -492h190l174 492v-492h250v889h-344l-174 -489l-176 489h-344v-889z" />
<glyph unicode="&#x25fc;" horiz-adv-x="1085" d="M0 0v1085h1085v-1085h-1085z" />
</font>
</defs>
</svg>
