<?xml version="1.0" standalone="no"?>
<!DOCTYPE svg PUBLIC "-//W3C//DTD SVG 1.1//EN" "http://www.w3.org/Graphics/SVG/1.1/DTD/svg11.dtd" >
<svg xmlns="http://www.w3.org/2000/svg" xmlns:xlink="http://www.w3.org/1999/xlink" version="1.1">
<metadata></metadata>
<defs>
<font id="god_bless_americaitalic" horiz-adv-x="565" >
<font-face units-per-em="2048" ascent="1536" descent="-512" />
<missing-glyph horiz-adv-x="307" />
<glyph horiz-adv-x="0" />
<glyph horiz-adv-x="682" />
<glyph unicode=" "  horiz-adv-x="307" />
<glyph unicode="&#x09;" horiz-adv-x="307" />
<glyph unicode="&#xa0;" horiz-adv-x="307" />
<glyph unicode="!" horiz-adv-x="944" d="M23 115q6 14 26.5 29.5t45 27.5t51 16.5t44.5 -4.5q18 -8 25.5 -27.5t6.5 -43t-6 -45t-11 -35.5q-12 -29 -47 -35t-74 10q-37 16 -55.5 47t-5.5 60zM158 309q4 18 14 35q113 190 195 331.5t137 246.5q35 80 71.5 153.5t65.5 130.5q35 68 66 125q12 14 28.5 14.5t33.5 -6 t31.5 -15.5t20.5 -15q23 -18 28 -36t1 -34q-4 -18 -14 -35q-121 -193 -195 -326t-121 -221q-45 -88 -84 -167.5t-69 -139.5q-37 -72 -66 -133q-12 -14 -28.5 -14t-33 6t-30.5 15t-21 16q-23 16 -28.5 34.5t-1.5 34.5z" />
<glyph unicode="$" horiz-adv-x="987" d="M102 115q-4 72 14.5 109.5t33.5 66.5q16 27 29.5 46t23.5 34q10 16 20 26q33 33 60.5 23t46.5 -31q25 -35 23.5 -69.5t-12.5 -61.5t-23.5 -43t-10.5 -16q-16 -37 -27.5 -48.5t-13.5 -12.5t9.5 0t39.5 -13q53 -10 89 -9t38 11q12 20 13.5 57t-5 82t-18.5 93.5t-24 95.5 t-30 103t-29 124t-12 146.5t21 168.5q6 20 13.5 46t21 51.5t38 52.5t65.5 49q23 12 53.5 19.5t64.5 3.5q6 27 12.5 52t12.5 54q12 20 23.5 26.5t22.5 5.5t22.5 -6t21.5 -12q20 -10 25.5 -29.5t3.5 -37.5q-2 -23 -13 -47q-4 -14 -10 -26.5t-10 -24.5q18 -14 32.5 -29 t26.5 -29q37 -43 75 -99t61 -136q12 -41 11 -86t-10.5 -89t-26.5 -85t-40 -74q-33 -35 -60.5 -36t-51 12.5t-40 32.5t-24.5 30q-23 37 -25 67.5t3.5 53t12.5 35t5 12.5q16 25 16 56.5t-10 65t-30.5 67.5t-43.5 65q-14 29 -37.5 14.5t-48.5 -86.5q-23 -68 -23.5 -129.5 t9.5 -121.5t26.5 -118.5t30.5 -115.5q10 -45 27.5 -110t19.5 -159q2 -20 -2 -49t-16 -57.5t-33.5 -56t-58.5 -44.5q-31 -14 -57.5 -19t-49.5 -5q-6 -29 -12 -50.5t-10 -37.5q-6 -20 -9 -35q-10 -23 -8 -28t-16 3q-29 14 -36 32t-3 34q4 18 18 37q4 12 7.5 24.5t7.5 22.5 q-10 2 -22.5 3t-22.5 3q-20 2 -49 11.5t-56.5 27.5t-50 46t-29.5 71z" />
<glyph unicode="&#x26;" horiz-adv-x="1089" d="M98 283q6 76 32 134t64.5 102t87 78t101.5 58q-4 8 -6 17.5t-6 17.5q-29 82 -32 157t19 159q27 84 95.5 137t150.5 59q74 4 147.5 -26.5t112.5 -102.5q35 -66 34 -133.5t-30 -128.5q-47 -90 -117.5 -135t-138.5 -72q33 -66 70 -138.5t78 -148.5q4 6 24.5 38t42.5 61 q8 8 33 20.5t53.5 23.5t56 19t42.5 8q16 0 18 -10q0 -4 -4 -8q-55 -86 -105.5 -151.5t-93.5 -114.5q18 -29 40 -60.5t44 -66.5q0 -2 16.5 -25.5t16.5 -58.5q0 -16 -5 -27.5t-9 -19.5q-6 -8 -12 -17q-6 -6 -20.5 -18t-34 -25.5t-42 -25t-45.5 -11.5q-25 0 -45 21 q-12 20 -24 47q-10 23 -26.5 53.5t-33.5 67.5q-59 -35 -130 -48.5t-161 -8.5q-53 4 -111.5 32.5t-90.5 75.5q-31 47 -44.5 97.5t-11.5 97.5zM243.5 309q-3.5 -45 9.5 -85t42 -66.5t74 -24.5q57 0 109 14.5t100 36.5q-16 37 -39 93.5t-43.5 109.5t-37 94t-18.5 47 q-47 -25 -91 -59.5t-79 -81.5q-23 -33 -26.5 -78zM519 937q-3 -40 8.5 -91t33.5 -113q61 25 116.5 65t72.5 93q6 33 -0.5 63.5t-24.5 53t-49 31.5t-70 1q-41 -10 -62.5 -36.5t-24.5 -66.5z" />
<glyph unicode="'" horiz-adv-x="866" d="M354 1200q-8 27 4 55q8 16 29 37t43 37q12 8 23 12q6 4 13 4.5t13 0.5q16 2 36 1t22 -18q0 -74 -15 -137q-12 -53 -41.5 -106.5t-83.5 -75.5q-4 -2 -8 -2q-10 0 -14 10q-4 4 -1 13t19 18q8 10 17 26q6 14 11 36t9 52q-23 -10 -45 0q-23 10 -31 37z" />
<glyph unicode="(" horiz-adv-x="602" d="M181.5 225.5q-3.5 96.5 2.5 178t18.5 149.5t26.5 127q6 23 16.5 55.5t26 70.5t35 78t43.5 77q23 37 48.5 66.5t46 51t33.5 32.5l14 11q23 16 31.5 9t13.5 -17q6 -18 0.5 -33.5t-13.5 -27.5q-10 -15 -24 -27q-53 -55 -88 -103.5t-58.5 -94.5t-39 -91t-29.5 -94 q-10 -49 -18.5 -110.5t-9.5 -140.5t11.5 -180t46.5 -230q2 -18 -5 -29.5t-17 -17t-20.5 -5.5h-16.5q-18 2 -28.5 14.5t-16.5 28.5q-8 18 -10 39q-16 117 -19.5 213.5z" />
<glyph unicode=")" horiz-adv-x="555" d="M96 -18.5q4 16.5 15 28.5q8 14 24 27q53 55 88 103t58.5 94.5t39 91.5t29.5 94q8 49 17.5 110.5t10.5 140.5t-12.5 180t-46.5 230q-2 18 5.5 29.5t16.5 17t19.5 5.5h16.5q16 -2 28.5 -14.5t18.5 -28.5q8 -18 10 -39q16 -117 19.5 -214.5t-3 -178t-18.5 -149.5t-26 -128 q-6 -23 -16.5 -55.5t-26 -70.5t-35 -77t-43.5 -76q-23 -37 -48.5 -66.5t-46 -51t-26.5 -26.5l-21 -17q-23 -16 -32 -9t-13 17q-6 16 -2 32.5z" />
<glyph unicode="*" horiz-adv-x="831" d="M205 1219q0 6 2 8q2 16 13 24.5t20 5.5q8 0 16 -4q29 -2 50.5 -2h41.5h23q-20 16 -44 37t-57 49l-2 2v2q-8 12 -8 21q2 14 9 19t12 8q12 8 20 8q16 -2 23.5 -10.5t9.5 -14.5q23 -27 42 -47t36 -39q0 18 -1 44t-1 48v56v2v2q2 2 2 4v2v2q0 4 2 8q8 12 14 6h8 q16 -2 23.5 -13t5.5 -22q0 -12 -2 -14q-2 -29 -3 -51.5t-1 -40.5v-17.5t2 -17.5q12 14 30.5 32.5t35 36t28.5 29.5l12 13q2 0 2 1t2 1q-2 0 0 2t13 4q16 -4 15 -6t3 -4q6 -10 6 -23q-2 -16 -10 -22.5t-12 -10.5q-29 -25 -47.5 -43t-34.5 -34q25 4 57.5 5t73.5 5h2h2 q12 -2 20.5 -11.5t6.5 -17.5q0 -4 -1 -8t-1 -6q-2 -14 -12.5 -22.5t-20.5 -8.5h-2q-11 0 -15 4q-72 6 -116 6h-2q14 -14 32.5 -31.5t34.5 -33.5q20 -20 41 -39v-2h2q0 -2 1 -2t1 -2t2 -2t4 -13q-4 -14 -7 -13t-3 -3q-12 -6 -22 -6q-16 2 -22.5 10t-10.5 12 q-27 29 -45.5 48.5t-34.5 35.5q2 -27 4 -59.5t6 -73.5v-2l-2 -4q0 -10 -8 -18.5t-18 -8.5h-2q-6 2 -13 2q-16 4 -24.5 14.5t-5.5 20.5q0 6 1 9.5t1 7.5q4 31 5 57.5t3 48.5q-35 -41 -88 -100v-2h-2q-10 -6 -21 -6q-14 0 -19 7t-7 11q-8 8 -9 23q2 16 10.5 22t12.5 8 q29 23 50.5 43.5t39.5 36.5h-152h-2h-4h-2h-2h-2q-4 0 -6 2q-8 6 -8 15z" />
<glyph unicode="+" horiz-adv-x="1019" d="M307 415.5q-2 12.5 0 22.5q2 29 19 37q8 4 14 2q53 -6 87 -9t69 -1q-4 31 -8.5 74t-10.5 104q4 14 31 14t37 -2q29 -4 37 -18q4 -6 2 -12q-10 -49 -14.5 -87t-6.5 -69q31 4 74 8t102 10q14 -4 14.5 -30.5t-1.5 -36.5q-4 -29 -19 -37q-6 -4 -12 -2q-49 10 -88 14t-70 6v-6 q0 -16 1 -44.5t1 -57.5v-72q-2 -8 -14 -9t-23 -1q-29 2 -36 18q-4 8 -3 15q6 55 9.5 88t1.5 69h-8q-16 -2 -45 -2h-58q-35 0 -72 -2q-8 4 -10 16.5z" />
<glyph unicode="," horiz-adv-x="655" d="M354 45q-8 27 4 55q8 16 29 37t43 37q12 8 23 12q6 4 13 4h13q16 2 36 1t22 -17q0 -74 -15 -137q-12 -53 -41.5 -106.5t-83.5 -75.5q-4 -2 -8 -2q-10 0 -14 10q-4 4 -1 13t19 18q8 10 17 26q6 14 11 35.5t9 52.5q-23 -10 -45 0q-23 10 -31 37z" />
<glyph unicode="-" horiz-adv-x="933" d="M273.5 415.5q-1.5 12.5 0.5 22.5q2 16 8.5 24.5t10.5 12.5q6 4 12 2q57 -6 91 -9t71 -2t90 7t150 16q12 -4 12 -30.5v-36.5q-6 -31 -19 -37q-8 -4 -14 -2q-78 16 -132 19.5t-95 0.5q-16 -2 -45 -2h-58q-35 0 -71 -2q-10 4 -11.5 16.5z" />
<glyph unicode="." horiz-adv-x="849" d="M404.5 -60.5q-1.5 17.5 2 39t10.5 43t13 35.5q12 29 38 40.5t48 0.5q25 -10 32 -36.5t-5 -55.5q-6 -14 -21.5 -31.5t-35 -32t-38 -22.5t-30.5 -2q-12 4 -13.5 21.5z" />
<glyph unicode="/" horiz-adv-x="993" d="M93 85q-3 19 1 36q6 18 19 35q150 195 244 327.5t151 225.5q6 12 16.5 27.5t20.5 31.5t22 35q47 72 87 135t69 111q35 53 63 100q14 14 25.5 15t21 -3t16.5 -12t13 -14q23 -23 26 -42.5t-1 -35.5q-6 -18 -19 -35q-139 -193 -240.5 -333t-172.5 -245q-47 -84 -93.5 -158.5 t-82.5 -131.5q-43 -68 -84 -125q-14 -14 -24.5 -16.5t-20 2.5t-17.5 13.5t-14 14.5q-23 23 -26 42z" />
<glyph unicode="0" horiz-adv-x="974" d="M29 197q0 102 42 231t105.5 263t138 263t138 229.5t106.5 162.5l43 63l4 -4l-4 4q12 8 19 8q25 -2 45 -33.5t41 -68.5q23 -45 32 -76q33 23 54.5 30t37.5 7q12 0 21 -4q4 -2 8 -2q43 -18 62.5 -65.5t19.5 -112.5q0 -78 -24.5 -176.5t-69.5 -205t-107.5 -213 t-138.5 -200.5q-20 -29 -52 -65.5t-68 -72.5t-74.5 -67t-75.5 -49q-51 -25 -90 -34t-68 -9q-23 0 -40 4t-28 8q-12 6 -20 15q-31 31 -44 73.5t-13 96.5zM184 182q0 -29 2 -37q0 -8 2 -12q8 -29 29 -29q18 -2 47 18.5t53 43.5q18 14 31 31q135 164 210 315.5t112 267.5 q18 59 29.5 106.5t17.5 82.5q8 39 10 69v19q0 37 -7 46t-15 9q-10 0 -19 -4q-6 -2 -8 -6q-23 -16 -42.5 -35.5t-35.5 -38.5q-139 -178 -221 -319.5t-125 -246t-56.5 -174t-13.5 -106.5z" />
<glyph unicode="1" horiz-adv-x="839" d="M41 718q2 34 14.5 63.5t27.5 50t15 18.5q78 80 152 144.5t144.5 118.5t137 99t127.5 86l31 21l8 4q6 2 3 1t-4 -1t6.5 2t35.5 10q6 0 23 -4q27 -8 43 -32.5t12 -28.5q4 -49 -4 -66.5t-12 -38.5q-14 -35 -29 -64.5t-29 -58.5q-29 -55 -55 -106t-51 -98q-27 -47 -69 -125 t-88 -167t-91 -180.5t-80 -164t-55.5 -119.5t-15.5 -47q-20 -39 -45 -38t-43 13q-29 20 -35 53t-1 62t14 49l9 21q68 133 124 233t104.5 183t92.5 159t87 162q18 35 36.5 72.5t39.5 78.5q-98 -80 -206 -186t-200 -252q-18 -23 -39.5 -26t-43 3.5t-39 16.5t-25.5 18 q-29 27 -27 61z" />
<glyph unicode="2" horiz-adv-x="911" d="M45 74v4v4q-2 25 6 48.5t19 41.5q12 23 28 43q215 201 342 358.5t193.5 273.5t87 192.5t22.5 113.5q-8 4 -31.5 8t-71.5 -10t-125 -53t-193 -119q-16 -10 -35 -12q-16 -2 -33.5 3t-34.5 27q-4 6 -12 25.5t-13.5 43.5t-3 45.5t16.5 31.5q129 70 246 114q49 18 101 34 t100 22t90 1t73 -26q4 -4 6 -5t4 -3l4 -4q47 -53 45 -135t-37.5 -180.5t-96 -208t-130 -215t-141.5 -199.5t-129 -166q78 0 129 4t82 8q37 6 57 11q20 -6 28.5 -22.5t9.5 -36t-2 -38t-5 -26.5q-8 -31 -23.5 -45.5t-31.5 -18.5q-20 -6 -41 -2q-14 0 -53 1t-88.5 2t-103.5 2 t-100 2t-77 2t-35 3h-4q-14 4 -18 9q-10 6 -15 12q-2 4 0 6q-2 4 -4 11t-2 18z" />
<glyph unicode="3" horiz-adv-x="1167" d="M53 166q0 37 4 76q2 10 14.5 17t26 10t26.5 3h17q31 -8 37 -28q4 -10 4 -23q-23 -78 -21.5 -123t11.5 -67q12 -27 37 -35q2 -2 2 -4q23 -10 45.5 -14.5t38.5 -0.5q45 6 85 23.5t71 38.5q37 23 67 51q68 63 106 136t41 133.5t-31 99.5t-108 35q-16 -4 -31.5 -5.5 t-31.5 -5.5q-18 -2 -33 2q-12 4 -25.5 14.5t-17.5 35.5q-2 6 4 25.5t17.5 38.5t26 36.5t30.5 21.5h16q8 0 19.5 -1t25.5 -1q72 6 131 -4q96 98 152.5 177t87.5 137q37 66 49 116q10 35 -1 51.5t-32 20.5q-47 -4 -112 -20q-47 -14 -107.5 -37t-138.5 -60q-18 -8 -37 -6 q-16 0 -31.5 9.5t-27.5 33.5q-4 8 -9.5 28.5t-6.5 43t4.5 44t21.5 30.5q106 37 207 59q86 20 181 29.5t167 -11.5q23 -4 38 -11t25 -13q11 -9 17 -17q37 -55 23.5 -134t-59.5 -168t-117.5 -186t-151.5 -189q39 -43 51 -96.5t10 -100.5q-2 -55 -18 -111q-18 -84 -66.5 -142 t-101.5 -99q-61 -47 -133 -78q-117 -57 -199 -63.5t-135 8.5q-61 16 -103 55q-25 31 -36 72q-10 35 -12.5 72.5t-2.5 70.5z" />
<glyph unicode="4" horiz-adv-x="907" d="M30 383q-1 16 0 31.5t3 21.5q4 16 12 28.5t18 22.5q37 68 83.5 144t97.5 152.5t103 152.5t102 145q115 162 237 324q18 14 38.5 10t39 -16.5t33 -27.5t20.5 -23q23 -29 24 -53.5t-7 -41.5q-8 -23 -27 -36q-72 -72 -152 -167.5t-156.5 -193.5t-144 -191.5t-112.5 -158.5 q88 -6 155 -12q16 29 31.5 49t26.5 37l20 30q18 14 39 10t39 -16t32.5 -27.5t20.5 -23.5q23 -29 23 -53.5t-8 -42.5q2 0 3 -1t3 -1h2q10 4 31.5 6t27.5 0q16 -2 21 -10q2 -4 2 -7q4 -6 5 -23.5t-3 -35.5t-13.5 -32.5t-23.5 -14.5q-37 2 -77 2h-83q-51 -53 -80.5 -90 t-50 -68.5t-39 -64.5t-47.5 -78q-20 -33 -52 -45t-60.5 -11t-46 13t-9.5 29q47 92 90 170.5t82 144.5q-53 -2 -98 -2h-80q-39 0 -72 -2q-12 2 -17 16.5t-6 30.5z" />
<glyph unicode="5" horiz-adv-x="1437" d="M66 299q0 37 4 76q2 12 13 18t25.5 9.5t26.5 3.5h19q31 -8 36 -29q4 -10 5 -23q-25 -78 -23 -122t12 -66q12 -27 37 -37v-4q23 -10 45.5 -14.5t38.5 0.5q45 6 86 23.5t72 37.5q37 23 67 51q68 63 96.5 116.5t20.5 90.5t-51 56.5t-117 15.5q-14 -4 -30.5 -6t-32.5 -7 q-18 -2 -33 3q-12 4 -25.5 14t-17.5 35q-4 16 16.5 49t44.5 74q68 123 145 236.5t142 205.5q76 104 152 199q18 14 41 10q145 -8 240.5 -5t152.5 7q68 6 102 14q20 -4 28.5 -20.5t9.5 -36t-2 -38t-5 -28.5q-8 -31 -23.5 -45t-31.5 -18q-20 -6 -41 -2q-14 0 -49 1t-81 3 t-98.5 3t-97.5 1q-4 -8 -8 -14.5t-8 -10.5q-4 -6 -8 -10q-129 -129 -223.5 -240.5t-159.5 -205.5q37 -2 73.5 -7.5t68.5 -16.5t58.5 -28.5t40.5 -44.5q23 -29 30 -58.5t9 -53.5q2 -29 -4 -58q-18 -84 -67.5 -142t-102.5 -99q-61 -47 -133 -78q-57 -33 -106.5 -49.5 t-91.5 -22.5t-74.5 -3t-59.5 11q-61 18 -102 64q-23 29 -37 74q-10 35 -12 71.5t-2 69.5z" />
<glyph unicode="6" horiz-adv-x="991" d="M104.5 173q-0.5 81 31.5 179.5t86 207t120 214.5q152 248 375 531q18 14 37.5 10t38 -16.5t33 -28t20.5 -23.5q23 -29 23.5 -53.5t-7.5 -40.5q-8 -23 -26 -37q-139 -139 -237.5 -257t-164.5 -216q10 4 20.5 6t20.5 2q94 12 163 8t117 -19t76.5 -40t45.5 -51 q37 -63 22 -154q-18 -82 -66.5 -141t-101.5 -100q-61 -47 -133 -78q-4 -2 -8 -2t-8 -2q-117 -57 -198 -68.5t-134 -1.5q-61 10 -100 41q-45 49 -45.5 130zM233 131q4 -18 29 -23.5t55.5 -2t60.5 10.5t48 13q16 6 32.5 13.5t28.5 13.5q8 4 11 6q2 0 2 2q4 0 8 4 q16 10 29.5 19.5t23.5 15.5q11 8 17 14q74 70 93 122t0.5 87t-64.5 52.5t-101 17.5t-110.5 -18.5t-90.5 -55.5q-35 -74 -51 -129t-21 -90q-6 -43 0 -72z" />
<glyph unicode="7" horiz-adv-x="1011" d="M216 137.5q-1 24.5 7 40.5q8 20 27 37q102 104 182 195.5t141 171.5h-174q-12 2 -17 16t-6 31.5t0 33t3 21.5q4 16 13 24.5t20 12.5q10 4 24 2q74 -4 130.5 -6t99.5 -4q59 88 96 160.5t56.5 128t27.5 95.5t8 64l-16 9q-17 10 -63 1.5t-130 -47.5t-219 -133 q-16 -10 -35 -12q-16 -2 -32.5 3t-32.5 28q-6 6 -14.5 25.5t-13.5 43t-3 45t16 31.5q129 70 246 115q49 18 101.5 33.5t101.5 21.5t91 1t71 -26q4 -4 6 -5t4 -3t4 -2q0 -2 4 -6l12 -18l4 -4v-2q25 -45 24 -107.5t-20.5 -135.5t-54.5 -154t-80 -163q16 -4 17.5 -4t1.5 -2 q10 4 30.5 7.5t28.5 0.5q18 -6 21 -10q2 -4 2 -6q4 -6 5 -24.5t-3 -37t-13.5 -31.5t-25.5 -13q-33 0 -65.5 1t-67.5 1q-66 -111 -133.5 -209.5t-124.5 -175.5q-68 -90 -129 -168q-18 -14 -38 -11.5t-38.5 15t-32.5 28t-20 25.5q-23 27 -24 51.5z" />
<glyph unicode="8" horiz-adv-x="999" d="M32 255.5q-5 31.5 3 76.5q8 33 17 62.5t26 62.5q33 78 97.5 123t137.5 73q-41 39 -71.5 87t-40.5 108q-14 76 -3 142.5t38.5 122.5t67.5 99t83 70q45 25 84 35t67.5 12t43.5 1l16 -1q45 -8 68 -24q29 12 71.5 8t83.5 -33q31 -16 51.5 -38.5t33 -44t17.5 -35.5l5 -15 q14 -63 11 -117.5t-18.5 -100.5t-38 -87t-44.5 -76q-43 -61 -103.5 -113.5t-132.5 -81.5q41 -55 62.5 -118.5t19.5 -130t-27.5 -132t-76.5 -122.5q-72 -63 -170.5 -86t-210.5 24q-53 29 -93 77t-59 110q-10 31 -15 62.5zM170 290q-2 -42 11.5 -78t40 -63.5t57.5 -35.5 q33 -12 69.5 -10.5t71.5 13t62.5 32t41.5 47.5q12 18 20.5 48.5t9.5 69.5t-8 80t-32 82q-10 23 -51 57q-102 -27 -170 -57.5t-96 -103.5q-25 -39 -27 -81zM338 883q8 -53 42 -99.5t79 -81.5q29 10 53 19.5t47 19.5q31 14 61.5 46t55 72t41 84t19.5 82t-11 65.5t-49 35.5 q-31 16 -45.5 37t-18.5 41q-53 -23 -99 -35t-46 -18q-37 -18 -63.5 -51t-43 -71t-22.5 -77t0 -69z" />
<glyph unicode="9" horiz-adv-x="880" d="M59 936q16 82 65.5 141.5t102.5 100.5q61 47 133 77q94 37 166 52.5t123 17.5t83 -4t50 -14q6 -4 11.5 -7.5t9.5 -5.5q4 -4 6 -4q45 -51 45 -132t-30.5 -179t-86 -206.5t-119.5 -215.5q-152 -248 -374 -530q-18 -14 -39 -10.5t-39.5 16t-32.5 28t-20 23.5 q-23 29 -24 51.5t7 40.5q8 20 27 39q92 94 167 177t134 159q-84 -4 -143.5 9t-100.5 40t-65.5 61.5t-38.5 71.5q-33 86 -17 203zM255 867.5q1 -56.5 25.5 -100.5t63.5 -71.5t84 -34.5t88 13q61 88 100 160.5t62.5 131t34 102.5t14.5 73q0 47 -11 68.5t-28.5 27.5t-39 2 t-42.5 -10q-41 -12 -74.5 -25.5t-60.5 -27.5q-2 -2 -10 -7h-2q-4 -4 -8 -4q-37 -25 -52 -35q-10 -8 -16 -14q-72 -66 -100.5 -129t-27.5 -119.5z" />
<glyph unicode=":" horiz-adv-x="882" d="M378 -50.5q1 17.5 7 38t15.5 42t17.5 33.5q16 27 41.5 35t48.5 -4q23 -14 26.5 -41.5t-12.5 -54.5q-8 -12 -25.5 -27.5t-37 -28t-39 -17.5t-31.5 1t-11 23.5zM416 259q0 17 6 37.5t15 42t18 34.5q16 27 41.5 35t48.5 -5q23 -14 27.5 -41.5t-11.5 -54.5 q-8 -12 -25.5 -27.5t-38 -27.5t-40 -17.5t-31.5 1.5q-10 6 -10 23z" />
<glyph unicode=";" horiz-adv-x="782" d="M342 -117q-4 4 2 12.5t23 12.5q10 8 20 22q10 12 20.5 32t20.5 48q-25 -4 -43 13q-20 16 -22.5 43.5t16.5 50.5q10 14 36.5 29.5t49.5 25.5q10 6 27 8q6 2 13 1t13 -3q16 -4 34.5 -9t16.5 -19q-18 -72 -47 -132q-25 -51 -63.5 -95t-98.5 -54q-4 -2 -8 0q-10 0 -10 14z M416 259q0 17 6 37.5t15 42t18 34.5q16 27 41.5 35t48.5 -5q23 -14 27.5 -41.5t-11.5 -54.5q-8 -12 -25.5 -27.5t-38 -27.5t-40 -17.5t-31.5 1.5q-10 6 -10 23z" />
<glyph unicode="=" horiz-adv-x="686" d="M94.5 348q-0.5 27 1.5 37q2 31 17 37q6 4 14 2q78 -16 132 -19.5t95 -1.5q16 0 45 1.5t58 1.5q35 0 71 2q10 -4 11.5 -16.5t-0.5 -22.5q-2 -16 -7.5 -24.5t-9.5 -12.5q-8 -4 -14 -2q-55 6 -89 9t-71 1t-91 -7t-148 -16q-14 4 -14.5 31zM144.5 551q-1.5 12 0.5 22 q2 31 17 37q6 4 14 2q55 -6 89 -9t71 -2t90 7t149 17q14 -4 14.5 -31t-1.5 -37q-4 -29 -19 -37q-6 -4 -12 -2q-80 16 -133 19.5t-94 1.5q-16 -2 -45 -2h-58q-35 0 -71 -2q-10 4 -11.5 16z" />
<glyph unicode="?" horiz-adv-x="970" d="M82 111q6 14 25.5 29.5t45 27.5t51 16t44.5 -4q18 -8 25.5 -27.5t7.5 -43t-5.5 -45t-11.5 -35.5q-14 -29 -49 -35t-74 10q-37 16 -54 47t-5 60zM165 446q11 41 32.5 74t49 57.5t48.5 43.5q45 41 98 79.5t107.5 76.5t108 78t100.5 83q20 14 39.5 51t28.5 79t4 81t-33 57 q-31 25 -84.5 23t-100.5 -34t-73.5 -96.5t-6.5 -164.5q-2 -29 -18 -43t-37.5 -20.5t-43.5 -5.5t-32 3q-35 6 -52 31t-24.5 52.5t-6.5 50.5l1 22q4 82 39 146.5t87.5 109.5t115.5 69.5t126.5 27.5t121 -15.5t96.5 -58.5q33 -37 49.5 -77t20.5 -79t-1.5 -74.5t-13.5 -62.5 q-18 -59 -63 -111.5t-90 -81.5q-29 -23 -73 -54.5t-93 -70.5t-100.5 -82t-94.5 -86q-51 -51 -66.5 -84.5t-13.5 -55.5t13.5 -32t15.5 -12q20 -23 11 -45.5t-25 -38.5q-31 -29 -58.5 -19.5t-51 33t-38 50t-16.5 36.5q-14 49 -3 90z" />
<glyph unicode="@" horiz-adv-x="1280" d="M160 201q0 115 30.5 214t85 179t125 137t150.5 86q29 12 68.5 22.5t86 15.5t99.5 1t108 -20t105.5 -54.5t86.5 -88.5t55.5 -111.5t15.5 -122.5q-20 -127 -74.5 -215t-112 -144.5t-101.5 -82t-40 -25.5q-27 -10 -41 -12q-31 -16 -51.5 -17.5t-32.5 4.5q-14 8 -23 21 q-12 16 -20 35.5t-14 39.5q-66 -72 -116 -92t-85 -16q-39 4 -70 33q-37 45 -45 99t6.5 112.5t44 119t66.5 115.5q86 129 219 266q16 16 32.5 18.5t31 -1.5t25.5 -14.5t20 -18.5q35 -33 32.5 -62.5t-12.5 -48.5q2 0 3 1t3 1q6 2 15.5 1t23.5 -9t36 -26.5t54 -51.5 q25 -25 28 -48t-1 -42q-6 -23 -21 -41q-55 -55 -87.5 -99t-49.5 -77q-20 -37 -26 -65q-2 -27 4 -36t16 -11q8 -2 23 4q47 27 107.5 97.5t115.5 145.5q39 76 47 142q2 76 -25.5 142.5t-76.5 107.5q-49 43 -108.5 64.5t-122 22.5t-127 -14.5t-122.5 -46.5q-59 -29 -114.5 -79 t-97.5 -120.5t-63.5 -158.5t-15.5 -193q4 -51 19.5 -104t44.5 -99.5t76 -80t114 -43.5q63 -12 135 -10.5t144 23t138.5 63.5t119.5 110q31 37 51.5 50t32.5 13t18.5 -9t8.5 -17q10 -25 -10.5 -62.5t-49 -72.5t-55.5 -59.5t-29 -20.5q-72 -47 -146.5 -74t-149 -34t-147.5 1.5 t-138 30.5q-74 25 -122 73t-76 106.5t-39 118.5t-13 114zM467 76q2 -23 11 -30t20 -5q12 2 26 10q41 41 85 101.5t84 121t69 109.5t39 66q4 12 5 28.5t-3 28.5t-16.5 14t-32.5 -12q0 -2 -2 -2q-119 -119 -178.5 -201t-81.5 -133q-29 -59 -25 -96z" />
<glyph unicode="A" horiz-adv-x="886" d="M8 342v18.5t2 12.5q2 23 12.5 36t22.5 19t22.5 8t16.5 2h4q45 2 84 3t76 3l69 2q-14 2 -24 9q-10 4 -15.5 10t-1.5 16q66 98 129.5 198.5t120.5 192.5q55 88 101.5 166t80 135.5t54.5 90.5l20 34q16 16 41 17q33 0 62.5 -22.5t42.5 -35.5q33 -33 33 -71 q0 -29 -12.5 -47.5t-14.5 -20.5q-86 -102 -154.5 -188t-124 -161t-99.5 -140.5t-81 -122.5q-8 -10 -16 -23.5t-19 -29.5q78 4 126 6t77 6q39 119 91 236.5t98.5 212t79.5 153.5l32 59q12 23 37 23q31 0 60.5 -25.5t41.5 -38.5q33 -33 33 -71q0 -16 -4 -27.5t-8 -21.5 q-6 -10 -12 -19q-106 -137 -175 -254t-110 -215q8 -6 8 -14q4 -8 4 -37q0 -23 -8 -49.5t-41 -30.5h-14q-31 -96 -37 -155.5t-6 -75.5v-9v-28q0 -14 -1 -26.5t-10 -22.5q-16 -20 -38.5 -24.5t-28.5 -4.5h-2h-2q-16 4 -22.5 16.5t-12.5 22.5q-20 43 -21 111q0 41 8.5 87 t20.5 97q-66 -6 -132 -12.5t-126 -14.5q-35 -53 -68.5 -104t-61.5 -93t-45 -68l-17 -26q-14 -16 -35 -16q-16 0 -30.5 9t-25.5 20q-18 18 -25 36.5t-7 34.5t4 27.5t8 22.5q6 10 12 18q12 16 24.5 32.5t24.5 32.5v-2q12 18 27.5 29.5t30.5 18.5q16 8 33 10l-56 -8 q-20 -4 -36.5 -5.5t-26.5 -3.5q-12 -2 -23 -4h-2q-29 4 -37 29t-6 45z" />
<glyph unicode="B" horiz-adv-x="882" d="M8 168q2 94 48 216t116 249t149.5 249t148.5 217t114 153l45 59q18 12 37 12q35 -2 63.5 -29.5t40.5 -42.5q23 -31 23 -65v-13.5t-5 -13.5q14 8 21.5 9t17.5 -1q31 -6 50.5 -34.5t27.5 -51.5q4 -10 4 -17v-15q0 -43 -21.5 -78t-49 -62.5t-55 -46t-42.5 -26.5 q61 -42 83 -104q20 -56 20 -110v-10q0 -35 -5 -63.5t-10 -50.5q-6 -24 -12 -47q-33 -106 -97.5 -184.5t-128 -129.5t-111.5 -77l-48 -25q-119 -59 -252 -60q-92 -1 -133 53q-39 51 -39 132v8zM142 156.5q1 -23.5 6.5 -41t13.5 -23.5q14 -8 33 -8h2h4q53 10 100 38t82 56 q41 33 78 70q98 98 138 189t40 163q-2 80 -39 128t-84 48q-57 0 -106 -63q-37 -43 -72 -101.5t-63.5 -109.5t-46.5 -88l-17 -37q-16 -33 -28.5 -61.5t-22.5 -55.5q-10 -25 -14.5 -52.5t-3.5 -51zM557 895q4 -2 26.5 -5t32.5 -3q45 0 79 18.5t56.5 44t34 52t11.5 40.5v2 q0 12 -5.5 20.5t-12.5 13.5t-14 8l-7 4h-6q-10 0 -19.5 -7.5t-11.5 -9.5q-29 -29 -64.5 -65.5t-64.5 -69.5q-10 -10 -18.5 -21.5t-16.5 -21.5z" />
<glyph unicode="C" horiz-adv-x="700" d="M8 170q0 94 46 215t116 248t150.5 247.5t150.5 216t116 153.5l46 59q14 14 35 14q35 -2 64.5 -29.5t39.5 -42.5q25 -31 25 -65q0 -20 -7.5 -34.5t-15.5 -25.5q39 25 59.5 31t30.5 6h6q27 0 39.5 -20.5t12.5 -48.5q0 -31 -10.5 -74t-28 -91t-39 -99.5t-43.5 -100.5 q-53 -113 -121 -237v-3h-2q-14 -14 -37 -14q-18 0 -37.5 9.5t-36 20.5t-29 22.5t-16.5 15.5q-25 25 -24 53q0 31 15 50.5t13 19.5q84 127 135.5 208.5t79 130t36.5 69t11 26.5q-4 0 -11 -5t-9 -8q-41 -29 -85 -70.5t-83 -83.5t-68.5 -76t-42.5 -48q-113 -139 -179 -249.5 t-100 -191.5t-43 -135.5t-9 -80.5v-21q0 -4 2 -8q4 -25 16 -33t31 -8q18 0 41.5 8t44.5 19q23 12 47 28q12 10 26.5 17.5t49.5 21.5q4 2 18 2q25 0 61.5 -7t59.5 -15l13 -6.5t7 -10.5q0 -10 -8 -10q-166 -78 -264 -104.5t-153 -26.5q-57 0 -76 14.5t-19 16.5 q-25 27 -36 62.5t-11 78.5z" />
<glyph unicode="D" horiz-adv-x="985" d="M6 100q0 16 4 27.5t8 22.5q6 10 13 18q53 70 113.5 156t122 178t120.5 187t115 183q55 88 101 166t80 135.5t55 90.5l20 34q14 16 41 17q33 0 62.5 -22.5t41.5 -35.5q33 -33 33 -71q0 -10 -2 -15l-33 -53q8 14 21 23q23 18 53 16q78 -25 107.5 -86t29.5 -135 q0 -61 -14.5 -124.5t-31.5 -114t-32 -83.5l-16 -32q-66 -135 -140.5 -230.5t-140.5 -156.5q-76 -72 -151 -121q-82 -47 -141.5 -65.5t-100.5 -18.5q-41 2 -65.5 14t-40.5 29q-10 10 -16.5 26.5t-10.5 32.5q-2 12 -1 23.5t3 21.5t6 19l-33 -54q-12 -20 -22 -35.5t-19 -25.5 q-8 -12 -16 -25q-14 -16 -35 -16q-16 0 -30.5 9t-24.5 20q-18 18 -25.5 36.5t-7.5 34.5zM303 160q0 -41 12.5 -59.5t24.5 -18.5h4q51 4 110.5 46t110.5 91q49 47 82 85t35 40q123 160 175 304.5t52 238.5q0 59 -16 88q-18 31 -41 31h-2q-27 0 -57 -29q-31 -39 -58.5 -74 t-54.5 -69q-35 -49 -77 -108.5t-78 -112t-61 -88.5l-24 -36q-10 -14 -21.5 -30.5t-23.5 -36.5q-51 -86 -71.5 -152.5t-20.5 -109.5z" />
<glyph unicode="E" horiz-adv-x="729" d="M8 170q0 94 46 215t116 248t150.5 247.5t150.5 216t116 153.5l46 59q14 14 35 14q35 -2 64.5 -29.5t39.5 -42.5q25 -31 25 -65q0 -8 -2 -12l-33 -52q12 10 24 19q10 6 23.5 11t26.5 1q53 -33 71.5 -83t18.5 -103q0 -41 -7.5 -81t-17.5 -71q-10 -37 -24 -67 q-47 -111 -104.5 -182.5t-108.5 -114.5q-59 -51 -121 -80q-80 -39 -135.5 -53.5t-92.5 -14.5q-39 0 -59 11.5t-31 27.5q-6 8 -8 15.5t-4 11.5q-35 -82 -45 -135.5t-10 -81.5v-21q0 -4 2 -8q4 -25 16 -33t31 -8q20 0 42.5 8t43 19.5t33.5 20.5l14 9q12 8 26.5 15.5t49.5 21.5 q6 2 18 2q25 0 63 -7t60 -15q6 -4 11 -6.5t7 -10.5q0 -10 -6 -10q-166 -78 -265 -104.5t-154 -26.5q-49 0 -72 14.5t-23 16.5q-25 27 -36 62.5t-11 78.5zM281 465q0 -33 16 -45t33 -12h10q43 10 85 36.5t76 56t57 51.5l22 23q106 109 151 205.5t45 167.5q0 72 -39 105l4 4 l-4 -4q-2 2 -6 2q-14 0 -40.5 -23.5t-55.5 -56.5l-12 -12l-5 -5q-16 -18 -31.5 -36.5t-31.5 -36.5q-25 -31 -52.5 -66t-52 -65.5t-42 -54t-23.5 -31.5q-25 -35 -45.5 -65.5t-38.5 -59.5q-20 -47 -20 -78z" />
<glyph unicode="F" horiz-adv-x="858" d="M6 100q0 16 4 27.5t8 22.5q6 10 13 18q47 59 96 130t100 148v-2q25 33 58 43q14 6 30 9l-55 -2q-41 -2 -68.5 -4.5t-46.5 -6.5q-23 -4 -34 -8h-2q-31 4 -39.5 30.5t-8.5 49.5q0 10 1 18.5t1 12.5q4 25 15.5 39t24 21t24.5 9t18 2h5q29 0 53 -1t47 -1q27 0 59.5 1t106.5 3 q-6 0 -15 5q-16 4 -22 14q33 51 63.5 99t59.5 95q55 88 101 166t80 135.5t55 90.5l20 34q16 16 41 17q33 0 62.5 -22.5t41.5 -35.5q33 -33 33 -71q0 -20 -6 -35l-33 -47q16 20 37 35q16 12 38.5 22t47.5 8q10 -2 16 -5t8 -3q31 -31 31 -96q0 -49 -16.5 -111.5t-42 -126 t-54 -124t-54 -108.5t-42.5 -77l-18 -29q-14 -14 -37 -14q-18 0 -36.5 9.5t-35 20.5t-29 22.5t-18.5 15.5q-25 25 -24 53q0 16 5 27.5t11 21.5q8 10 14 21q82 127 133.5 208.5t79 130t36.5 69t11 26.5q-4 0 -11 -5t-9 -8q-37 -27 -78 -64.5t-78 -76.5t-66.5 -73.5 t-45.5 -53.5q-35 -43 -63.5 -84t-55.5 -78q10 -12 14 -29.5t4 -33.5t-4 -33q-4 -25 -14 -39t-22.5 -21t-24.5 -8t-19 -1h-4h-19t-20 2q-20 -33 -51 -81t-65.5 -100.5t-69.5 -105.5t-62.5 -95t-45.5 -69l-19 -27q-15 -16 -35 -16q-16 0 -30.5 9t-24.5 20q-18 18 -25.5 36.5 t-7.5 34.5z" />
<glyph unicode="G" horiz-adv-x="839" d="M8 170q0 94 46 216t116 248t150.5 248t150.5 216t116 152l46 59q14 14 35 14q35 -2 64.5 -29.5t39.5 -42.5q25 -31 25 -65q0 -10 -4 -27q31 12 49 12q16 0 23 -4t9 -6q16 -16 23.5 -41.5t7.5 -54.5q0 -49 -16.5 -111.5t-42 -126t-54 -124t-54 -108.5t-42.5 -77l-18 -29 q-14 -14 -37 -14q-18 0 -37.5 9.5t-36 20.5t-29 22.5t-16.5 15.5q-25 25 -24 53q2 31 16 50.5t12 19.5q84 127 135.5 208.5t79 130t36.5 69t11 26.5q-43 -25 -90 -69t-89 -88t-74.5 -82t-45.5 -52q-113 -139 -178 -249.5t-99 -191.5t-44 -135.5t-10 -80.5v-21q0 -4 2 -8 q4 -25 16 -33t31 -8q23 0 46 9t44 20q23 12 43 26q14 8 31.5 25.5t33 36t27.5 37t19 28.5l-29 -2q-63 -6 -96 -12q-18 -4 -29 -6q-12 -4 -16 -4q-23 2 -29 25.5t-6 45.5q0 14 1 25.5t1 17.5q4 25 15 39.5t23.5 21.5t25 9t18.5 2h2h16q104 0 168 1t97.5 4t45 6t15.5 5l4 2 q8 4 14 5q25 -4 30 -31t5 -49v-20.5t-2 -14.5q-4 -25 -14.5 -39t-23.5 -21.5t-24.5 -9.5t-17.5 -2h-4q-6 2 -13 2h-14l-26 2q6 0 12 -4q4 -4 5 -8t-7 -14q-2 -4 -10 -13l-2 -2q-25 -27 -59.5 -56.5t-71.5 -57t-75 -50t-71 -32.5q-51 -16 -90 -23.5t-67 -7.5q-53 0 -75 14.5 t-22 16.5q-25 27 -36 62.5t-11 78.5z" />
<glyph unicode="H" horiz-adv-x="888" d="M8 100q0 12 4 24.5t8 22.5q6 10 15 21q25 35 51.5 70.5t54.5 76.5q14 16 29.5 27.5t30.5 17.5q16 8 30 11l-57 -9q-8 -2 -16 -2h-6q-4 -2 -13 -2q-27 2 -33 22.5t-6 41.5q0 33 4 49q2 25 13.5 39t25 21.5t24.5 9.5t17 2h4h15h51t102 2q-16 4 -24 10q-8 4 -12.5 11t2.5 18 l-3 -4q49 76 95.5 149.5t89.5 142.5q55 88 101 166t81 135.5t54 90.5l20 34q16 16 41 17q35 0 63.5 -22.5t40.5 -35.5q33 -33 33 -71q0 -29 -11.5 -47.5t-13.5 -20.5q-158 -188 -260 -324.5t-174 -246.5q102 4 161.5 7t82.5 7q53 78 102 158t97 153q55 88 101 166t80 135.5 t53 90.5l20 34q16 16 41 17q35 0 64.5 -22.5t41.5 -35.5q33 -33 33 -71q0 -29 -12.5 -47.5t-14.5 -20.5q-86 -102 -155.5 -188t-125 -161t-99.5 -139.5t-81 -123.5q-29 -45 -82 -126t-106 -163q-63 -96 -131 -201q-14 -16 -35 -16q-16 0 -30.5 9t-24.5 20q-35 34 -35 65v6 q0 12 5 24.5l9 22.5q6 10 13 21q35 47 73.5 101.5t79.5 113.5h-47q-49 0 -97 -1t-89 -5q-39 -59 -80 -121.5t-76 -116.5q-41 -63 -82 -123q-15 -16 -35 -16q-16 0 -31.5 9t-25.5 20q-18 18 -25.5 36.5t-7.5 34.5z" />
<glyph unicode="I" horiz-adv-x="710" d="M8 201q0 84 32 183t81 196.5t105.5 188.5t104.5 160.5t81 111.5l32 42q14 14 35 15q35 -2 64.5 -30t40.5 -42q24 -30 24 -62q0 -19 -6 -34t-12 -25q-8 -12 -17 -20q-135 -154 -216 -271.5t-125 -204.5t-57 -144.5t-13 -90.5q0 -8 -1 -23.5t3 -30t15 -25.5t38 -13 q18 0 42 8t44.5 18.5t33.5 20.5l13 10q12 6 26.5 14.5t49.5 22.5q4 2 18 2q25 0 62 -7t59 -15q8 -4 13.5 -6.5t7.5 -10.5q0 -10 -8 -10q-166 -78 -264.5 -104.5t-153.5 -26.5q-47 2 -65.5 11t-28.5 20q-33 33 -45.5 77t-12.5 95zM572.5 1094.5q2.5 25.5 15 55.5t30 59.5 t31.5 47.5q27 37 68 47q12 3 23 2q27 0 48 -16q30 -22 34 -64q0 -4 1 -9q0 -37 -26 -70q-12 -18 -42 -39t-61.5 -36t-62.5 -21.5t-45 6.5q-16 12 -13.5 37.5z" />
<glyph unicode="J" horiz-adv-x="710" d="M10 389q0 12 9.5 17.5t19.5 5.5q23 0 49.5 -20.5t26.5 -63.5v-19q0 -18 1 -45.5t9 -52.5q6 -27 18.5 -43t30.5 -16h8l13 6q6 4 15 8t23 14q25 16 60 49t80 86q80 98 180 284.5t209 502.5q8 14 26 26q8 6 19 9l-252 -23q-6 -2 -16 -2q-23 2 -28 24.5t-7 45.5q0 27 4 43 q2 25 13 39t24.5 21t25 9t17.5 2h4q248 0 393 9.5t152 11.5q6 2 14 2q25 -2 30 -28.5t5 -51.5q0 -27 -2 -33q-4 -25 -14.5 -39t-23.5 -21t-24.5 -9t-17.5 -2h-4q-23 0 -52.5 2t-93.5 2q14 -4 25 -11q8 -4 13 -12t1 -20v2q-37 -84 -102.5 -219.5t-149.5 -282.5 q-63 -111 -132.5 -217.5t-141.5 -190.5t-144.5 -135t-140.5 -51h-18.5t-18.5 2q-6 0 -26.5 8t-44 46t-43 115t-21.5 216z" />
<glyph unicode="K" horiz-adv-x="915" d="M8 100q0 16 4 27.5t8 22.5q6 10 15 18q35 47 73.5 101.5t79.5 113.5q12 14 39 10q10 -2 25 -6l-41 37q-14 14 -14 31q0 14 9 27.5t21.5 23.5t23.5 17t15 12q4 2 8.5 4t8.5 4q14 4 29.5 2t25.5 -6q12 -6 24 -15l-49 49q51 76 98.5 152t92.5 147q55 88 101 166t80 135.5 t55 90.5l20 34q16 16 41 17q35 0 63.5 -22.5t40.5 -35.5q33 -33 33 -71q0 -29 -11.5 -47.5t-13.5 -20.5q-86 -102 -155.5 -188t-124.5 -161t-99.5 -140.5t-80.5 -122.5q-8 -12 -13 -21q-2 -2 -2 -6q18 16 77.5 76.5t148.5 151.5q104 106 232 242t259 284q8 14 21 24 q10 10 24 17.5t33 7.5q20 0 39 -12q6 -4 22.5 -14.5t34 -24.5t30.5 -32.5t13 -39.5q0 -16 -8 -26l-46 -49q-46 -48 -121 -121.5t-168 -162.5t-189.5 -172t-186.5 -149.5t-155 -93.5q125 -135 190.5 -198.5t65.5 -61.5q18 -10 18 -27q-2 -27 -29.5 -50t-40.5 -34 q-27 -16 -47 -16q-29 2 -44 16.5t-17 16.5q-68 84 -138.5 157.5t-125.5 126.5l-70 -106t-63 -96q-33 -51 -64 -97q-16 -16 -35 -16q-16 0 -31.5 9t-25.5 20q-18 18 -25.5 36.5t-7.5 34.5z" />
<glyph unicode="L" horiz-adv-x="718" d="M8 170q0 94 46 215t116 248t149.5 247.5t149.5 216t116 153.5l46 59q16 14 37 14q35 -2 63.5 -29.5t40.5 -42.5q25 -35 25 -65q-2 -33 -19 -56q-8 -12 -16 -20q-209 -211 -330 -375t-181.5 -281.5t-76.5 -193.5t-16 -108v-21q0 -4 2 -8q4 -25 16 -33t29 -8q20 0 43.5 8 t43 19.5t34.5 20.5l14 9q12 6 26.5 14.5t49.5 22.5q4 2 18 2q25 0 61.5 -7t59.5 -15l13 -6.5t7 -10.5q0 -10 -8 -10q-166 -78 -265 -104.5t-152 -26.5h-3q-51 2 -71.5 15.5t-20.5 15.5q-25 27 -36 62.5t-11 78.5z" />
<glyph unicode="M" horiz-adv-x="1110" d="M10 98q0 16 4 27.5t9 21.5q6 10 14 19q53 70 113.5 157t122 179t121 187t114.5 183t101 166t80 135.5t55 90.5l20 34q14 16 41 17q33 0 62.5 -22.5t41.5 -35.5q33 -33 33 -71q0 -31 -22.5 -60.5t-75.5 -95.5q-63 -129 -105.5 -231.5t-67 -179t-35.5 -131t-15 -87.5 q43 27 114 82q31 25 80 73t110.5 111.5t128 140.5t129 160t117 167t91.5 163q14 16 41 17q33 0 62.5 -22.5t41.5 -35.5q33 -33 33 -71q0 -31 -13.5 -49.5t-13.5 -20.5q-86 -102 -154.5 -188t-124 -161t-99.5 -139.5t-81 -123.5q-18 -29 -50 -77t-66.5 -102.5t-71.5 -109.5 t-65.5 -100t-47.5 -74l-20 -29q-14 -14 -35 -14q-16 0 -30.5 9t-24.5 20q-35 35 -35 71q0 16 5 27.5t9 21.5q6 10 13 19q53 72 95 126t77 101q-86 -72 -164 -118t-131 -46h-21.5t-27.5 17q-29 41 -29 114q0 45 8 96.5t23 108.5q-10 -16 -19.5 -30.5t-19.5 -30.5 q-18 -29 -49 -77t-67 -102.5t-72 -109.5t-65.5 -100t-47.5 -74l-19 -29q-15 -14 -35 -14q-16 0 -30.5 9t-24.5 20q-20 18 -27.5 36.5t-7.5 34.5z" />
<glyph unicode="N" horiz-adv-x="935" d="M8 98q0 16 4 27.5t8 21.5q6 10 15 19q53 70 113.5 157t122 179t121 187t114.5 183t101 166t80 135.5t53 90.5l20 34q16 16 41 17q35 0 64.5 -22.5t41.5 -35.5q33 -33 33 -71q0 -31 -13.5 -49.5t-13.5 -20.5q-25 -29 -48 -56.5t-46 -55.5q-80 -129 -131 -234.5t-82 -191.5 t-42 -152t-11 -115v-32q96 135 197.5 291.5t191.5 301.5q55 88 101.5 166t80 135.5t54.5 90.5l20 34q14 16 41 17q33 0 62.5 -22.5t41.5 -35.5q33 -33 33 -71q0 -31 -13 -49.5t-13 -20.5q-86 -102 -155 -188t-124 -161t-99 -139.5t-81 -123.5q-18 -29 -50 -77t-67 -102.5 t-71.5 -109.5t-65.5 -100t-49 -74l-19 -29q-14 -14 -34 -14t-44 22.5t-38 47.5q-29 55 -29 149q0 70 13.5 151t35.5 167q-6 -8 -11 -15.5t-9 -15.5q-18 -29 -49 -77t-67 -102.5t-72 -109.5t-65.5 -100t-47.5 -74l-19 -29q-14 -14 -35 -14q-16 0 -31.5 9t-25.5 20 q-18 18 -25.5 36.5t-7.5 34.5z" />
<glyph unicode="O" horiz-adv-x="765" d="M10 170q0 70 26.5 157t71 180t99.5 188.5t115 185.5q137 209 311 428q16 14 37 14q35 -2 63.5 -29.5t40.5 -42.5q23 -31 23 -65q0 -18 -2 -27q-10 -35 -41 -79t-62 -64l-2 -2h-2q-23 -16 -42 -33.5t-38 -34.5q-154 -172 -243 -306t-135 -232.5t-58 -162t-12 -93.5v-21 q0 -4 2 -8q6 -29 26 -29q25 0 63 24.5t68 55.5q137 147 219.5 286.5t125.5 250.5q23 53 35 97t20 77q8 37 12 65q2 8 2 15.5v13.5v16q0 23 10.5 51.5t24.5 54t29.5 45t23.5 21.5q10 4 27.5 2t25.5 -6q35 -18 51.5 -57t16.5 -92q0 -74 -27.5 -168t-77 -196.5t-118 -204 t-150.5 -189.5v-2q-23 -27 -54.5 -59.5t-68 -64.5t-75.5 -59.5t-76 -41.5q-47 -18 -81 -24.5t-62 -8.5h-10q-41 0 -62 14q-23 16 -25 19q-45 51 -45 141z" />
<glyph unicode="P" horiz-adv-x="935" d="M6 98q0 16 4 27.5t8 21.5q6 10 15 19q53 70 113.5 157t122 179t121 187t114.5 183t101 166t80 135.5t53 90.5l20 34q16 16 41 17q35 0 64.5 -22.5t41.5 -35.5q25 -25 25 -53v-8t-6 -15.5t-19.5 -33t-38.5 -57.5q20 25 43 45q18 16 41 28.5t45 5.5q71 -29 99 -85 q26 -52 26 -109v-8q0 -41 -7 -81t-17 -71q-10 -37 -25 -67q-43 -92 -100.5 -162t-108.5 -118t-88 -72l-37 -25q-51 -29 -100 -43.5t-91 -18.5q-19 -2 -35 -2q-20 0 -37 3q-30 5 -42 18l6 -4q-18 14 -25 34.5t-7 38.5q-2 23 4 45l-23 -39q-39 -59 -84 -126.5t-83 -126 t-64 -98.5l-25 -40q-14 -14 -35 -14q-16 0 -31.5 9t-25.5 20q-18 18 -25.5 36.5t-7.5 34.5zM475 465q2 -33 17.5 -45t33.5 -12h9q43 10 85 35.5t74.5 53t54 51t25.5 27.5q102 117 149.5 211.5t47.5 165.5q0 35 -11.5 66t-33.5 37q-16 0 -49 -32t-68 -69q-23 -23 -60.5 -69.5 t-76.5 -96.5q-45 -56 -94 -122q-59 -72 -81 -122t-22 -79z" />
<glyph unicode="Q" horiz-adv-x="808" d="M10 170q0 70 26.5 157t71 180t99.5 188.5t115 185.5q137 209 311 428q16 14 37 14q35 -2 63.5 -29.5t40.5 -42.5q23 -31 23 -65q0 -18 -2 -27q-10 -35 -41 -79t-62 -64q-23 -16 -45 -34.5t-39 -35.5q-154 -172 -243 -306t-135 -232.5t-58 -162t-12 -93.5v-21q0 -4 2 -8 q6 -29 26 -29q18 0 47 16.5t54 39.5q10 8 29 24q15 12 46 12q11 0 25 -2l-37 35l-35 35q-16 16 -27 26.5t-20 16.5q-8 8 -14 12q-20 10 -20 27q0 14 9 27.5t20 23.5t22.5 18.5t17.5 12.5q25 16 49 16q14 0 25.5 -5t19.5 -11q8 -8 17 -15q10 -10 17 -20t16 -21l57 -61 q-8 14 -14 29q-4 12 -6.5 27.5t6.5 31.5q59 88 101 170t71 150q23 53 35 98t20 78q8 37 12 65q2 8 2 15.5v13.5v16q0 23 10.5 51.5t24.5 54t29.5 45t23.5 21.5q16 4 31.5 1t21.5 -7q27 -20 36.5 -61t9.5 -90q0 -84 -26 -189.5t-69 -213t-100 -204t-123 -161.5 q-4 -4 -9 -10.5t-11 -12.5q49 -53 66.5 -69.5t21.5 -18.5q18 -10 18 -27q-2 -27 -29.5 -50t-40.5 -31q-23 -16 -47 -17q-29 0 -44 14.5t-17 16.5q-16 20 -30.5 37.5t-28.5 34.5q-35 -27 -72 -48.5t-68 -31.5q-53 -16 -91 -22.5t-66 -6.5q-53 0 -75 13.5t-24 15.5 q-25 27 -35 62.5t-10 78.5z" />
<glyph unicode="R" horiz-adv-x="950" d="M6 98q0 16 4 27.5t8 21.5q6 10 13 19q37 49 78 104.5t81 116.5q6 8 16.5 9t20.5 -1t25 -6l-47 43q-8 6 -14.5 11.5t-10.5 9.5q-6 4 -8 8q-18 14 -18 35q0 14 9 25t21.5 20.5t23.5 16.5t15 11q23 16 47 17q14 0 23.5 -4t17.5 -9l51 -49q-8 18 -14 37q-4 16 -6 32.5t6 33.5 q41 63 80 124.5t74 120.5q55 88 101 166t80 135.5t55 90.5l20 34q16 16 41 17q35 0 63.5 -22.5t40.5 -35.5q33 -33 33 -71v-2l-66 -94q18 25 41 45q18 16 41 27.5t45 6.5q73 -27 101 -83q26 -52 26 -110v-9q0 -41 -7 -81t-17 -71q-10 -37 -25 -67q-47 -109 -104.5 -181.5 t-107.5 -115.5t-86 -61l-36 -19q-57 -29 -101 -43.5t-79 -20.5q86 -90 135 -137t49 -45q19 -11 19 -27q-2 -27 -28.5 -51t-39.5 -33q-23 -16 -49 -16q-29 2 -44 15.5t-17 17.5q-61 78 -130 150.5t-128 131.5q-35 -53 -71 -106t-63.5 -96t-45.5 -71l-19 -28q-14 -14 -35 -14 q-16 0 -30.5 9t-24.5 20q-18 18 -25.5 36.5t-7.5 34.5zM479 465q0 -33 16.5 -45t32.5 -12h11q43 10 86 36.5t76.5 56t54.5 51.5l22 23q104 113 150.5 209.5t46.5 167.5q0 70 -37 101l-8 2q-16 0 -49 -32t-68 -69q-23 -23 -60.5 -69.5t-76.5 -96.5q-45 -57 -94 -122 q-59 -72 -81 -122t-22 -79z" />
<glyph unicode="S" horiz-adv-x="1038" d="M6 102q0 14 4 26.5t8 23.5q6 10 15 18q53 70 112.5 157t121 179t120.5 187t115 184q55 88 101 165.5t81 135t54 91.5l20 34q16 16 41 16q33 0 63.5 -23.5t40.5 -33.5q18 -18 26.5 -37t8.5 -35q0 -2 -1 -3t-1 -3l-66 -97q18 27 37 43q16 14 33.5 20.5t34.5 -7.5 q14 -14 23.5 -36t11.5 -54v-33q0 -16 1 -36.5t1 -49.5q0 -47 -2 -109.5t-7.5 -133t-15.5 -145.5t-26 -149q6 0 11 -1t9 -1q16 -2 34.5 -7t35.5 -13q16 -6 26 -14.5t13 -18.5q-4 -16 -19.5 -19.5t-50.5 -3.5h-37q-10 2 -20.5 2.5t-20.5 0.5q-20 -74 -50 -140.5t-70 -116 t-92 -78t-120 -30.5h-4q-10 0 -43 8t-74 43q-23 20 -36 45t-21 53q-4 10 -6 39t2 62t18.5 65.5t42.5 53.5q41 29 103.5 51t167.5 26l80 -2q-12 2 -25 9q-10 4 -22.5 11t-20.5 17q10 51 15.5 111.5t5.5 136.5q0 59 -4.5 126t-12.5 144q-113 -141 -189.5 -248.5t-135.5 -199.5 q-18 -29 -49 -77t-67 -102.5t-72 -109.5t-65.5 -100t-47.5 -74l-19 -29q-17 -14 -35 -14q-16 0 -31.5 9t-25.5 20q-18 18 -25.5 36.5t-7.5 34.5zM561 170q0 -4 4 -20q8 -25 25 -25q29 0 84 59q14 14 31 43q4 10 10 21.5t10 23.5q6 10 18.5 19.5t24.5 15.5q14 8 31 12 l-70 -10q-49 -10 -83 -28.5t-56 -44.5q-8 -10 -15 -21q-14 -23 -14 -45z" />
<glyph unicode="T" horiz-adv-x="479" d="M12 98q0 16 4 27.5t9 21.5q6 10 12 19q53 70 113.5 157t122 179t121 187t114.5 183q29 45 54.5 88.5t53.5 90.5q14 18 35 24q10 4 21 6l-68 -6q-16 -2 -27.5 -3t-21.5 -1q-10 -2 -18 -2q-16 -6 -25.5 -2t-16 15.5t-8.5 25.5t-2 27q0 31 4 43q2 25 13.5 39t25 21t24.5 9 t17 2h4h15h76.5t70.5 2q6 10 11.5 19.5t9.5 15.5q4 8 8 12q16 16 41 17q33 0 62.5 -22.5t41.5 -35.5l2 -2q98 4 149.5 8.5t57.5 6.5t15 2q25 -2 29.5 -28.5t6.5 -51.5q0 -10 -1 -19.5t-1 -13.5q-4 -25 -15 -39t-24.5 -21t-24.5 -9.5t-18 -2.5h-264q14 -2 25 -6 q23 -10 14 -30q-147 -178 -241.5 -307.5t-161.5 -239.5q-18 -29 -50 -77t-67 -102.5t-72 -109.5t-65.5 -100t-48.5 -74l-19 -29q-15 -14 -35 -14q-16 0 -30.5 9t-24.5 20q-33 33 -33 64v7z" />
<glyph unicode="U" horiz-adv-x="1155" d="M14 170q0 70 21.5 150.5t56.5 163.5t81 165t93 156q113 174 254 350q16 14 35 14q35 -2 64.5 -29.5t39.5 -41.5q25 -31 25 -66q0 -16 -6 -30.5t-12 -24.5q-8 -12 -17 -21q-193 -219 -294 -362t-145 -232.5t-46 -134.5q-1 -15 -1 -27q0 -24 3 -38q8 -35 49 -35 q31 0 71 17.5t80 46t72.5 64.5t46.5 75h2q31 100 86.5 210.5t122 220t135 209t125 174.5t92.5 120l35 45q15 14 35 14q35 -2 64.5 -29.5t40.5 -42.5q24 -30 24 -62q0 -19 -6 -33.5t-12 -25.5q-8 -12 -17 -20q-209 -211 -328.5 -375t-181 -281.5t-78 -193.5t-16.5 -108v-21 q0 -4 2 -8q4 -25 16.5 -33t30.5 -8t42 8t44.5 19.5t34.5 20.5l13 9q12 8 26 15.5t49 21.5q4 2 19 2q25 0 61.5 -7t59.5 -15l13 -6.5t7 -10.5q0 -10 -8 -10q-166 -78 -264.5 -104.5t-153.5 -26.5q-47 0 -70.5 14.5t-23.5 16.5q-20 18 -30.5 47.5t-14.5 62.5 q-41 -35 -82 -64.5t-80 -45.5q-47 -18 -81 -25.5t-62 -7.5q-51 0 -73 15.5t-24 17.5q-25 27 -35 62.5t-10 78.5z" />
<glyph unicode="V" horiz-adv-x="536" d="M14 276v20q0 86 14 186q16 112 44 225q61 262 176 581q16 23 42.5 28t54.5 0t52.5 -15.5t36.5 -16.5q37 -20 48.5 -42.5t9.5 -45.5q-2 -25 -17 -51q-82 -121 -132 -235.5t-77.5 -220t-36 -197t-8.5 -160.5q82 117 161 238.5t146 232.5q45 76 84 140.5t67 112.5t44 76 l16 27q16 16 41 17q35 0 63.5 -23t41.5 -35q18 -18 25.5 -36.5t7.5 -34.5q0 -31 -12.5 -49.5t-12.5 -20.5q-86 -102 -141.5 -167t-94.5 -112t-69.5 -90t-67.5 -102q-29 -45 -82 -126t-106 -163q-63 -96 -131 -201q-16 -16 -35 -16q-8 0 -21.5 3t-19.5 7q-57 29 -83 99.5 t-28 166.5z" />
<glyph unicode="W" horiz-adv-x="1050" d="M14 276v20q0 86 14 186q16 112 44 225q61 262 176 581q16 23 42.5 28t54.5 0t52.5 -15.5t36.5 -16.5q39 -20 50.5 -42.5t9.5 -45.5q-2 -25 -19 -51q-82 -121 -132 -235.5t-77.5 -220t-36 -197t-8.5 -160.5q82 117 161 238.5t146 232.5q45 76 84 140.5t68 112.5t44 76 l15 27q16 16 41 17q35 0 64.5 -23t42.5 -35q18 -18 25.5 -36.5t7.5 -34.5q0 -31 -13.5 -49.5t-13.5 -20.5q-23 -23 -37 -43q-47 -92 -74.5 -179t-42 -166t-18.5 -147q-3 -46 -3 -86q0 -20 1 -39q92 129 185 275.5t177 281.5q55 88 101.5 166t80 135.5t53.5 90.5l21 34 q16 17 41 17q35 0 63.5 -22.5t41.5 -34.5q33 -33 33 -72q0 -29 -11.5 -47.5t-13.5 -20.5q-86 -102 -155.5 -189t-125 -162t-99.5 -139.5t-81 -123.5q-18 -29 -49 -77t-66.5 -102.5t-71.5 -109.5t-65.5 -100t-49.5 -73l-19 -28q-8 -12 -21.5 -15t-26 -1t-22.5 5t-12 5 q-43 25 -65 81t-28 131q-3 38 -3 78q-1 40 3 84q6 87 19 173q-16 -29 -49 -79t-72 -108.5t-79 -120t-72.5 -112.5t-55 -85t-24.5 -36q-14 -16 -35 -16q-6 0 -21.5 3t-19.5 7q-57 29 -83 99.5t-28 166.5z" />
<glyph unicode="X" horiz-adv-x="598" d="M12 100q0 16 4 27.5t9 22.5q6 10 12 18q49 61 98 135q8 8 17.5 3t17.5 -15t16 -29l-22 80q-18 70 -31.5 144.5t-23 151.5t-15.5 151.5t-10 142.5q-6 126 -6 251v62q8 27 31.5 41t51 18.5t54.5 3.5t39 -3q41 -4 60.5 -23.5t25.5 -40.5q8 -25 0 -53q-45 -176 -45 -336 t31 -338q2 18 6 39q4 16 8 35.5t12 36.5q41 66 80 128t76 121q55 88 101 166t80 135.5t55 90.5l20 34q16 16 41 17q35 0 63.5 -22.5t40.5 -34.5q33 -33 33 -72q0 -29 -11 -47.5t-13 -20.5q-86 -102 -155 -190t-124 -164t-99 -140.5t-83 -119.5q-16 -23 -38.5 -59.5 t-51.5 -79.5q16 -47 32.5 -84t30.5 -64q14 -31 29 -53q22 -35 22 -65q1 -7 -1 -15q-6 -37 -15 -51q-8 -14 -19.5 -20.5t-21.5 -10.5q-12 -4 -27 -2q-53 6 -95 47t-73 107q-41 -59 -66.5 -99.5t-27.5 -40.5q-14 -16 -35 -16q-16 0 -30.5 9t-24.5 20q-18 18 -25.5 36.5 t-7.5 34.5z" />
<glyph unicode="Y" horiz-adv-x="485" d="M10 100q0 16 4 27.5t9 22.5q6 10 12 18q35 45 70.5 96t74.5 107q-33 143 -50 295.5t-26 281.5q-8 150 -10 293q8 29 33 42t53.5 18.5t55 3.5t40.5 -5q43 -6 63.5 -26.5t27.5 -42.5q8 -25 2 -55q-37 -160 -41 -302q-1 -29 -1 -57q0 -110 13 -207q43 68 85 134.5t81 129.5 q55 88 101 166t80 135.5t55 90.5l20 34q16 16 41 17q33 0 62.5 -22.5t41.5 -34.5q33 -33 33 -72q0 -29 -12.5 -47.5t-14.5 -20.5q-76 -82 -155.5 -184t-156.5 -212t-149.5 -219.5t-134 -205.5t-108.5 -170t-76 -113q-15 -16 -35 -16q-16 0 -30.5 9t-24.5 20 q-18 18 -25.5 36.5t-7.5 34.5z" />
<glyph unicode="Z" horiz-adv-x="808" d="M13 37q-3 29 0 59.5t5 40.5q4 20 14.5 32.5t20.5 20.5q53 70 111.5 154t117 173t116 180t110.5 177q35 57 65.5 108.5t59.5 98.5q8 10 17 17.5t18 11.5q8 6 16 8l-84 -2q-68 -2 -115 -6t-75 -8q-35 -6 -58 -12q-25 -10 -37 6t-15 40.5t-1 51t4 39.5q4 35 20.5 51t34.5 25 q23 8 48 8q98 -1 172 -1h67q92 1 146 5q53 0 71.5 7t30.5 9q25 10 38 -2t17 -34.5t1 -52.5t-9 -55.5t-13 -45t-12 -21.5q-86 -102 -154.5 -189t-123.5 -162t-99 -139.5t-81 -123.5q-25 -39 -71 -109.5t-95 -144.5q-16 -25 -37 -35l-21 -10h29q127 0 196.5 3t102.5 7 q37 4 45 10q25 10 36 -5t14 -40.5t2 -51.5t-3 -38q-4 -35 -20.5 -51t-34.5 -25q-23 -8 -47 -8q-108 6 -189 6h-40q-94 -2 -150 -8q-67 -8 -108 -18q-25 -14 -37.5 3t-15.5 46z" />
<glyph unicode="\" horiz-adv-x="1148" d="M172 1104q-4 18 0 28.5t12.5 15.5t18.5 7t20 6q29 8 48.5 0t31.5 -18q12 -14 21 -33q61 -154 130.5 -303.5t139.5 -288.5t134.5 -263t117.5 -224q6 -18 2 -29.5t-12.5 -16.5t-19.5 -8.5t-19 -5.5q-31 -8 -50.5 -1t-29.5 20q-12 12 -21 33q-29 84 -78 194.5t-106 228 t-115.5 231.5t-107.5 206t-81 152.5t-36 68.5z" />
<glyph unicode="`" horiz-adv-x="700" d="M176 938q2 12 9.5 23.5t14.5 21.5t11 14q10 12 20.5 15.5t18.5 1.5t18 -8q51 -45 93 -64.5t73 -26.5q37 -8 64 -4q14 10 23 7t14 -7q6 -8 2 -18q-2 -4 -7 -6q-47 -37 -107.5 -37t-113.5 16q-64 19 -127 54q-8 6 -6 18z" />
<glyph unicode="a" horiz-adv-x="659" d="M-96 127q-3 20 -3 40q0 35 9 73q14 58 43 118t65 115q84 129 220 266q16 16 32.5 18.5t31.5 -1.5t26.5 -13.5t19.5 -17.5q31 -33 31 -61q0 -29 -12 -52q2 0 3 1t3 1q6 2 15 1t24.5 -9t37 -26.5t54.5 -51.5q25 -25 28 -48t-2 -42q-6 -23 -20 -41q-55 -55 -88 -99t-49 -77 q-20 -37 -27 -65q-4 -27 3 -36t16 -11q8 -2 22 4q25 12 53.5 38.5t58 60.5t60 74t59.5 79q10 14 28 9t11 -16q-61 -94 -111 -157.5t-90 -105.5t-71 -62.5t-53 -28.5q-16 -5 -30 -5q-31 0 -48 28q-25 35 -35 75q-68 -72 -118 -92q-42 -17 -73 -17q-6 0 -12 1q-39 4 -67 33 q-37 45 -45 100zM20 115q2 -23 11.5 -30t19.5 -5q13 2 27 10q41 41 85 101.5t83 121t67.5 109.5t38.5 65q6 10 7 26.5t-3 29t-16 15.5t-33 -11l-2 -2q-121 -119 -180 -201t-82 -133q-24 -51 -24 -86q0 -5 1 -10z" />
<glyph unicode="b" horiz-adv-x="534" d="M-114 132q3 68 32 154.5t79 184.5t107 195q135 227 334 491q16 16 37 15t40.5 -10t34.5 -23.5t23 -22.5q25 -25 28 -48.5t-1 -41.5q-6 -23 -20 -39q-90 -104 -161 -192t-130 -162q26 21 61 21h13q43 -4 88 -36q18 -16 19 -37.5t-5 -43.5q-8 -25 -23 -54 q-6 -12 -23.5 -42.5t-34.5 -62.5t-32 -56l-14 -25q-20 -37 -16 -48t16 -11q14 0 39 14q27 16 55.5 48t61.5 65q16 16 30.5 9t7.5 -16q-57 -86 -103 -125.5t-80 -52t-55.5 -6.5t-31.5 12q-86 -113 -148.5 -151.5t-105.5 -40.5h-5q-48 0 -83 33q-34 34 -34 95v10zM-18 109 q2 -23 12 -30t22 -3q14 2 33 14q41 27 83 81t81 114q-6 20 -2 62t10 86t14.5 80t12.5 42q2 20 12 37q-113 -147 -170 -241.5t-82 -147.5q-26 -57 -26 -88v-6zM311 516q10 18 19 33q6 12 9 23.5t-3 13.5l-4 -4q-4 -4 -6 -9z" />
<glyph unicode="c" horiz-adv-x="413" d="M-104 124q-3 20 -4 41q0 35 10 71q14 58 42.5 119t65.5 116q84 129 219 266q23 20 46 20q9 0 18 -3q2 0 22.5 -12.5t36.5 -34.5q16 -20 31.5 -53t26.5 -85q4 -18 -4 -41q-6 -20 -23.5 -46.5t-54.5 -61.5q-10 -10 -21 -19q-10 -8 -23.5 -19t-27.5 -24q-25 -20 -45.5 -27 t-27.5 -1t1.5 25.5t38.5 52.5q39 41 61.5 77.5t12.5 57.5q-121 -119 -180.5 -201t-81.5 -133q-24 -51 -24 -86q0 -5 1 -10q2 -23 12.5 -32t22.5 -9q14 -2 33 6q63 23 115.5 70t91.5 95t62.5 85t29.5 41q10 8 20.5 6t14.5 -6q2 -2 2 -7q0 -2 -2 -4q-84 -133 -144.5 -206.5 t-106.5 -109.5t-81 -43t-64 -7q-20 0 -33.5 5t-23.5 11q-10 8 -20 17q-37 45 -45 99z" />
<glyph unicode="d" horiz-adv-x="661" d="M-106 116q-3 20 -2 41q0 35 8 73q14 58 43.5 118t66.5 115q84 129 219 266q16 16 33 19.5t31 -2t26.5 -14.5t18.5 -17q25 -29 35 -57.5t26 -65.5q59 109 126 209t122 180q66 92 125 176q16 16 36.5 15t40 -11t35 -23.5t23.5 -21.5q25 -25 29 -48.5t0 -41.5 q-6 -23 -21 -39q-119 -137 -208 -247.5t-152 -198.5t-105 -153.5t-67 -113.5q-57 -109 -57 -158q0 -32 9 -39t19 -3q12 4 31 16q45 33 85 76t71.5 82t52 67.5t24.5 32.5q10 16 20.5 16.5t18.5 -4.5q4 -2 5 -8v-4q-57 -86 -105.5 -146.5t-87.5 -100.5t-69.5 -62.5 t-55.5 -30.5q-24 -10 -45 -10q-26 0 -45 16q-29 33 -33 88q-72 -76 -124 -99q-44 -20 -76 -20q-6 0 -11 1q-41 4 -71 32q-37 44 -45 100zM10 104q2 -23 11.5 -29.5t19.5 -4.5q12 2 27 10q18 20 50 58t65.5 83t64.5 93t46 89q12 34 12 60v10q-3 29 -36 35 q-111 -111 -163 -188.5t-74 -124.5q-23 -52 -23 -86v-5z" />
<glyph unicode="e" horiz-adv-x="417" d="M-100 124q-3 20 -4 41q0 35 10 71q14 58 42.5 119t65.5 116q84 129 219 266q20 18 39 19.5t35 -6.5q23 -12 45 -35q18 -20 38 -56t34 -90q6 -16 -2 -39q-6 -18 -23.5 -46.5t-56.5 -63.5q-63 -53 -115 -96q-45 -37 -83 -70t-48 -43q-10 -6 -20 -8t-19.5 -1t-15.5 11 q-12 -29 -17.5 -47.5t-7.5 -30.5q-2 -14 0 -22q2 -23 12.5 -32t22.5 -9q14 -2 33 6q63 23 115.5 70t91.5 95t62.5 85t29.5 41q10 8 20.5 6t14.5 -6q2 -2 2 -7q0 -2 -2 -4q-84 -133 -144.5 -206.5t-106.5 -109.5t-81 -43t-63 -7q-20 0 -34 5t-24 11q-10 9 -20 17 q-37 45 -45 99zM55 240q25 20 75 63t95 91t73 92q17 26 16 43q0 12 -7 20q-106 -104 -164.5 -180t-87.5 -129z" />
<glyph unicode="f" horiz-adv-x="362" d="M-653 -354q-4 23 4 45q6 20 23.5 46.5t54.5 57.5q59 51 112 94q43 37 83 71t50 44l21 8q8 2 16 2t17 -10q94 125 149 210t84 140q-6 43 -4 52q0 8 4 8q4 20 13.5 41.5t20.5 38t24.5 26.5t25.5 8q66 127 133.5 241t120.5 204q63 102 119 194q14 14 30.5 15.5t33 -5 t30.5 -16.5t27 -18q20 -16 44.5 -55t45.5 -115q4 -23 -4 -47q-6 -23 -24.5 -49.5t-53.5 -55.5q-61 -51 -113 -94q-43 -37 -82 -69.5t-49 -43.5l-16 -8q-16 -8 -29 0q-41 -59 -74.5 -112.5t-64.5 -104.5q6 -53 22.5 -76.5t32.5 -31.5q20 -8 43 -5q25 10 53.5 33t59.5 56 q14 16 29.5 10t7.5 -17q-80 -90 -136.5 -123.5t-93.5 -41.5q-13 -2 -25 -2q-27 0 -46 12q-8 4 -15.5 9t-13.5 11q-20 -41 -38.5 -79t-33.5 -62q-61 -117 -133 -229.5t-133 -202.5q-72 -104 -143 -201q-23 -16 -45.5 -13t-44 16t-39 32t-25.5 31q-14 20 -29.5 52t-25.5 79z M-541 -328q66 80 123.5 150t104.5 129q-33 -27 -75 -66t-79 -78.5t-59.5 -76.5t-14.5 -58zM317 690q33 29 72 66t69.5 72.5t49 67.5t10.5 50q-111 -131 -201 -256z" />
<glyph unicode="g" horiz-adv-x="647" d="M-315 -354q-4 23 4 45q6 20 22.5 46.5t55.5 57.5q53 43 98 82q39 33 77 66.5t58 50.5q-16 2 -27.5 8t-19.5 10q-8 6 -16 13q-37 45 -45 99q-4 20 -4 41q0 35 10 71q14 59 43.5 118.5t66.5 114.5q86 129 219 266q16 16 32.5 19.5t31 -0.5t26 -14.5t19.5 -18.5 q32 -32 32 -61t-12 -50q4 4 19.5 1t23.5 -7q14 -8 37 -25.5t56 -52.5q25 -25 27.5 -48t-1.5 -42q-6 -23 -20 -41q-55 -55 -88 -99t-50 -77q-20 -37 -26 -65q-2 -27 4 -36t16 -12q8 -2 23 5q25 12 52.5 38.5t56 60.5t59 73t59.5 75q16 20 30.5 12t12.5 -12 q-88 -133 -153.5 -207.5t-111.5 -108.5t-76 -37t-44 3q-59 -109 -124.5 -209t-119.5 -178q-63 -92 -124 -172q-16 -16 -39 -13t-44.5 15t-39 27.5t-25.5 23.5q-16 20 -33.5 55t-27.5 89zM-205 -328q70 80 127.5 151t104.5 132q-31 -27 -75 -67t-82 -80.5t-61.5 -77.5 t-13.5 -58zM8 113q2 -23 11.5 -30t19.5 -5q12 2 27 10q41 41 85 101.5t83.5 121t68.5 109.5t39 65q8 25 0 33t-20.5 9t-24.5 -3t-14 -6q-20 -14 -42.5 -34.5t-45.5 -45.5q-80 -90 -118 -151.5t-54 -100.5q-15 -39 -15 -65v-8z" />
<glyph unicode="h" horiz-adv-x="657" d="M-208 89.5q-11 23.5 5 47.5q45 68 96.5 148t105.5 165t109.5 171t104.5 165q117 188 236 381q16 16 36.5 15.5t40 -11t34.5 -23.5t24 -22q25 -25 28.5 -48t-0.5 -42q-6 -23 -20 -39q-180 -211 -292 -357t-175 -247q43 43 89 88t88 85t76 73t52 51q10 10 18.5 19.5 t14.5 15.5l12 12q16 16 32.5 18.5t31 -1.5t25.5 -13.5t20 -17.5q25 -25 28.5 -48.5t-0.5 -41.5q-6 -23 -20 -41q-141 -133 -210 -224.5t-97 -148.5q-29 -61 -29 -97v-9q2 -23 13.5 -32t23.5 -9q14 -2 33 6q61 23 114.5 70t92 95t62 85t30.5 41q10 8 19 6t13 -6q2 -2 2 -7v-4 q-84 -133 -144 -206.5t-106.5 -109.5t-81 -43t-65.5 -7q-20 0 -33.5 5t-23.5 11q-11 9 -21 17q-41 51 -46 111q-1 12 -1 24q0 50 17 102l-172 -219l-6 -8q-7 -8 -16 -15.5t-21.5 -13.5t-24.5 -2q-14 0 -41 11.5t-48.5 31t-32.5 43z" />
<glyph unicode="i" horiz-adv-x="399" d="M-119 124q-3 19 -3 39q0 35 10 73q14 58 43.5 119t66.5 116q86 129 219 266q16 16 32.5 18.5t31 -1.5t25.5 -13.5t20 -17.5q25 -25 27.5 -48.5t-1.5 -41.5q-6 -23 -20 -41q-139 -133 -208 -224.5t-97 -148.5q-29 -61 -30 -97q0 -4 1 -9q2 -23 12 -32t23 -9q14 -2 33 6 q63 23 115 70t92 95t63.5 85t30.5 41q10 8 19 6t13 -6q2 -2 2 -7q0 -2 -2 -4q-82 -133 -143 -206.5t-107.5 -109.5t-80 -43t-64.5 -7q-20 0 -33.5 5t-23.5 11q-10 8 -21 17q-37 45 -45 99zM394.5 855q2.5 26 15 56.5t30 60t31.5 48.5q29 35 69 45q12 3 24 3q25 0 46 -15 q31 -23 34 -66v-8q0 -38 -26 -72q-12 -18 -41.5 -38.5t-61.5 -36t-62.5 -21.5t-44.5 6q-16 12 -13.5 38z" />
<glyph unicode="j" horiz-adv-x="415" d="M-662 -311q4 20 22.5 46.5t59.5 59.5q59 51 113 94q43 37 83 71t50 44l17 8q6 2 13 2t15 -4q98 137 163 237.5t99 158.5v2q37 66 82 125t84 106q45 53 92 98q16 16 33 18.5t32 -1.5t26.5 -13.5t19.5 -17.5q25 -25 28 -48.5t-1 -41.5q-6 -23 -21 -41 q-139 -133 -207.5 -224.5t-97.5 -148.5q-29 -61 -29 -97v-9q2 -23 12.5 -32t22.5 -9q14 -2 33 6q63 23 115.5 70t91.5 95t62.5 85t29.5 41q10 8 20.5 6t14.5 -6q2 -2 2 -7q0 -2 -2 -4q-84 -133 -144.5 -206.5t-106.5 -109.5t-81 -43t-64 -7q-20 0 -34.5 5t-24.5 11 q-12 8 -20 17l-7 12q-61 -111 -128.5 -216.5t-124.5 -189.5q-68 -98 -132 -182q-16 -16 -36.5 -14t-40 11t-35 22.5t-23.5 21.5l-12 12q-16 20 -33.5 55t-30.5 89q-8 20 0 43zM-549 -328q107 135 197 252q-33 -29 -71 -64.5t-68.5 -71.5t-48 -66.5t-9.5 -49.5zM407 855 q3 26 15 56.5t29.5 60t29.5 48.5q29 35 70 45q13 3 25 3q26 0 47 -15q31 -23 34 -66v-8q0 -38 -26 -72q-14 -18 -43 -38.5t-61.5 -36t-62.5 -21.5t-44 6q-16 12 -13 38z" />
<glyph unicode="k" d="M-208 91.5q-11 21.5 5 45.5q45 68 97.5 148t106.5 165t109.5 171t106.5 165q119 188 240 381q16 16 36.5 15.5t40 -11t35 -23.5t23.5 -22q25 -25 29 -48t0 -42q-6 -23 -21 -39q-57 -70 -106.5 -130t-90.5 -115q20 8 43 2q6 0 31 -21.5t35 -38.5q12 -23 26.5 -52.5 t24.5 -72.5q6 -16 -2 -39q-6 -18 -23.5 -46.5t-56.5 -63.5q-63 -53 -114 -96q-45 -37 -83 -70t-48 -43q-8 -6 -17 -8q-18 -8 -33 4q-12 -27 -16 -44.5t-6 -27.5q-2 -12 0 -22q2 -23 12 -32t23 -9q14 -2 32 6q63 23 115.5 70t92.5 95t63.5 85t29.5 41q10 8 19.5 6t13.5 -6 q2 -2 2 -7v-4q-84 -133 -144.5 -206.5t-106.5 -109.5t-80.5 -43t-65.5 -7q-20 0 -33.5 5t-23.5 11q-10 8 -21 17q-37 47 -44 100q-3 20 -3 40q0 35 8 73q-12 -33 -21 -54.5t-14 -36.5l-8 -24q-2 -10 -8 -24.5t-14 -30t-15.5 -28.5t-11.5 -17q-18 -20 -33 -21q-8 0 -14 2 q-14 6 -40 19.5t-48.5 30t-33.5 38zM211 254q31 25 76 65.5t85 83.5t64 81q17 27 18 46q0 8 -3 15q-98 -98 -154.5 -169t-85.5 -122z" />
<glyph unicode="l" horiz-adv-x="401" d="M-111 142q2 72 32 159.5t79 185t106 193.5q133 223 330 477q14 18 31.5 22.5t34 -0.5t31 -15.5t24.5 -16.5q16 -12 48 -50t50 -124q4 -20 -4 -45q-6 -23 -23.5 -50.5t-54.5 -56.5q-61 -51 -112 -94q-43 -37 -82 -70t-49 -43q-10 -4 -19 -8q-8 -4 -17 -4t-15 8 q-117 -154 -175.5 -251t-80.5 -152q-25 -58 -25 -87v-7q2 -23 12 -32t23 -9q14 -2 33 6q63 23 115 70t91 95t62.5 85t30.5 41q10 8 20 6t14 -6q2 -2 2 -7q0 -2 -2 -4q-84 -133 -144 -206.5t-106.5 -109.5t-81 -43t-63.5 -7q-20 0 -34.5 5t-24.5 11q-12 8 -21 17 q-35 43 -35 109v8zM328 676q33 29 73.5 66.5t75.5 75.5t55.5 73t12.5 55q-63 -78 -116.5 -144.5t-100.5 -125.5z" />
<glyph unicode="m" horiz-adv-x="1021" d="M-114 126v15q0 52 18 114q20 71 58 149.5t85 154.5q106 178 268 383q16 16 37 14t41.5 -11t35.5 -22.5t24 -21.5q25 -25 27.5 -48.5t-1.5 -41.5q-6 -23 -20 -41q-111 -129 -188.5 -224t-131.5 -167q117 113 214.5 206t152.5 152q16 16 32.5 18.5t31 -1.5t26.5 -13.5 t20 -17.5q25 -25 28 -48.5t-1 -41.5q-6 -23 -20 -41q-127 -121 -195 -206t-100 -142q20 18 66 63t103.5 100.5t118 114t110.5 107.5t82 79.5t30 28.5q16 16 32.5 18.5t30.5 -1.5t25.5 -13.5t19.5 -17.5q25 -25 28 -48.5t-1 -41.5q-6 -23 -21 -41q-139 -133 -207.5 -224.5 t-97.5 -148.5q-29 -61 -30 -97q0 -4 1 -9q2 -23 12.5 -32t22.5 -9q14 -2 33 6q63 23 115.5 70t92.5 95t63.5 85t29.5 41q10 8 19.5 6t13.5 -6q2 -2 2 -7v-4q-84 -133 -144.5 -206.5t-106.5 -109.5t-81 -43t-65 -7q-20 0 -33.5 5t-24.5 11q-10 9 -20 17q-41 51 -46 115 q-1 12 -1 23q0 52 18 105l-203 -245q-16 -16 -32.5 -17.5t-32.5 2.5q-18 6 -35 17q-41 51 -46 113q-1 12 -1 26q0 50 16 102l-200 -243q-18 -12 -39 -5q-8 4 -19 13q-37 37 -40 95z" />
<glyph unicode="n" horiz-adv-x="679" d="M-124 126v15q0 52 18 114q20 71 58 149.5t85 154.5q106 178 268 383q16 16 36.5 14t41 -11t36 -22.5t23.5 -21.5q25 -25 28 -48.5t-1 -41.5q-6 -23 -20 -41q-111 -129 -189 -224t-131 -167q51 51 108.5 106.5t106.5 102.5t83 79.5t40 39.5q16 16 20 22t9 8 q16 16 32.5 18.5t31.5 -1.5t26.5 -13.5t19.5 -17.5q25 -25 28 -48.5t-1 -41.5q-6 -23 -21 -41q-139 -133 -207.5 -224.5t-97.5 -148.5q-29 -59 -29 -95q0 -6 1 -11q2 -23 12 -32t22 -9q14 -2 33 6q63 23 115.5 70t91.5 95t62.5 85t29.5 41q10 8 20.5 6t14.5 -6q2 -2 2 -7 q0 -2 -2 -4q-84 -133 -144.5 -206.5t-106.5 -109.5t-81 -43t-63 -7q-20 0 -34.5 5t-25.5 11q-12 8 -20 17q-41 51 -45 113q-1 10 -1 21q0 53 17 109l-203 -245q-10 -8 -20 -7.5t-19 4.5q-8 4 -18 11q-37 37 -40 95z" />
<glyph unicode="o" d="M-113 127q-2 16 -2 32q-1 43 11 89q16 64 48.5 129t71.5 127q92 143 236 299q16 16 32.5 18t32 -2t26.5 -13.5t19 -17.5q25 -25 28 -48t-1 -42q-6 -23 -20 -41q-4 -2 -5.5 -4t-3.5 -4q29 6 57.5 -6t53.5 -47q14 -20 12 -46t-8 -48q-8 -27 -22 -58q-27 -47 -42.5 -74.5 t-24.5 -44t-13 -22.5l-4 -6q-20 -37 -15.5 -48t17.5 -11q14 0 39 14q27 16 53 41.5t63 71.5q14 16 28.5 9t10.5 -16q-61 -92 -109 -132t-83 -50t-55.5 -1t-28.5 15q-53 -72 -94 -111.5t-75 -59t-60.5 -23.5t-51.5 -4q-20 0 -33.5 5t-23.5 11q-10 8 -21 17q-37 45 -43 102z M2 113q2 -23 12.5 -32t22.5 -9q14 -2 33 6q51 23 96 80t80 112q-4 23 -4 48v16q2 33 6 67q4 27 9 54.5t9 50.5q7 24 13 49q2 4 2 9t2 9q-106 -113 -163 -197.5t-83 -144.5q-31 -68 -35 -118zM356 543q10 14 17 24q4 10 6 18.5t-2 10.5q-2 0 -4 -2q-4 -4 -4 -8z" />
<glyph unicode="p" horiz-adv-x="552" d="M-569.5 -426.5q-3.5 23.5 0.5 41.5q6 23 22 41q170 217 278.5 373.5t174.5 261.5q66 100 123 191t102 163q53 82 96 154q16 16 37 14t41.5 -11t35.5 -22.5t24 -21.5q27 -27 29.5 -51.5t-3.5 -42.5q12 10 29.5 17t44.5 3q10 0 25.5 -4t27.5 -12.5t20.5 -22.5t6.5 -37 q-35 -147 -90 -272q-25 -53 -55.5 -106.5t-69.5 -99.5t-87 -80t-104 -48q-20 -8 -38.5 -9t-34.5 -1q-20 0 -35 5t-25 11q-12 8 -20 17q-6 10 -12.5 17t-10.5 17q-37 -53 -67 -98q-55 -96 -108.5 -182t-96.5 -152q-51 -78 -97 -143q-16 -16 -36.5 -14t-40 11t-34.5 22.5 t-24 21.5q-25 25 -28.5 48.5zM59 113q0 -23 11.5 -32t23.5 -9q14 -2 33 6q10 4 20 10q4 4 34 30.5t66 86t68.5 158t44.5 243.5v8q-70 -94 -130 -178t-113 -157q-25 -47 -37 -78t-17 -51q-6 -23 -4 -37z" />
<glyph unicode="q" horiz-adv-x="659" d="M-242 -385q6 23 21 41q88 100 157.5 186t126.5 158q-31 -8 -52 -5t-38 11q-18 8 -30 21q-37 45 -45 99q-2 19 -2 39q0 36 8 73q14 59 43.5 119.5t66.5 115.5q84 129 219 266q16 16 33 18.5t31 -1.5t25.5 -13.5t19.5 -17.5q33 -33 33 -61q0 -29 -13 -52q2 0 3.5 1t3.5 1 q6 2 15 1t23.5 -9t36 -26.5t54.5 -51.5q25 -25 28.5 -48t-0.5 -42q-6 -23 -20 -41q-55 -55 -89 -99t-50 -77q-20 -37 -27 -65q-2 -27 4 -36t16 -11q8 -2 23 4q25 12 52.5 38.5t57 60.5t60 74t59.5 79q10 14 27.5 9t11.5 -16q-100 -154 -169.5 -229.5t-115.5 -104.5 q-40 -24 -64 -24q-5 0 -8 1q-26 5 -36 15q-57 -102 -115.5 -198.5t-107.5 -169.5q-57 -88 -113 -164q-16 -16 -36.5 -14t-40 11t-35 22.5t-23.5 21.5q-25 25 -29 48.5t0 41.5zM14 115q2 -23 11.5 -30t19.5 -5q13 2 29 10q41 41 85 101.5t83 121t67.5 109.5t38.5 65 q4 12 5 28.5t-3 29t-16 14.5t-33 -12q0 -2 -2 -2q-119 -119 -178.5 -201t-81.5 -133q-25 -52 -25 -87v-9z" />
<glyph unicode="r" horiz-adv-x="569" d="M-47 344q16 23 31.5 51.5t38.5 77.5q-10 25 -7.5 49.5t7.5 52.5q4 16 10 43t14 52q8 29 21 59q24 53 62 65q8 3 16 2q30 0 59 -32q23 -23 12.5 -56.5t-20.5 -58.5q-25 -41 -48.5 -76.5t-46.5 -68.5q-2 -2 -2 -4v-2q-2 -23 13 -23q6 0 14 6q23 10 54.5 39t64.5 64 q29 35 53.5 62.5t42.5 47.5q23 23 41 43q16 16 32.5 18.5t32 -1.5t26.5 -13.5t20 -17.5q25 -25 27.5 -48.5t-1.5 -41.5q-6 -23 -20 -41q-139 -133 -208 -224.5t-97 -148.5q-29 -61 -30 -97q0 -4 1 -9q2 -23 12 -32t23 -9q14 -2 32 6q63 23 115.5 70t91.5 95t62.5 85t29.5 41 q10 8 20.5 6t14.5 -6q2 -2 2 -7q0 -2 -2 -4q-84 -133 -144.5 -206.5t-106.5 -109.5t-80.5 -43t-63.5 -7q-20 0 -33.5 5t-23.5 11q-10 8 -21 17q-37 45 -45 99q-3 19 -3 39q0 35 10 73q14 58 42.5 118t65.5 115q-49 -39 -76 -42t-37 1q-23 -31 -33 -47t-15 -25.5t-10 -17.5 t-18 -25q-6 0 -18 9.5t-4 21.5zM133 621q16 23 27 41q10 16 13 29.5t-5 17.5q-4 -2 -6 -4q-4 -2 -8 -13z" />
<glyph unicode="s" horiz-adv-x="346" d="M-139 162q4 18 17 36.5t40 35t71 27.5t111 13q10 48 14 110q2 27 2 57q0 41 -3 89q-27 -39 -41.5 -59t-23.5 -35.5t-19.5 -31t-28.5 -44.5q-4 -8 -16.5 -15t-21.5 -9t-13 3t8 21q41 57 81 124t68 108q-2 25 -4 42t-6 46q2 23 13 41q10 16 30.5 28.5t57.5 8.5 q12 0 28.5 -3t30.5 -11.5t25.5 -22.5t11.5 -37q1 -22 0 -44q0 -45 -2 -91q-4 -59 -12.5 -133t-28.5 -146h39q18 -2 36.5 -9t22.5 -14t-12 -13q-12 -4 -43 -4q-11 0 -25 1h-30q-16 -47 -38 -88t-52 -71q-29 -32 -67 -50q-34 -17 -78 -16h-9q-10 0 -25 4l-28.5 9.5t-32.5 17.5 q-22 14 -40 49q-11 21 -11 45q0 15 4 31zM-16 158q2 -8 10 -16.5t37 -12.5q12 14 27.5 36.5t27.5 57.5q-70 -14 -96 -45q-8 -12 -6 -20z" />
<glyph unicode="t" horiz-adv-x="411" d="M-95 180q15 98 65 216t123 242t145 230q-59 0 -109.5 -1t-89.5 -1h-82q-12 2 -17.5 12.5t-6.5 22.5t1.5 22.5t2.5 16.5q4 18 13 26.5t19 12.5t25 2q98 -4 175 -7t138 -7q29 43 55.5 77.5t45.5 59.5q23 29 41 53q12 18 28.5 22.5t32.5 0.5t29.5 -12.5t23.5 -14.5 q37 -25 48.5 -51.5t9.5 -48.5q-2 -25 -15 -49q-10 -12 -21.5 -24.5t-21.5 -27.5h6q10 4 32 6.5t30 -0.5q12 -2 18 -8q2 -4 2 -6q4 -6 5 -20.5t-2 -27.5t-12 -22.5t-26 -9.5q-29 0 -59.5 1t-64.5 1q-98 -119 -170 -214t-124.5 -170.5t-86 -132t-54.5 -97.5q-47 -94 -47 -136 q0 -25 12 -35q10 -9 23 -9q14 -2 33 6q63 23 115.5 70t91.5 95t62.5 85t29.5 41q10 8 20.5 6t14.5 -6q2 -2 2 -7q0 -2 -2 -4q-84 -133 -144.5 -206.5t-106.5 -109.5t-81 -43t-64 -7q-20 0 -34.5 5t-24.5 11q-12 8 -20 17q-36 43 -36 110q0 21 4 45z" />
<glyph unicode="u" horiz-adv-x="757" d="M-115 140q-2 15 -2 31q1 43 13 89q16 64 50 129.5t74 126.5q96 143 242 299q16 16 32.5 18.5t32 -2t27 -13.5t19.5 -17q25 -25 27.5 -48.5t-1.5 -41.5q-6 -23 -20 -41q-141 -133 -216 -234.5t-112 -171.5q-43 -82 -51 -139q2 -23 12.5 -31t22.5 -8q14 0 33 6 q53 18 104 64.5t96 99.5q25 78 69 154.5t89 138.5q53 72 111 139q16 16 32.5 19.5t30.5 -2t25.5 -14.5t19.5 -17q25 -25 28 -48.5t-1 -41.5q-6 -23 -21 -39q-123 -121 -183 -203t-85 -133q-27 -55 -27 -91q0 -26 12 -37q10 -9 23 -9q14 -2 33 6q63 23 115.5 70t92.5 95 t63.5 85t29.5 41q10 8 19.5 6t13.5 -6q2 -2 2 -7q0 -2 -2 -4q-82 -133 -143.5 -206.5t-107.5 -109.5t-80 -43t-65 -7q-20 0 -33.5 5t-23.5 11q-10 8 -20 17q-37 47 -37 110q0 14 2 29q-45 -53 -81 -85t-65.5 -48.5t-53 -20.5t-44.5 -4q-20 0 -33.5 5t-23.5 12q-10 8 -21 16 q-37 45 -43 101z" />
<glyph unicode="v" horiz-adv-x="530" d="M-117 127q-3 20 -3 40q0 35 10 73q14 58 43.5 118t66.5 115q86 129 219 266q16 16 32.5 18.5t31 -1.5t25.5 -13.5t20 -17.5q25 -25 27.5 -48.5t-1.5 -41.5q-6 -23 -20 -41q-139 -133 -208 -224t-97 -149q-29 -61 -30 -97q0 -4 1 -9q2 -23 12.5 -32t22.5 -9q14 -2 33 6 q16 6 32.5 14t32.5 21q35 25 69 57.5t62.5 67t54 68.5t46.5 63q14 23 28.5 50.5t30.5 55.5q-14 27 -12 56.5t6 64.5q4 23 10 50.5t14 49.5q8 27 21 54q25 53 63 64q8 2 15 2q29 0 59 -32q16 -18 6 -57t-28.5 -79t-38 -70.5t-21.5 -32.5q-6 -10 -10 -19.5t-12 -19.5 q2 -10 14 -10q6 0 12 4q31 14 57.5 37.5t46 46t33 39t17.5 14.5q2 -2 9 -5t-3 -16q-57 -74 -95 -110.5t-62.5 -51t-40 -13.5t-27.5 3q-12 -18 -28.5 -43.5t-32 -50t-30 -44t-20.5 -27.5q-70 -98 -122 -154.5t-92 -86.5t-69.5 -38t-56.5 -8q-20 0 -33.5 5t-23.5 11 q-10 8 -21 17q-37 45 -45 100zM524 643q16 23 27 41q10 16 13 29.5t-5 15.5l-4 -4q-2 -2 -5 -4t-5 -6z" />
<glyph unicode="w" horiz-adv-x="743" d="M-211 23.5q-2 23.5 14 48.5q84 131 153 277.5t122 271.5q59 145 110 286q16 16 37 15.5t41.5 -11t35.5 -24t24 -21.5q25 -25 27.5 -48t-1.5 -42q-6 -23 -20 -39q-70 -98 -112 -177t-85 -144q61 59 117.5 113.5t87.5 84.5q39 45 68 74q14 16 28 29q16 16 32.5 18t31 -2 t26 -13t19.5 -18q25 -25 27.5 -48t-1.5 -42q-6 -23 -20 -41q-139 -133 -208 -223t-97 -147q-29 -61 -29 -100v-9q2 -23 12.5 -30t22.5 -9q14 -2 33 4q16 6 33.5 15.5t33.5 21.5q45 31 87 76t77 90q18 25 34.5 47.5t31.5 42.5q14 23 28.5 49.5t30.5 55.5q-14 27 -12 56.5 t6 63.5q4 23 10 50.5t14 50.5q8 27 21 53q24 53 62 65q8 3 16 2q30 0 59 -32q20 -23 11 -56.5t-23 -58.5q-18 -35 -35.5 -65.5t-34.5 -59.5q-4 -10 -10 -19t-12 -20q2 -12 14 -8l12 4q31 14 71 53t76 80t61.5 73t29.5 30q2 -2 5 -4t1 -6q-6 -10 -14 -21.5t-17 -21.5 q-8 -12 -20 -25q-57 -74 -100.5 -118t-74 -65.5t-51 -27.5t-32.5 -4q-12 -18 -20.5 -30.5t-14.5 -22.5q-18 -33 -36.5 -58.5t-39.5 -54.5q-70 -98 -122 -154.5t-92 -86t-69.5 -37t-56.5 -7.5q-20 0 -33.5 5.5t-23.5 11.5q-10 8 -21 16q-41 50 -46 112q-1 12 -1 24 q0 51 17 104l-181 -264q-12 -18 -20 -27q-6 -6 -18.5 -14.5t-24.5 -3.5q-18 2 -36.5 14t-31 30.5t-14.5 42zM741 621q16 23 27 41q10 16 13 29.5t-5 17.5q-4 -2 -6 -4q-4 -2 -8 -13z" />
<glyph unicode="x" horiz-adv-x="563" d="M-133 127q6 18 20.5 23.5t30.5 -13.5q8 -18 21 -28q10 -10 24 -12.5t33 12.5q39 18 65 71q23 45 41 127q11 52 11 128q0 43 -4 95q-2 20 -2.5 28.5t-2.5 19.5q-4 25 -7 49t-7 53q4 23 14 41q10 16 30 28.5t59 8.5q12 0 27.5 -3t30.5 -11.5t26.5 -22.5t11.5 -37v-76 q41 61 81 113.5t72 93.5q37 45 72 84q16 16 32.5 18.5t31 -2t25.5 -13.5t20 -17q25 -25 27.5 -48.5t-1.5 -41.5q-6 -23 -20 -41q-139 -133 -223 -249t-130 -202q-53 -100 -73 -186q-10 -41 -1 -59.5t25 -22.5q18 -6 45 0q63 23 122 85t106 128.5t77.5 118t36.5 49.5 q18 -6 19 -17q0 -6 -4 -10q-92 -143 -157.5 -230t-114 -134.5t-82 -61.5t-64.5 -14q-20 0 -35.5 9t-28.5 19q-14 12 -24 29q-10 14 -21 33q-25 -16 -52 -24.5t-62 -8.5q-12 -2 -27 2q-12 4 -27.5 9.5t-31.5 19.5q-27 20 -34 46t-1 44z" />
<glyph unicode="y" horiz-adv-x="788" d="M-250 -414q-4 20 4 43q6 20 22.5 45t51.5 52q57 49 104 90q41 35 77 65.5t46 40.5l13 6q4 2 11 4t13 0q39 55 70 104.5t57 94.5q-72 -82 -119 -103q-43 -20 -78 -20h-6q-35 0 -55 15q-10 8 -18 16q-35 43 -40 96q-1 13 -1 27q0 41 11 86q15 59 47 120.5t71 118.5 q90 135 227 281q14 14 29.5 17t29 -1t24.5 -13t19 -15q23 -23 27 -45.5t0 -38.5q-6 -20 -20 -39q-131 -125 -203 -220.5t-107 -160.5q-39 -76 -47 -131q2 -23 12.5 -30t22.5 -7q14 0 31 6q49 16 98 60.5t91 95.5t75 97t49 69q35 57 75 109t75 91q39 45 77 84q21 19 40 19 q10 0 20 -5q29 -14 43 -28q23 -23 27 -45.5t-1 -38.5q-6 -20 -20 -39q-131 -125 -195.5 -211t-91.5 -139q-27 -54 -27 -89q0 -6 1 -11q0 -23 10 -31t22 -8q14 -2 31 6q57 20 107.5 65t87.5 90t59.5 80t26.5 39q10 6 19 4t13 -4v-6v-4q-78 -125 -135 -194.5t-100 -103.5 t-76 -40t-59 -6q-20 0 -33.5 5t-24.5 11q-10 8 -18 15l-8 12t-8 14q-68 -111 -136.5 -224.5t-121.5 -209.5q-63 -113 -121 -217q-16 -16 -33.5 -17t-35 7t-33 21.5t-25.5 25.5q-8 10 -20.5 30.5t-22.5 42t-18.5 42t-8.5 32.5zM-145 -387q47 59 89 113.5t79 107.5 q-31 -29 -63 -59.5t-58.5 -61t-39.5 -57.5t-7 -43z" />
<glyph unicode="z" horiz-adv-x="575" d="M-506 -444q-4 23 4 47q6 23 22.5 48t55.5 54q59 51 113 94q43 37 83 71t50 44l12 6q4 2 11.5 4t13.5 0q100 145 162.5 254t97.5 166q23 37 45 79t51 77q-35 -29 -62.5 -42.5t-47 -18.5t-32 -6t-18.5 -7q-23 -25 -43 -53q-10 -14 -20 -29q-6 -10 -10.5 -15t-8.5 -10l-6 -6 q-10 0 -18 10.5t0 22.5q16 23 34.5 52.5t39.5 60.5q-14 27 -12.5 55.5t7.5 60.5q4 16 10.5 43t16.5 52q8 29 23 59q28 53 70 65q9 3 19 2q32 0 64 -32q14 -14 13 -34.5t-9 -42t-18 -39t-17 -23.5q-23 -33 -43 -63t-38 -56l-3 -6q0 -2 -2 -2q-2 -23 15 -23q8 0 16 6 q20 8 47 27.5t54.5 45.5t53 52.5t48.5 50.5q16 18 30.5 33t24.5 25q10 12 21 22q16 16 32.5 18.5t31 -1.5t26.5 -13.5t20 -17.5q25 -25 28 -48.5t-1 -41.5q-6 -23 -21 -41q-139 -133 -208.5 -224.5t-96.5 -148.5q-29 -59 -29 -95q0 -6 1 -11q0 -23 11 -32t23 -9q14 -2 33 6 q61 23 114.5 70t92.5 95t62.5 85t29.5 41q10 8 20.5 6t14.5 -6v-7v-4q-84 -133 -144.5 -206.5t-106.5 -109.5t-81 -43t-63 -7q-20 0 -34.5 5t-25.5 11q-12 8 -20 17q-12 16 -17 24q-72 -117 -143.5 -236.5t-128.5 -222.5q-68 -119 -129 -231q-16 -16 -36.5 -14t-40 11 t-35 22.5t-23.5 21.5q-4 2 -14.5 14.5t-22.5 31.5t-23.5 47t-15.5 63zM-395 -416q51 61 96 120.5t86 115.5q-33 -29 -67.5 -62.5t-62.5 -66.5t-43 -61t-9 -46zM137 621q18 23 29 41q10 16 15 29.5t-5 17.5q-4 -2 -6 -4q-4 -2 -8 -13z" />
<glyph unicode="&#xa8;" horiz-adv-x="530" d="M164 867.5q-2 17.5 1 39t10 43t13 35.5q12 29 38 40t48 1q25 -10 32 -36.5t-5 -55.5q-6 -14 -21.5 -31.5t-34 -32t-37 -22.5t-30.5 -2q-12 4 -14 21.5zM339 867.5q-1 17.5 2 39t10 43t14 35.5q12 29 37.5 40t48.5 1q25 -10 31.5 -36.5t-5.5 -55.5q-6 -14 -21.5 -31.5 t-35 -32t-37.5 -22.5t-31 -2q-12 4 -13 21.5z" />
<glyph unicode="&#xad;" horiz-adv-x="933" d="M273.5 415.5q-1.5 12.5 0.5 22.5q2 16 8.5 24.5t10.5 12.5q6 4 12 2q57 -6 91 -9t71 -2t90 7t150 16q12 -4 12 -30.5v-36.5q-6 -31 -19 -37q-8 -4 -14 -2q-78 16 -132 19.5t-95 0.5q-16 -2 -45 -2h-58q-35 0 -71 -2q-10 4 -11.5 16.5z" />
<glyph unicode="&#xb4;" horiz-adv-x="563" d="M195 893q-4 10 2 18q4 4 13 7.5t23 -7.5q27 -4 64 4q31 6 72 26t94 65q10 6 18 8q20 4 39 -17q2 -4 10.5 -14t15.5 -21.5t9 -23.5t-6 -18q-63 -35 -127 -54q-53 -16 -113.5 -16t-107.5 37q-4 2 -6 6z" />
<glyph unicode="&#xb8;" horiz-adv-x="139" d="M-199 -51q-4 16 2.5 29.5t20.5 17.5q14 2 32.5 -8.5t10.5 -24.5q-10 -14 -12 -28.5t0 -24.5q10 6 28.5 28.5t34.5 69.5q0 12 12.5 16.5t24.5 1.5t20.5 -11.5t4.5 -20.5q-6 -12 -20.5 -31.5t-35 -37t-43 -30t-45.5 -10.5q-23 4 -27 26.5t-8 37.5z" />
<glyph unicode="&#xbc;" horiz-adv-x="1329" d="M202 85q-3 19 1 36q6 18 19 35q150 195 244 327.5t151 225.5q6 12 16.5 27.5t20.5 31.5t22 35q47 72 87 135t69 111q35 53 63 100q14 14 25.5 15t21 -3t16.5 -12t13 -14q23 -23 26 -42.5t-1 -35.5q-6 -18 -19 -35q-139 -193 -240.5 -333t-172.5 -245 q-47 -84 -93.5 -158.5t-82.5 -131.5q-43 -68 -84 -125q-14 -14 -24.5 -16.5t-20 2.5t-17.5 13.5t-14 14.5q-23 23 -26 42zM333 1028q1 17 7.5 31.5t14 25t7.5 9.5q38 40 75 72t72 59t68 49.5t63 42.5l15 10l4 2q3 1 1.5 0.5t-2 -0.5t3.5 1t18 5q3 0 11 -2q14 -4 21.5 -16 t5.5 -14q2 -24 -1.5 -33t-5.5 -19q-7 -18 -14.5 -32.5t-14.5 -29.5q-15 -27 -27.5 -52.5t-25.5 -48.5q-13 -24 -34 -62.5t-44 -83t-45 -90t-39.5 -82t-27.5 -60t-8 -23.5q-10 -19 -22.5 -18.5t-21.5 6.5q-14 10 -17 26.5t-0.5 31t7.5 24.5l4 10q34 67 61.5 116.5t51.5 91 t46 79.5t43 81q9 17 18.5 35.5t19.5 39.5q-48 -40 -102 -93t-99 -125q-9 -12 -20 -13.5t-21.5 2t-19 8.5t-12.5 8q-15 14 -14 31zM672.5 170.5q-0.5 7.5 0 14t1.5 9.5q2 7 5.5 13t7.5 10q17 31 38 65t44 68.5t46.5 68.5t45.5 65q52 73 107 146q8 6 17.5 4.5t18 -7t15 -12.5 t8.5 -10q11 -14 11.5 -25t-3.5 -18q-4 -11 -12 -16q-33 -33 -69 -76t-70.5 -87t-65 -86t-50.5 -71q40 -3 70 -6q7 13 14 22t12 17q6 8 9 13q8 7 17.5 5t17.5 -7.5t15 -12.5t9 -10q11 -13 11 -24t-4 -19q1 0 1.5 -0.5t1.5 -0.5h1q4 2 13.5 2.5t12.5 -0.5q7 0 10 -4q1 -2 1 -3 q1 -3 1.5 -11t-1 -16t-6 -14.5t-10.5 -6.5q-17 1 -35 1h-37q-23 -24 -36.5 -40.5t-22.5 -31t-17.5 -29t-21.5 -34.5q-9 -15 -23.5 -20.5t-27.5 -5t-21 6t-4 12.5q21 42 40.5 77t37.5 65q-24 -1 -44.5 -1h-36.5q-17 0 -32 -1q-6 1 -8 7.5t-2.5 14z" />
<glyph unicode="&#xbd;" horiz-adv-x="1329" d="M202 85q-3 19 1 36q6 18 19 35q150 195 244 327.5t151 225.5q6 12 16.5 27.5t20.5 31.5t22 35q47 72 87 135t69 111q35 53 63 100q14 14 25.5 15t21 -3t16.5 -12t13 -14q23 -23 26 -42.5t-1 -35.5q-6 -18 -19 -35q-139 -193 -240.5 -333t-172.5 -245 q-47 -84 -93.5 -158.5t-82.5 -131.5q-43 -68 -84 -125q-14 -14 -24.5 -16.5t-20 2.5t-17.5 13.5t-14 14.5q-23 23 -26 42zM333 1028q1 17 7.5 31.5t14 25t7.5 9.5q38 40 75 72t72 59t68 49.5t63 42.5l15 10l4 2q3 1 1.5 0.5t-2 -0.5t3.5 1t18 5q3 0 11 -2q14 -4 21.5 -16 t5.5 -14q2 -24 -1.5 -33t-5.5 -19q-7 -18 -14.5 -32.5t-14.5 -29.5q-15 -27 -27.5 -52.5t-25.5 -48.5q-13 -24 -34 -62.5t-44 -83t-45 -90t-39.5 -82t-27.5 -60t-8 -23.5q-10 -19 -22.5 -18.5t-21.5 6.5q-14 10 -17 26.5t-0.5 31t7.5 24.5l4 10q34 67 61.5 116.5t51.5 91 t46 79.5t43 81q9 17 18.5 35.5t19.5 39.5q-48 -40 -102 -93t-99 -125q-9 -12 -20 -13.5t-21.5 2t-19 8.5t-12.5 8q-15 14 -14 31zM680 32v2v2q-1 12 2.5 23t9.5 19q5 11 13 20q100 93 159 166t90 127t40.5 89.5t10.5 52.5q-4 2 -15 4t-33 -4.5t-58 -24.5t-90 -55 q-8 -5 -16 -6t-16 1.5t-16 12.5q-2 3 -5.5 12t-6.5 20t-1.5 21t7.5 15q60 32 115 53q23 8 47 15.5t46.5 10.5t42 0.5t33.5 -12.5q2 -2 3 -2.5t2 -1.5l2 -1q22 -25 21 -63t-17.5 -84t-45 -96.5t-60.5 -99.5t-65.5 -93t-60.5 -77q36 0 60 2t38 3q18 3 27 6q9 -3 13 -11 t4.5 -17t-1 -17.5t-2.5 -12.5q-3 -14 -10.5 -20.5t-14.5 -8.5q-10 -3 -19 -1q-7 0 -25 0.5t-41 1t-48.5 1t-46.5 1t-35.5 0.5t-16.5 1h-2q-6 2 -8 5q-5 2 -7 5q-1 2 0 3q-1 2 -2 5t-1 8z" />
<glyph unicode="&#xbe;" horiz-adv-x="1210" d="M202 85q-3 19 1 36q6 18 19 35q150 195 244 327.5t151 225.5q6 12 16.5 27.5t20.5 31.5t22 35q47 72 87 135t69 111q35 53 63 100q14 14 25.5 15t21 -3t16.5 -12t13 -14q23 -23 26 -42.5t-1 -35.5q-6 -18 -19 -35q-139 -193 -240.5 -333t-172.5 -245 q-47 -84 -93.5 -158.5t-82.5 -131.5q-43 -68 -84 -125q-14 -14 -24.5 -16.5t-20 2.5t-17.5 13.5t-14 14.5q-23 23 -26 42zM236 791q0 18 2 36q1 5 7 8.5t12 4.5t12.5 1h8.5q14 -3 17 -13q2 -4 2 -11q-11 -36 -10.5 -57.5t5.5 -31.5q6 -13 18 -17q1 -1 1 -2q10 -5 21 -7t18 0 q21 3 40 11.5t34 17.5q17 11 31 25q32 29 50 63.5t19.5 63t-14.5 47t-51 16.5q-7 -2 -14.5 -2.5t-15.5 -2.5q-8 -1 -15 1q-6 2 -12.5 7t-7.5 17q-1 2 1.5 11.5t8 18.5t12.5 17t14 10h8q4 0 9.5 -0.5t11.5 -0.5q34 3 62 -2q45 47 72 84t41 65q18 31 23 54q5 17 0 25t-15 9 q-22 -1 -53 -9q-22 -7 -50.5 -17.5t-65.5 -28.5q-9 -4 -18 -3q-7 0 -14.5 4.5t-12.5 16.5q-2 3 -5 13t-3 20.5t2.5 20.5t9.5 15q50 17 98 28q40 9 85 13.5t79 -5.5q11 -2 18 -5t12 -6l8 -8q17 -26 11 -63.5t-28 -79.5t-55.5 -88t-71.5 -89q18 -20 24 -45.5t5 -47.5 q-1 -26 -9 -52q-8 -40 -31 -67.5t-48 -46.5q-29 -23 -63 -37q-55 -27 -93.5 -30t-63.5 4q-29 7 -49 26q-12 14 -17 34q-5 16 -6 34t-1 33zM609.5 170.5q-0.5 7.5 0 14t1.5 9.5q2 7 5.5 13t7.5 10q17 31 38 65t44 68.5t46.5 68.5t45.5 65q52 73 107 146q8 6 17.5 4.5t18 -7 t15 -12.5t8.5 -10q11 -14 11.5 -25t-3.5 -18q-4 -11 -12 -16q-33 -33 -69 -76t-70.5 -87t-65 -86t-50.5 -71q40 -3 70 -6q7 13 14 22t12 17q6 8 9 13q8 7 17.5 5t17.5 -7.5t15 -12.5t9 -10q11 -13 11 -24t-4 -19q1 0 1.5 -0.5t1.5 -0.5h1q4 2 13.5 2.5t12.5 -0.5q7 0 10 -4 q1 -2 1 -3q1 -3 1.5 -11t-1 -16t-6 -14.5t-10.5 -6.5q-17 1 -35 1h-37q-23 -24 -36.5 -40.5t-22.5 -31t-17.5 -29t-21.5 -34.5q-9 -15 -23.5 -20.5t-27.5 -5t-21 6t-4 12.5q21 42 40.5 77t37.5 65q-24 -1 -44.5 -1h-36.5q-17 0 -32 -1q-6 1 -8 7.5t-2.5 14z" />
<glyph unicode="&#xbf;" horiz-adv-x="970" d="M82 215q-4 39 1 74.5t13 62.5q18 59 63.5 111.5t90.5 81.5q29 23 73 54.5t93 70.5t100 82t94 86q51 51 66.5 84.5t13.5 55t-14 31t-14 13.5q-20 23 -11.5 45.5t25.5 38.5q31 29 58.5 19.5t51 -33t38 -51t16.5 -35.5q14 -49 2.5 -90.5t-33 -74t-49 -57t-47.5 -43.5 q-47 -41 -99.5 -79.5t-106.5 -76.5t-107.5 -78t-100.5 -83q-20 -14 -39.5 -51t-29 -79t-4.5 -81t34 -57q31 -25 84 -23t100.5 34t74 96.5t5.5 164.5q2 29 18.5 43t38 20.5t43 5.5t31.5 -3q35 -6 52.5 -31t24.5 -52.5t6 -50.5l-1 -22q-6 -82 -39.5 -146.5t-86 -109.5 t-116 -69.5t-127 -27.5t-121 15t-95.5 59q-33 37 -49.5 77t-20.5 79zM727 1252.5q0 23.5 5 45t11 35.5q14 29 49 35t74 -10q37 -16 54.5 -47t5.5 -60q-6 -14 -25.5 -29.5t-45.5 -27.5t-51.5 -16t-43.5 4t-25.5 27.5t-7.5 43z" />
<glyph unicode="&#xc0;" horiz-adv-x="886" d="M8 342v18.5t2 12.5q2 23 12.5 36t22.5 19t22.5 8t16.5 2h4q45 2 84 3t76 3l69 2q-14 2 -24 9q-10 4 -15.5 10t-1.5 16q66 98 129.5 198.5t120.5 192.5q55 88 101.5 166t80 135.5t54.5 90.5l20 34q16 16 41 17q33 0 62.5 -22.5t42.5 -35.5q33 -33 33 -71 q0 -29 -12.5 -47.5t-14.5 -20.5q-86 -102 -154.5 -188t-124 -161t-99.5 -140.5t-81 -122.5q-8 -10 -16 -23.5t-19 -29.5q78 4 126 6t77 6q39 119 91 236.5t98.5 212t79.5 153.5l32 59q12 23 37 23q31 0 60.5 -25.5t41.5 -38.5q33 -33 33 -71q0 -16 -4 -27.5t-8 -21.5 q-6 -10 -12 -19q-106 -137 -175 -254t-110 -215q8 -6 8 -14q4 -8 4 -37q0 -23 -8 -49.5t-41 -30.5h-14q-31 -96 -37 -155.5t-6 -75.5v-9v-28q0 -14 -1 -26.5t-10 -22.5q-16 -20 -38.5 -24.5t-28.5 -4.5h-2h-2q-16 4 -22.5 16.5t-12.5 22.5q-20 43 -21 111q0 41 8.5 87 t20.5 97q-66 -6 -132 -12.5t-126 -14.5q-35 -53 -68.5 -104t-61.5 -93t-45 -68l-17 -26q-14 -16 -35 -16q-16 0 -30.5 9t-25.5 20q-18 18 -25 36.5t-7 34.5t4 27.5t8 22.5q6 10 12 18q12 16 24.5 32.5t24.5 32.5v-2q12 18 27.5 29.5t30.5 18.5q16 8 33 10l-56 -8 q-20 -4 -36.5 -5.5t-26.5 -3.5q-12 -2 -23 -4h-2q-29 4 -37 29t-6 45zM850 1466q2 12 9.5 23.5t14.5 21.5t11 14q10 12 20.5 15.5t18.5 1.5t18 -8q51 -45 93 -64.5t73 -26.5q37 -8 64 -4q14 10 23 7t14 -7q6 -8 2 -18q-2 -4 -7 -6q-47 -37 -107.5 -37t-113.5 16 q-64 19 -127 54q-8 6 -6 18z" />
<glyph unicode="&#xc1;" horiz-adv-x="886" d="M8 342v18.5t2 12.5q2 23 12.5 36t22.5 19t22.5 8t16.5 2h4q45 2 84 3t76 3l69 2q-14 2 -24 9q-10 4 -15.5 10t-1.5 16q66 98 129.5 198.5t120.5 192.5q55 88 101.5 166t80 135.5t54.5 90.5l20 34q16 16 41 17q33 0 62.5 -22.5t42.5 -35.5q33 -33 33 -71 q0 -29 -12.5 -47.5t-14.5 -20.5q-86 -102 -154.5 -188t-124 -161t-99.5 -140.5t-81 -122.5q-8 -10 -16 -23.5t-19 -29.5q78 4 126 6t77 6q39 119 91 236.5t98.5 212t79.5 153.5l32 59q12 23 37 23q31 0 60.5 -25.5t41.5 -38.5q33 -33 33 -71q0 -16 -4 -27.5t-8 -21.5 q-6 -10 -12 -19q-106 -137 -175 -254t-110 -215q8 -6 8 -14q4 -8 4 -37q0 -23 -8 -49.5t-41 -30.5h-14q-31 -96 -37 -155.5t-6 -75.5v-9v-28q0 -14 -1 -26.5t-10 -22.5q-16 -20 -38.5 -24.5t-28.5 -4.5h-2h-2q-16 4 -22.5 16.5t-12.5 22.5q-20 43 -21 111q0 41 8.5 87 t20.5 97q-66 -6 -132 -12.5t-126 -14.5q-35 -53 -68.5 -104t-61.5 -93t-45 -68l-17 -26q-14 -16 -35 -16q-16 0 -30.5 9t-25.5 20q-18 18 -25 36.5t-7 34.5t4 27.5t8 22.5q6 10 12 18q12 16 24.5 32.5t24.5 32.5v-2q12 18 27.5 29.5t30.5 18.5q16 8 33 10l-56 -8 q-20 -4 -36.5 -5.5t-26.5 -3.5q-12 -2 -23 -4h-2q-29 4 -37 29t-6 45zM834 1419q-4 10 2 18q4 4 13 7.5t23 -7.5q27 -4 64 4q31 6 72 26t94 65q10 6 18 8q20 4 39 -17q2 -4 10.5 -14t15.5 -21.5t9 -23.5t-6 -18q-63 -35 -127 -54q-53 -16 -113.5 -16t-107.5 37q-4 2 -6 6z " />
<glyph unicode="&#xc2;" horiz-adv-x="886" d="M8 342v18.5t2 12.5q2 23 12.5 36t22.5 19t22.5 8t16.5 2h4q45 2 84 3t76 3l69 2q-14 2 -24 9q-10 4 -15.5 10t-1.5 16q66 98 129.5 198.5t120.5 192.5q55 88 101.5 166t80 135.5t54.5 90.5l20 34q16 16 41 17q33 0 62.5 -22.5t42.5 -35.5q33 -33 33 -71 q0 -29 -12.5 -47.5t-14.5 -20.5q-86 -102 -154.5 -188t-124 -161t-99.5 -140.5t-81 -122.5q-8 -10 -16 -23.5t-19 -29.5q78 4 126 6t77 6q39 119 91 236.5t98.5 212t79.5 153.5l32 59q12 23 37 23q31 0 60.5 -25.5t41.5 -38.5q33 -33 33 -71q0 -16 -4 -27.5t-8 -21.5 q-6 -10 -12 -19q-106 -137 -175 -254t-110 -215q8 -6 8 -14q4 -8 4 -37q0 -23 -8 -49.5t-41 -30.5h-14q-31 -96 -37 -155.5t-6 -75.5v-9v-28q0 -14 -1 -26.5t-10 -22.5q-16 -20 -38.5 -24.5t-28.5 -4.5h-2h-2q-16 4 -22.5 16.5t-12.5 22.5q-20 43 -21 111q0 41 8.5 87 t20.5 97q-66 -6 -132 -12.5t-126 -14.5q-35 -53 -68.5 -104t-61.5 -93t-45 -68l-17 -26q-14 -16 -35 -16q-16 0 -30.5 9t-25.5 20q-18 18 -25 36.5t-7 34.5t4 27.5t8 22.5q6 10 12 18q12 16 24.5 32.5t24.5 32.5v-2q12 18 27.5 29.5t30.5 18.5q16 8 33 10l-56 -8 q-20 -4 -36.5 -5.5t-26.5 -3.5q-12 -2 -23 -4h-2q-29 4 -37 29t-6 45zM867 1483q0 8 10 16q4 4 11 4t12 -16q12 -10 34 -12q18 -2 47 3t70 23q6 4 12 10q18 12 31 4q10 4 14 -22q2 -4 1 -8t1 -8q14 -45 31 -69t31 -36q16 -14 33 -18q12 6 17 1t5 -10q0 -14 -6 -16 q-4 -2 -6 -4q-29 -14 -54.5 -11t-47 16t-40 33.5t-30.5 39.5q-23 -4 -49.5 -4t-51 7t-44 22.5t-29.5 46.5q-2 4 -2 8z" />
<glyph unicode="&#xc3;" horiz-adv-x="886" d="M8 342v18.5t2 12.5q2 23 12.5 36t22.5 19t22.5 8t16.5 2h4q45 2 84 3t76 3l69 2q-14 2 -24 9q-10 4 -15.5 10t-1.5 16q66 98 129.5 198.5t120.5 192.5q55 88 101.5 166t80 135.5t54.5 90.5l20 34q16 16 41 17q33 0 62.5 -22.5t42.5 -35.5q33 -33 33 -71 q0 -29 -12.5 -47.5t-14.5 -20.5q-86 -102 -154.5 -188t-124 -161t-99.5 -140.5t-81 -122.5q-8 -10 -16 -23.5t-19 -29.5q78 4 126 6t77 6q39 119 91 236.5t98.5 212t79.5 153.5l32 59q12 23 37 23q31 0 60.5 -25.5t41.5 -38.5q33 -33 33 -71q0 -16 -4 -27.5t-8 -21.5 q-6 -10 -12 -19q-106 -137 -175 -254t-110 -215q8 -6 8 -14q4 -8 4 -37q0 -23 -8 -49.5t-41 -30.5h-14q-31 -96 -37 -155.5t-6 -75.5v-9v-28q0 -14 -1 -26.5t-10 -22.5q-16 -20 -38.5 -24.5t-28.5 -4.5h-2h-2q-16 4 -22.5 16.5t-12.5 22.5q-20 43 -21 111q0 41 8.5 87 t20.5 97q-66 -6 -132 -12.5t-126 -14.5q-35 -53 -68.5 -104t-61.5 -93t-45 -68l-17 -26q-14 -16 -35 -16q-16 0 -30.5 9t-25.5 20q-18 18 -25 36.5t-7 34.5t4 27.5t8 22.5q6 10 12 18q12 16 24.5 32.5t24.5 32.5v-2q12 18 27.5 29.5t30.5 18.5q16 8 33 10l-56 -8 q-20 -4 -36.5 -5.5t-26.5 -3.5q-12 -2 -23 -4h-2q-29 4 -37 29t-6 45zM891 1458q-4 10 0 19q2 4 4 6q25 29 50.5 36t48 1t41 -18.5t28.5 -22.5h2q2 -4 4 -6l4 -4q23 -23 41 -36.5t31 -21.5q14 -8 26 -12q10 10 14.5 9t4.5 -5q2 -10 -2 -18q-2 -4 -4 -7q-25 -29 -49.5 -36 t-47 -0.5t-41 18.5t-28.5 22q-2 0 -2 3l-2 2l-9 8q-23 27 -40 40t-29 19q-14 8 -27 8q-10 -10 -14 -9t-4 5z" />
<glyph unicode="&#xc4;" horiz-adv-x="886" d="M8 342v18.5t2 12.5q2 23 12.5 36t22.5 19t22.5 8t16.5 2h4q45 2 84 3t76 3l69 2q-14 2 -24 9q-10 4 -15.5 10t-1.5 16q66 98 129.5 198.5t120.5 192.5q55 88 101.5 166t80 135.5t54.5 90.5l20 34q16 16 41 17q33 0 62.5 -22.5t42.5 -35.5q33 -33 33 -71 q0 -29 -12.5 -47.5t-14.5 -20.5q-86 -102 -154.5 -188t-124 -161t-99.5 -140.5t-81 -122.5q-8 -10 -16 -23.5t-19 -29.5q78 4 126 6t77 6q39 119 91 236.5t98.5 212t79.5 153.5l32 59q12 23 37 23q31 0 60.5 -25.5t41.5 -38.5q33 -33 33 -71q0 -16 -4 -27.5t-8 -21.5 q-6 -10 -12 -19q-106 -137 -175 -254t-110 -215q8 -6 8 -14q4 -8 4 -37q0 -23 -8 -49.5t-41 -30.5h-14q-31 -96 -37 -155.5t-6 -75.5v-9v-28q0 -14 -1 -26.5t-10 -22.5q-16 -20 -38.5 -24.5t-28.5 -4.5h-2h-2q-16 4 -22.5 16.5t-12.5 22.5q-20 43 -21 111q0 41 8.5 87 t20.5 97q-66 -6 -132 -12.5t-126 -14.5q-35 -53 -68.5 -104t-61.5 -93t-45 -68l-17 -26q-14 -16 -35 -16q-16 0 -30.5 9t-25.5 20q-18 18 -25 36.5t-7 34.5t4 27.5t8 22.5q6 10 12 18q12 16 24.5 32.5t24.5 32.5v-2q12 18 27.5 29.5t30.5 18.5q16 8 33 10l-56 -8 q-20 -4 -36.5 -5.5t-26.5 -3.5q-12 -2 -23 -4h-2q-29 4 -37 29t-6 45zM897 1367.5q-2 17.5 1 39t10 43t13 35.5q12 29 38 40t48 1q25 -10 32 -36.5t-5 -55.5q-6 -14 -21.5 -31.5t-34 -32t-37 -22.5t-30.5 -2q-12 4 -14 21.5zM1072 1367.5q-1 17.5 2 39t10 43t14 35.5 q12 29 37.5 40t48.5 1q25 -10 31.5 -36.5t-5.5 -55.5q-6 -14 -21.5 -31.5t-35 -32t-37.5 -22.5t-31 -2q-12 4 -13 21.5z" />
<glyph unicode="&#xc5;" horiz-adv-x="886" d="M8 342v18.5t2 12.5q2 23 12.5 36t22.5 19t22.5 8t16.5 2h4q45 2 84 3t76 3l69 2q-14 2 -24 9q-10 4 -15.5 10t-1.5 16q66 98 129.5 198.5t120.5 192.5q55 88 101.5 166t80 135.5t54.5 90.5l20 34q16 16 41 17q33 0 62.5 -22.5t42.5 -35.5q33 -33 33 -71 q0 -29 -12.5 -47.5t-14.5 -20.5q-86 -102 -154.5 -188t-124 -161t-99.5 -140.5t-81 -122.5q-8 -10 -16 -23.5t-19 -29.5q78 4 126 6t77 6q39 119 91 236.5t98.5 212t79.5 153.5l32 59q12 23 37 23q31 0 60.5 -25.5t41.5 -38.5q33 -33 33 -71q0 -16 -4 -27.5t-8 -21.5 q-6 -10 -12 -19q-106 -137 -175 -254t-110 -215q8 -6 8 -14q4 -8 4 -37q0 -23 -8 -49.5t-41 -30.5h-14q-31 -96 -37 -155.5t-6 -75.5v-9v-28q0 -14 -1 -26.5t-10 -22.5q-16 -20 -38.5 -24.5t-28.5 -4.5h-2h-2q-16 4 -22.5 16.5t-12.5 22.5q-20 43 -21 111q0 41 8.5 87 t20.5 97q-66 -6 -132 -12.5t-126 -14.5q-35 -53 -68.5 -104t-61.5 -93t-45 -68l-17 -26q-14 -16 -35 -16q-16 0 -30.5 9t-25.5 20q-18 18 -25 36.5t-7 34.5t4 27.5t8 22.5q6 10 12 18q12 16 24.5 32.5t24.5 32.5v-2q12 18 27.5 29.5t30.5 18.5q16 8 33 10l-56 -8 q-20 -4 -36.5 -5.5t-26.5 -3.5q-12 -2 -23 -4h-2q-29 4 -37 29t-6 45zM949 1371.5q-3 17.5 1 36t14 36t19 29.5q6 6 11 12t9 10q-4 14 8.5 23.5t14.5 9.5q4 4 12 4l2 2q8 6 16 2q10 0 21.5 -4t19.5 -14q10 -14 13.5 -26.5t3.5 -26.5q-2 -25 -11.5 -42.5t-19.5 -31.5 q-23 -25 -49.5 -44.5t-65.5 -4.5q-16 12 -19 29.5zM987.5 1404q-11.5 -30 1.5 -34q12 -4 29.5 9.5t33.5 38.5q6 8 10.5 24t4.5 27.5t-6.5 13.5t-20.5 -16q-4 -2 -12 -2q-29 -31 -40.5 -61z" />
<glyph unicode="&#xc6;" horiz-adv-x="1243" d="M8 342v18.5t2 12.5q2 23 12.5 36t22.5 19t22.5 8t16.5 2h4q45 2 84 3t76 3l69 2q-14 2 -24 9q-10 4 -15.5 10t-1.5 16q66 98 129.5 198.5t120.5 192.5q55 88 101.5 166t80 135.5t54.5 90.5l20 34q16 16 41 17q33 0 62.5 -22.5t42.5 -35.5q33 -33 33 -71 q0 -29 -12.5 -47.5t-14.5 -20.5q-86 -102 -154.5 -188t-124 -161t-99.5 -140.5t-81 -122.5q-8 -10 -16 -23.5t-19 -29.5q78 4 126 6t77 6q39 119 91 236.5t98.5 212t79.5 153.5l32 59q12 23 37 23q31 0 60.5 -25.5t41.5 -38.5q33 -33 33 -71q0 -16 -4 -27.5t-8 -21.5 q-6 -10 -12 -19q-72 -86 -121 -163.5t-86 -148.5t-64.5 -136.5t-54.5 -126.5q-4 0 -5 -7.5t-5 -17.5q-31 -96 -37 -155.5t-6 -75.5v-9v-28q0 -14 -1 -26.5t-10 -22.5q-10 -10 -18 -10.5t-21.5 13t-34 42t-53.5 76.5q0 41 8.5 87t20.5 97q-66 -6 -132 -12.5t-126 -14.5 q-35 -53 -68.5 -104t-61.5 -93t-45 -68l-17 -26q-14 -16 -35 -16q-16 0 -30.5 9t-25.5 20q-18 18 -25 36.5t-7 34.5t4 27.5t8 22.5q6 10 12 18q12 16 24.5 32.5t24.5 32.5v-2q12 18 27.5 29.5t30.5 18.5q16 8 33 10l-56 -8q-20 -4 -36.5 -5.5t-26.5 -3.5q-12 -2 -23 -4h-2 q-29 4 -37 29t-6 45zM575 170q0 94 46.5 215t116 248t150.5 247.5t150.5 216t115.5 153.5l46 59q14 14 35 14q35 -2 64.5 -29.5t39.5 -42.5q25 -31 25 -65q0 -8 -2 -12l-33 -52q12 10 25 19q10 6 23.5 11t25.5 1q53 -33 71.5 -83t18.5 -103q0 -41 -7 -81t-18 -71 q-10 -37 -24 -67q-47 -111 -104.5 -182.5t-108.5 -114.5q-59 -51 -121 -80q-80 -39 -135 -53.5t-92 -14.5q-39 0 -59.5 11.5t-30.5 27.5q-6 8 -8.5 15.5t-4.5 11.5q-35 -82 -45 -135.5t-10 -81.5v-21q0 -4 2 -8q4 -25 16.5 -33t30.5 -8q20 0 43 8t43.5 19.5t33.5 20.5l13 9 q12 8 26.5 15.5t49.5 21.5q6 2 18 2q25 0 63 -7t60 -15q6 -4 11.5 -6.5t7.5 -10.5q0 -10 -6 -10q-166 -78 -265.5 -104.5t-154.5 -26.5q-49 0 -71.5 14.5t-22.5 16.5q-25 27 -36.5 62.5t-11.5 78.5zM848 465q0 -33 16.5 -45t32.5 -12h10q43 10 85 36.5t76 56t56 51.5l23 23 q106 109 151 205.5t45 167.5q0 72 -38 105l4 4l-4 -4q-2 2 -7 2q-14 0 -40.5 -23.5t-55.5 -56.5l-12 -12l-4 -5q-16 -18 -31.5 -36.5t-32.5 -36.5q-25 -31 -52.5 -66t-52 -65.5t-42 -54t-23.5 -31.5q-25 -35 -45.5 -65.5t-38.5 -59.5q-20 -47 -20 -78z" />
<glyph unicode="&#xc7;" horiz-adv-x="700" d="M-47 -51q-4 16 2.5 29.5t20.5 17.5q14 2 32.5 -8.5t10.5 -24.5q-10 -14 -12 -28.5t0 -24.5q10 6 28.5 28.5t34.5 69.5q0 12 12.5 16.5t24.5 1.5t20.5 -11.5t4.5 -20.5q-6 -12 -20.5 -31.5t-35 -37t-43 -30t-45.5 -10.5q-23 4 -27 26.5t-8 37.5zM8 170q0 94 46 215 t116 248t150.5 247.5t150.5 216t116 153.5l46 59q14 14 35 14q35 -2 64.5 -29.5t39.5 -42.5q25 -31 25 -65q0 -20 -7.5 -34.5t-15.5 -25.5q39 25 59.5 31t30.5 6h6q27 0 39.5 -20.5t12.5 -48.5q0 -31 -10.5 -74t-28 -91t-39 -99.5t-43.5 -100.5q-53 -113 -121 -237v-3h-2 q-14 -14 -37 -14q-18 0 -37.5 9.5t-36 20.5t-29 22.5t-16.5 15.5q-25 25 -24 53q0 31 15 50.5t13 19.5q84 127 135.5 208.5t79 130t36.5 69t11 26.5q-4 0 -11 -5t-9 -8q-41 -29 -85 -70.5t-83 -83.5t-68.5 -76t-42.5 -48q-113 -139 -179 -249.5t-100 -191.5t-43 -135.5 t-9 -80.5v-21q0 -4 2 -8q4 -25 16 -33t31 -8q18 0 41.5 8t44.5 19q23 12 47 28q12 10 26.5 17.5t49.5 21.5q4 2 18 2q25 0 61.5 -7t59.5 -15l13 -6.5t7 -10.5q0 -10 -8 -10q-166 -78 -264 -104.5t-153 -26.5q-57 0 -76 14.5t-19 16.5q-25 27 -36 62.5t-11 78.5z" />
<glyph unicode="&#xc8;" horiz-adv-x="729" d="M8 170q0 94 46 215t116 248t150.5 247.5t150.5 216t116 153.5l46 59q14 14 35 14q35 -2 64.5 -29.5t39.5 -42.5q25 -31 25 -65q0 -8 -2 -12l-33 -52q12 10 24 19q10 6 23.5 11t26.5 1q53 -33 71.5 -83t18.5 -103q0 -41 -7.5 -81t-17.5 -71q-10 -37 -24 -67 q-47 -111 -104.5 -182.5t-108.5 -114.5q-59 -51 -121 -80q-80 -39 -135.5 -53.5t-92.5 -14.5q-39 0 -59 11.5t-31 27.5q-6 8 -8 15.5t-4 11.5q-35 -82 -45 -135.5t-10 -81.5v-21q0 -4 2 -8q4 -25 16 -33t31 -8q20 0 42.5 8t43 19.5t33.5 20.5l14 9q12 8 26.5 15.5t49.5 21.5 q6 2 18 2q25 0 63 -7t60 -15q6 -4 11 -6.5t7 -10.5q0 -10 -6 -10q-166 -78 -265 -104.5t-154 -26.5q-49 0 -72 14.5t-23 16.5q-25 27 -36 62.5t-11 78.5zM281 465q0 -33 16 -45t33 -12h10q43 10 85 36.5t76 56t57 51.5l22 23q106 109 151 205.5t45 167.5q0 72 -39 105l4 4 l-4 -4q-2 2 -6 2q-14 0 -40.5 -23.5t-55.5 -56.5l-12 -12l-5 -5q-16 -18 -31.5 -36.5t-31.5 -36.5q-25 -31 -52.5 -66t-52 -65.5t-42 -54t-23.5 -31.5q-25 -35 -45.5 -65.5t-38.5 -59.5q-20 -47 -20 -78zM696 1460q2 12 9.5 23.5t14.5 21.5t11 14q10 12 20.5 15.5t18.5 1.5 t18 -8q51 -45 93 -64.5t73 -26.5q37 -8 64 -4q14 10 23 7t14 -7q6 -8 2 -18q-2 -4 -7 -6q-47 -37 -107.5 -37t-113.5 16q-64 19 -127 54q-8 6 -6 18z" />
<glyph unicode="&#xc9;" horiz-adv-x="729" d="M8 170q0 94 46 215t116 248t150.5 247.5t150.5 216t116 153.5l46 59q14 14 35 14q35 -2 64.5 -29.5t39.5 -42.5q25 -31 25 -65q0 -8 -2 -12l-33 -52q12 10 24 19q10 6 23.5 11t26.5 1q53 -33 71.5 -83t18.5 -103q0 -41 -7.5 -81t-17.5 -71q-10 -37 -24 -67 q-47 -111 -104.5 -182.5t-108.5 -114.5q-59 -51 -121 -80q-80 -39 -135.5 -53.5t-92.5 -14.5q-39 0 -59 11.5t-31 27.5q-6 8 -8 15.5t-4 11.5q-35 -82 -45 -135.5t-10 -81.5v-21q0 -4 2 -8q4 -25 16 -33t31 -8q20 0 42.5 8t43 19.5t33.5 20.5l14 9q12 8 26.5 15.5t49.5 21.5 q6 2 18 2q25 0 63 -7t60 -15q6 -4 11 -6.5t7 -10.5q0 -10 -6 -10q-166 -78 -265 -104.5t-154 -26.5q-49 0 -72 14.5t-23 16.5q-25 27 -36 62.5t-11 78.5zM281 465q0 -33 16 -45t33 -12h10q43 10 85 36.5t76 56t57 51.5l22 23q106 109 151 205.5t45 167.5q0 72 -39 105l4 4 l-4 -4q-2 2 -6 2q-14 0 -40.5 -23.5t-55.5 -56.5l-12 -12l-5 -5q-16 -18 -31.5 -36.5t-31.5 -36.5q-25 -31 -52.5 -66t-52 -65.5t-42 -54t-23.5 -31.5q-25 -35 -45.5 -65.5t-38.5 -59.5q-20 -47 -20 -78zM672 1419q-4 10 2 18q4 4 13 7.5t23 -7.5q27 -4 64 4q31 6 72 26 t94 65q10 6 18 8q20 4 39 -17q2 -4 10.5 -14t15.5 -21.5t9 -23.5t-6 -18q-63 -35 -127 -54q-53 -16 -113.5 -16t-107.5 37q-4 2 -6 6z" />
<glyph unicode="&#xca;" horiz-adv-x="729" d="M8 170q0 94 46 215t116 248t150.5 247.5t150.5 216t116 153.5l46 59q14 14 35 14q35 -2 64.5 -29.5t39.5 -42.5q25 -31 25 -65q0 -8 -2 -12l-33 -52q12 10 24 19q10 6 23.5 11t26.5 1q53 -33 71.5 -83t18.5 -103q0 -41 -7.5 -81t-17.5 -71q-10 -37 -24 -67 q-47 -111 -104.5 -182.5t-108.5 -114.5q-59 -51 -121 -80q-80 -39 -135.5 -53.5t-92.5 -14.5q-39 0 -59 11.5t-31 27.5q-6 8 -8 15.5t-4 11.5q-35 -82 -45 -135.5t-10 -81.5v-21q0 -4 2 -8q4 -25 16 -33t31 -8q20 0 42.5 8t43 19.5t33.5 20.5l14 9q12 8 26.5 15.5t49.5 21.5 q6 2 18 2q25 0 63 -7t60 -15q6 -4 11 -6.5t7 -10.5q0 -10 -6 -10q-166 -78 -265 -104.5t-154 -26.5q-49 0 -72 14.5t-23 16.5q-25 27 -36 62.5t-11 78.5zM281 465q0 -33 16 -45t33 -12h10q43 10 85 36.5t76 56t57 51.5l22 23q106 109 151 205.5t45 167.5q0 72 -39 105l4 4 l-4 -4q-2 2 -6 2q-14 0 -40.5 -23.5t-55.5 -56.5l-12 -12l-5 -5q-16 -18 -31.5 -36.5t-31.5 -36.5q-25 -31 -52.5 -66t-52 -65.5t-42 -54t-23.5 -31.5q-25 -35 -45.5 -65.5t-38.5 -59.5q-20 -47 -20 -78zM699 1504q0 8 10 16q4 4 11 4t12 -16q12 -10 34 -12q18 -2 47 3 t70 23q6 4 12 10q18 12 31 4q10 4 14 -22q2 -4 1 -8t1 -8q14 -45 31 -69t31 -36q16 -14 33 -18q12 6 17 1t5 -10q0 -14 -6 -16q-4 -2 -6 -4q-29 -14 -54.5 -11t-47 16t-40 33.5t-30.5 39.5q-23 -4 -49.5 -4t-51 7t-44 22.5t-29.5 46.5q-2 4 -2 8z" />
<glyph unicode="&#xcb;" horiz-adv-x="729" d="M8 170q0 94 46 215t116 248t150.5 247.5t150.5 216t116 153.5l46 59q14 14 35 14q35 -2 64.5 -29.5t39.5 -42.5q25 -31 25 -65q0 -8 -2 -12l-33 -52q12 10 24 19q10 6 23.5 11t26.5 1q53 -33 71.5 -83t18.5 -103q0 -41 -7.5 -81t-17.5 -71q-10 -37 -24 -67 q-47 -111 -104.5 -182.5t-108.5 -114.5q-59 -51 -121 -80q-80 -39 -135.5 -53.5t-92.5 -14.5q-39 0 -59 11.5t-31 27.5q-6 8 -8 15.5t-4 11.5q-35 -82 -45 -135.5t-10 -81.5v-21q0 -4 2 -8q4 -25 16 -33t31 -8q20 0 42.5 8t43 19.5t33.5 20.5l14 9q12 8 26.5 15.5t49.5 21.5 q6 2 18 2q25 0 63 -7t60 -15q6 -4 11 -6.5t7 -10.5q0 -10 -6 -10q-166 -78 -265 -104.5t-154 -26.5q-49 0 -72 14.5t-23 16.5q-25 27 -36 62.5t-11 78.5zM281 465q0 -33 16 -45t33 -12h10q43 10 85 36.5t76 56t57 51.5l22 23q106 109 151 205.5t45 167.5q0 72 -39 105l4 4 l-4 -4q-2 2 -6 2q-14 0 -40.5 -23.5t-55.5 -56.5l-12 -12l-5 -5q-16 -18 -31.5 -36.5t-31.5 -36.5q-25 -31 -52.5 -66t-52 -65.5t-42 -54t-23.5 -31.5q-25 -35 -45.5 -65.5t-38.5 -59.5q-20 -47 -20 -78zM731 1373.5q-2 17.5 1 39t10 43t13 35.5q12 29 38 40t48 1 q25 -10 32 -36.5t-5 -55.5q-6 -14 -21.5 -31.5t-34 -32t-37 -22.5t-30.5 -2q-12 4 -14 21.5zM906 1373.5q-1 17.5 2 39t10 43t14 35.5q12 29 37.5 40t48.5 1q25 -10 31.5 -36.5t-5.5 -55.5q-6 -14 -21.5 -31.5t-35 -32t-37.5 -22.5t-31 -2q-12 4 -13 21.5z" />
<glyph unicode="&#xcc;" horiz-adv-x="710" d="M8 201q0 84 32 183t81 196.5t105.5 188.5t104.5 160.5t81 111.5l32 42q14 14 35 15q35 -2 64.5 -30t40.5 -42q25 -31 24 -65q0 -16 -6 -31t-12 -25q-8 -12 -17 -20q-135 -154 -216 -271.5t-125 -204.5t-57 -144.5t-13 -90.5q0 -8 -1 -23.5t3 -30t15 -25.5t38 -13 q18 0 42 8t44.5 18.5t33.5 20.5l13 10q12 6 26.5 14.5t49.5 22.5q4 2 18 2q25 0 62 -7t59 -15q8 -4 13.5 -6.5t7.5 -10.5q0 -10 -8 -10q-166 -78 -264.5 -104.5t-153.5 -26.5q-47 2 -65.5 11t-28.5 20q-33 33 -45.5 77t-12.5 95zM500 1337.5q2 12.5 9 23.5t14 21.5t12 14.5 q10 12 20 15t18 1t19 -8q51 -45 93 -64.5t73 -25.5q37 -8 63 -4q14 10 23.5 7t13.5 -7q6 -8 2 -19q-2 -4 -6 -6q-47 -37 -107.5 -37t-113.5 17q-64 18 -127 53q-8 6 -6 18.5z" />
<glyph unicode="&#xcd;" horiz-adv-x="710" d="M8 201q0 84 32 183t81 196.5t105.5 188.5t104.5 160.5t81 111.5l32 42q14 14 35 15q35 -2 64.5 -30t40.5 -42q25 -31 24 -65q0 -16 -6 -31t-12 -25q-8 -12 -17 -20q-135 -154 -216 -271.5t-125 -204.5t-57 -144.5t-13 -90.5q0 -8 -1 -23.5t3 -30t15 -25.5t38 -13 q18 0 42 8t44.5 18.5t33.5 20.5l13 10q12 6 26.5 14.5t49.5 22.5q4 2 18 2q25 0 62 -7t59 -15q8 -4 13.5 -6.5t7.5 -10.5q0 -10 -8 -10q-166 -78 -264.5 -104.5t-153.5 -26.5q-47 2 -65.5 11t-28.5 20q-33 33 -45.5 77t-12.5 95zM471 1292q-4 10 2 19q4 4 13.5 7t23.5 -7 q27 -4 63 4q31 6 72 25.5t94 64.5q10 6 19 8q20 4 39 -16q2 -4 10 -14.5t15 -21.5t9 -23.5t-6 -18.5q-63 -35 -127 -53q-53 -16 -113.5 -16.5t-107.5 36.5q-4 2 -6 6z" />
<glyph unicode="&#xce;" horiz-adv-x="710" d="M8 201q0 84 32 183t81 196.5t105.5 188.5t104.5 160.5t81 111.5l32 42q14 14 35 15q35 -2 64.5 -30t40.5 -42q25 -31 24 -65q0 -16 -6 -31t-12 -25q-8 -12 -17 -20q-135 -154 -216 -271.5t-125 -204.5t-57 -144.5t-13 -90.5q0 -8 -1 -23.5t3 -30t15 -25.5t38 -13 q18 0 42 8t44.5 18.5t33.5 20.5l13 10q12 6 26.5 14.5t49.5 22.5q4 2 18 2q25 0 62 -7t59 -15q8 -4 13.5 -6.5t7.5 -10.5q0 -10 -8 -10q-166 -78 -264.5 -104.5t-153.5 -26.5q-47 2 -65.5 11t-28.5 20q-33 33 -45.5 77t-12.5 95zM461 1368q0 8 10 16q4 4 11 4.5t12 -16.5 q12 -10 34 -12q18 -2 47 3t70 23q6 4 12 11q18 12 31 4q10 4 14 -23q2 -4 1 -8t2 -8q14 -45 30.5 -68.5t30.5 -36.5q16 -14 33 -18q12 6 17 1t5 -9q0 -14 -6 -17q-4 -2 -6 -4q-29 -14 -54.5 -11t-47 16.5t-40 34t-30.5 38.5q-23 -4 -49.5 -4t-51 7t-44 22.5t-29.5 46.5 q-2 4 -2 8z" />
<glyph unicode="&#xcf;" horiz-adv-x="710" d="M8 201q0 84 32 183t81 196.5t105.5 188.5t104.5 160.5t81 111.5l32 42q14 14 35 15q35 -2 64.5 -30t40.5 -42q25 -31 24 -65q0 -16 -6 -31t-12 -25q-8 -12 -17 -20q-135 -154 -216 -271.5t-125 -204.5t-57 -144.5t-13 -90.5q0 -8 -1 -23.5t3 -30t15 -25.5t38 -13 q18 0 42 8t44.5 18.5t33.5 20.5l13 10q12 6 26.5 14.5t49.5 22.5q4 2 18 2q25 0 62 -7t59 -15q8 -4 13.5 -6.5t7.5 -10.5q0 -10 -8 -10q-166 -78 -264.5 -104.5t-153.5 -26.5q-47 2 -65.5 11t-28.5 20q-33 33 -45.5 77t-12.5 95zM549 1266.5q-2 17.5 1 39t10 43t13 35.5 q12 29 38 40.5t48 0.5q25 -10 32 -36.5t-5 -55.5q-6 -14 -21.5 -31.5t-34 -32t-37 -22.5t-30.5 -2q-12 4 -14 21.5zM724 1266.5q-1 17.5 2 39t10 43t14 35.5q12 29 37.5 40.5t48.5 0.5q25 -10 31.5 -36.5t-5.5 -55.5q-6 -14 -21.5 -31.5t-35 -32t-37.5 -22.5t-31 -2 q-12 4 -13 21.5z" />
<glyph unicode="&#xd1;" horiz-adv-x="935" d="M8 98q0 16 4 27.5t8 21.5q6 10 15 19q53 70 113.5 157t122 179t121 187t114.5 183t101 166t80 135.5t53 90.5l20 34q16 16 41 17q35 0 64.5 -22.5t41.5 -35.5q33 -33 33 -71q0 -31 -13.5 -49.5t-13.5 -20.5q-25 -29 -48 -56.5t-46 -55.5q-80 -129 -131 -234.5t-82 -191.5 t-42 -152t-11 -115v-32q96 135 197.5 291.5t191.5 301.5q55 88 101.5 166t80 135.5t54.5 90.5l20 34q14 16 41 17q33 0 62.5 -22.5t41.5 -35.5q33 -33 33 -71q0 -31 -13 -49.5t-13 -20.5q-86 -102 -155 -188t-124 -161t-99 -139.5t-81 -123.5q-18 -29 -50 -77t-67 -102.5 t-71.5 -109.5t-65.5 -100t-49 -74l-19 -29q-14 -14 -34 -14t-44 22.5t-38 47.5q-29 55 -29 149q0 70 13.5 151t35.5 167q-6 -8 -11 -15.5t-9 -15.5q-18 -29 -49 -77t-67 -102.5t-72 -109.5t-65.5 -100t-47.5 -74l-19 -29q-14 -14 -35 -14q-16 0 -31.5 9t-25.5 20 q-18 18 -25.5 36.5t-7.5 34.5zM928 1470q-4 10 0 19q2 4 4 6q25 29 50.5 36t48 1t41 -18.5t28.5 -22.5h2q2 -4 4 -6l4 -4q23 -23 41 -36.5t31 -21.5q14 -8 26 -12q10 10 14.5 9t4.5 -5q2 -10 -2 -18q-2 -4 -4 -7q-25 -29 -49.5 -36t-47 -0.5t-41 18.5t-28.5 22q-2 0 -2 3 l-2 2l-9 8q-23 27 -40 40t-29 19q-14 8 -27 8q-10 -10 -14 -9t-4 5z" />
<glyph unicode="&#xd2;" horiz-adv-x="765" d="M10 170q0 70 26.5 157t71 180t99.5 188.5t115 185.5q137 209 311 428q16 14 37 14q35 -2 63.5 -29.5t40.5 -42.5q23 -31 23 -65q0 -18 -2 -27q-10 -35 -41 -79t-62 -64l-2 -2h-2q-23 -16 -42 -33.5t-38 -34.5q-154 -172 -243 -306t-135 -232.5t-58 -162t-12 -93.5v-21 q0 -4 2 -8q6 -29 26 -29q25 0 63 24.5t68 55.5q137 147 219.5 286.5t125.5 250.5q23 53 35 97t20 77q8 37 12 65q2 8 2 15.5v13.5v16q0 23 10.5 51.5t24.5 54t29.5 45t23.5 21.5q10 4 27.5 2t25.5 -6q35 -18 51.5 -57t16.5 -92q0 -74 -27.5 -168t-77 -196.5t-118 -204 t-150.5 -189.5v-2q-23 -27 -54.5 -59.5t-68 -64.5t-75.5 -59.5t-76 -41.5q-47 -18 -81 -24.5t-62 -8.5q-49 -2 -72 14.5t-25 18.5q-45 51 -45 141zM713 1460q2 12 9.5 23.5t14.5 21.5t11 14q10 12 20.5 15.5t18.5 1.5t18 -8q51 -45 93 -64.5t73 -26.5q37 -8 64 -4 q14 10 23 7t14 -7q6 -8 2 -18q-2 -4 -7 -6q-47 -37 -107.5 -37t-113.5 16q-64 19 -127 54q-8 6 -6 18z" />
<glyph unicode="&#xd3;" horiz-adv-x="765" d="M10 170q0 70 26.5 157t71 180t99.5 188.5t115 185.5q137 209 311 428q16 14 37 14q35 -2 63.5 -29.5t40.5 -42.5q23 -31 23 -65q0 -18 -2 -27q-10 -35 -41 -79t-62 -64l-2 -2h-2q-23 -16 -42 -33.5t-38 -34.5q-154 -172 -243 -306t-135 -232.5t-58 -162t-12 -93.5v-21 q0 -4 2 -8q6 -29 26 -29q25 0 63 24.5t68 55.5q137 147 219.5 286.5t125.5 250.5q23 53 35 97t20 77q8 37 12 65q2 8 2 15.5v13.5v16q0 23 10.5 51.5t24.5 54t29.5 45t23.5 21.5q10 4 27.5 2t25.5 -6q35 -18 51.5 -57t16.5 -92q0 -74 -27.5 -168t-77 -196.5t-118 -204 t-150.5 -189.5v-2q-23 -27 -54.5 -59.5t-68 -64.5t-75.5 -59.5t-76 -41.5q-47 -18 -81 -24.5t-62 -8.5q-49 -2 -72 14.5t-25 18.5q-45 51 -45 141zM705 1415q-4 10 2 18q4 4 13 7.5t23 -7.5q27 -4 64 4q31 6 72 26t94 65q10 6 18 8q20 4 39 -17q2 -4 10.5 -14t15.5 -21.5 t9 -23.5t-6 -18q-63 -35 -127 -54q-53 -16 -113.5 -16t-107.5 37q-4 2 -6 6z" />
<glyph unicode="&#xd4;" horiz-adv-x="765" d="M10 170q0 70 26.5 157t71 180t99.5 188.5t115 185.5q137 209 311 428q16 14 37 14q35 -2 63.5 -29.5t40.5 -42.5q23 -31 23 -65q0 -18 -2 -27q-10 -35 -41 -79t-62 -64l-2 -2h-2q-23 -16 -42 -33.5t-38 -34.5q-154 -172 -243 -306t-135 -232.5t-58 -162t-12 -93.5v-21 q0 -4 2 -8q6 -29 26 -29q25 0 63 24.5t68 55.5q137 147 219.5 286.5t125.5 250.5q23 53 35 97t20 77q8 37 12 65q2 8 2 15.5v13.5v16q0 23 10.5 51.5t24.5 54t29.5 45t23.5 21.5q10 4 27.5 2t25.5 -6q35 -18 51.5 -57t16.5 -92q0 -74 -27.5 -168t-77 -196.5t-118 -204 t-150.5 -189.5v-2q-23 -27 -54.5 -59.5t-68 -64.5t-75.5 -59.5t-76 -41.5q-47 -18 -81 -24.5t-62 -8.5q-49 -2 -72 14.5t-25 18.5q-45 51 -45 141zM707 1506q0 8 10 16q4 4 11 4t12 -16q12 -10 34 -12q18 -2 47 3t70 23q6 4 12 10q18 12 31 4q10 4 14 -22q2 -4 1 -8t1 -8 q14 -45 31 -69t31 -36q16 -14 33 -18q12 6 17 1t5 -10q0 -14 -6 -16q-4 -2 -6 -4q-29 -14 -54.5 -11t-47 16t-40 33.5t-30.5 39.5q-23 -4 -49.5 -4t-51 7t-44 22.5t-29.5 46.5q-2 4 -2 8z" />
<glyph unicode="&#xd5;" horiz-adv-x="765" d="M10 170q0 70 26.5 157t71 180t99.5 188.5t115 185.5q137 209 311 428q16 14 37 14q35 -2 63.5 -29.5t40.5 -42.5q23 -31 23 -65q0 -18 -2 -27q-10 -35 -41 -79t-62 -64l-2 -2h-2q-23 -16 -42 -33.5t-38 -34.5q-154 -172 -243 -306t-135 -232.5t-58 -162t-12 -93.5v-21 q0 -4 2 -8q6 -29 26 -29q25 0 63 24.5t68 55.5q137 147 219.5 286.5t125.5 250.5q23 53 35 97t20 77q8 37 12 65q2 8 2 15.5v13.5v16q0 23 10.5 51.5t24.5 54t29.5 45t23.5 21.5q10 4 27.5 2t25.5 -6q35 -18 51.5 -57t16.5 -92q0 -74 -27.5 -168t-77 -196.5t-118 -204 t-150.5 -189.5v-2q-23 -27 -54.5 -59.5t-68 -64.5t-75.5 -59.5t-76 -41.5q-47 -18 -81 -24.5t-62 -8.5q-49 -2 -72 14.5t-25 18.5q-45 51 -45 141zM756 1458q-4 10 0 19q2 4 4 6q25 29 50.5 36t48 1t41 -18.5t28.5 -22.5h2q2 -4 4 -6l4 -4q23 -23 41 -36.5t31 -21.5 q14 -8 26 -12q10 10 14.5 9t4.5 -5q2 -10 -2 -18q-2 -4 -4 -7q-25 -29 -49.5 -36t-47 -0.5t-41 18.5t-28.5 22q-2 0 -2 3l-2 2l-9 8q-23 27 -40 40t-29 19q-14 8 -27 8q-10 -10 -14 -9t-4 5z" />
<glyph unicode="&#xd6;" horiz-adv-x="765" d="M10 170q0 70 26.5 157t71 180t99.5 188.5t115 185.5q137 209 311 428q16 14 37 14q35 -2 63.5 -29.5t40.5 -42.5q23 -31 23 -65q0 -18 -2 -27q-10 -35 -41 -79t-62 -64l-2 -2h-2q-23 -16 -42 -33.5t-38 -34.5q-154 -172 -243 -306t-135 -232.5t-58 -162t-12 -93.5v-21 q0 -4 2 -8q6 -29 26 -29q25 0 63 24.5t68 55.5q137 147 219.5 286.5t125.5 250.5q23 53 35 97t20 77q8 37 12 65q2 8 2 15.5v13.5v16q0 23 10.5 51.5t24.5 54t29.5 45t23.5 21.5q10 4 27.5 2t25.5 -6q35 -18 51.5 -57t16.5 -92q0 -74 -27.5 -168t-77 -196.5t-118 -204 t-150.5 -189.5v-2q-23 -27 -54.5 -59.5t-68 -64.5t-75.5 -59.5t-76 -41.5q-47 -18 -81 -24.5t-62 -8.5q-49 -2 -72 14.5t-25 18.5q-45 51 -45 141zM742 1381.5q-2 17.5 1 39t10 43t13 35.5q12 29 38 40t48 1q25 -10 32 -36.5t-5 -55.5q-6 -14 -21.5 -31.5t-34 -32t-37 -22.5 t-30.5 -2q-12 4 -14 21.5zM917 1381.5q-1 17.5 2 39t10 43t14 35.5q12 29 37.5 40t48.5 1q25 -10 31.5 -36.5t-5.5 -55.5q-6 -14 -21.5 -31.5t-35 -32t-37.5 -22.5t-31 -2q-12 4 -13 21.5z" />
<glyph unicode="&#xd8;" horiz-adv-x="765" d="M-65 -119.5q-3 19.5 2 35.5q6 18 18 35q295 399 389 532t152 226q6 12 16 27.5t20 31.5t23 35q195 293 234.5 356.5t68.5 110.5q35 53 64 100q14 14 25 15t20.5 -3t16.5 -12t13 -14q23 -23 26 -42.5t-1 -35.5q-6 -18 -18 -35q-139 -193 -314.5 -443.5t-247.5 -355.5 q-47 -84 -93 -158.5t-228 -336.5q-43 -68 -84 -125q-14 -14 -24.5 -16.5t-19.5 3t-17.5 13.5t-14.5 14q-23 23 -26 42.5zM10 170q0 70 26.5 157t71 180t99.5 188.5t115 185.5q137 209 311 428q16 14 37 14q35 -2 63.5 -29.5t40.5 -42.5q23 -31 23 -65q0 -18 -2 -27 q-10 -35 -41 -79t-62 -64l-2 -2h-2q-23 -16 -42 -33.5t-38 -34.5q-154 -172 -243 -306t-135 -232.5t-58 -162t-12 -93.5v-21q0 -4 2 -8q6 -29 26 -29q25 0 63 24.5t68 55.5q137 147 219.5 286.5t125.5 250.5q23 53 35 97t20 77q8 37 12 65q2 8 2 15.5v13.5v16 q0 23 10.5 51.5t24.5 54t29.5 45t23.5 21.5q10 4 27.5 2t25.5 -6q35 -18 51.5 -57t16.5 -92q0 -74 -27.5 -168t-77 -196.5t-118 -204t-150.5 -189.5v-2q-23 -27 -54.5 -59.5t-68 -64.5t-75.5 -59.5t-76 -41.5q-47 -18 -81 -24.5t-62 -8.5q-49 -2 -72 14.5t-25 18.5 q-45 51 -45 141z" />
<glyph unicode="&#xd9;" horiz-adv-x="1069" d="M14 170q0 70 21.5 150.5t56.5 163.5t81 165t93 156q113 174 254 350q16 14 35 14q35 -2 64.5 -29.5t39.5 -41.5q25 -31 25 -66q0 -16 -6 -30.5t-12 -24.5q-8 -12 -17 -21q-193 -219 -294 -362t-145 -232.5t-46 -134.5t2 -65q8 -35 49 -35q31 0 71 17.5t80 46t72.5 64.5 t46.5 75h2q31 100 86.5 210.5t122 220t135 209t125 174.5t92.5 120l35 45q15 14 35 14q35 -2 64.5 -29.5t40.5 -42.5q25 -31 24 -65q0 -16 -6 -30.5t-12 -25.5q-8 -12 -17 -20q-209 -211 -328.5 -375t-181 -281.5t-78 -193.5t-16.5 -108v-21q0 -4 2 -8q4 -25 16.5 -33 t30.5 -8t42 8t44.5 19.5t34.5 20.5l13 9q12 8 26 15.5t49 21.5q4 2 19 2q25 0 61.5 -7t59.5 -15l13 -6.5t7 -10.5q0 -10 -8 -10q-166 -78 -264.5 -104.5t-153.5 -26.5q-47 0 -70.5 14.5t-23.5 16.5q-20 18 -30.5 47.5t-14.5 62.5q-41 -35 -82 -64.5t-80 -45.5 q-47 -18 -81 -25.5t-62 -7.5q-51 0 -73 15.5t-24 17.5q-25 27 -35 62.5t-10 78.5zM749 1458q2 12 9.5 23.5t14.5 21.5t11 14q10 12 20.5 15.5t18.5 1.5t18 -8q51 -45 93 -64.5t73 -26.5q37 -8 64 -4q14 10 23 7t14 -7q6 -8 2 -18q-2 -4 -7 -6q-47 -37 -107.5 -37t-113.5 16 q-64 19 -127 54q-8 6 -6 18z" />
<glyph unicode="&#xda;" horiz-adv-x="1069" d="M14 170q0 70 21.5 150.5t56.5 163.5t81 165t93 156q113 174 254 350q16 14 35 14q35 -2 64.5 -29.5t39.5 -41.5q25 -31 25 -66q0 -16 -6 -30.5t-12 -24.5q-8 -12 -17 -21q-193 -219 -294 -362t-145 -232.5t-46 -134.5t2 -65q8 -35 49 -35q31 0 71 17.5t80 46t72.5 64.5 t46.5 75h2q31 100 86.5 210.5t122 220t135 209t125 174.5t92.5 120l35 45q15 14 35 14q35 -2 64.5 -29.5t40.5 -42.5q25 -31 24 -65q0 -16 -6 -30.5t-12 -25.5q-8 -12 -17 -20q-209 -211 -328.5 -375t-181 -281.5t-78 -193.5t-16.5 -108v-21q0 -4 2 -8q4 -25 16.5 -33 t30.5 -8t42 8t44.5 19.5t34.5 20.5l13 9q12 8 26 15.5t49 21.5q4 2 19 2q25 0 61.5 -7t59.5 -15l13 -6.5t7 -10.5q0 -10 -8 -10q-166 -78 -264.5 -104.5t-153.5 -26.5q-47 0 -70.5 14.5t-23.5 16.5q-20 18 -30.5 47.5t-14.5 62.5q-41 -35 -82 -64.5t-80 -45.5 q-47 -18 -81 -25.5t-62 -7.5q-51 0 -73 15.5t-24 17.5q-25 27 -35 62.5t-10 78.5zM758 1419q-4 10 2 18q4 4 13 7.5t23 -7.5q27 -4 64 4q31 6 72 26t94 65q10 6 18 8q20 4 39 -17q2 -4 10.5 -14t15.5 -21.5t9 -23.5t-6 -18q-63 -35 -127 -54q-53 -16 -113.5 -16t-107.5 37 q-4 2 -6 6z" />
<glyph unicode="&#xdb;" horiz-adv-x="1069" d="M14 170q0 70 21.5 150.5t56.5 163.5t81 165t93 156q113 174 254 350q16 14 35 14q35 -2 64.5 -29.5t39.5 -41.5q25 -31 25 -66q0 -16 -6 -30.5t-12 -24.5q-8 -12 -17 -21q-193 -219 -294 -362t-145 -232.5t-46 -134.5t2 -65q8 -35 49 -35q31 0 71 17.5t80 46t72.5 64.5 t46.5 75h2q31 100 86.5 210.5t122 220t135 209t125 174.5t92.5 120l35 45q15 14 35 14q35 -2 64.5 -29.5t40.5 -42.5q25 -31 24 -65q0 -16 -6 -30.5t-12 -25.5q-8 -12 -17 -20q-209 -211 -328.5 -375t-181 -281.5t-78 -193.5t-16.5 -108v-21q0 -4 2 -8q4 -25 16.5 -33 t30.5 -8t42 8t44.5 19.5t34.5 20.5l13 9q12 8 26 15.5t49 21.5q4 2 19 2q25 0 61.5 -7t59.5 -15l13 -6.5t7 -10.5q0 -10 -8 -10q-166 -78 -264.5 -104.5t-153.5 -26.5q-47 0 -70.5 14.5t-23.5 16.5q-20 18 -30.5 47.5t-14.5 62.5q-41 -35 -82 -64.5t-80 -45.5 q-47 -18 -81 -25.5t-62 -7.5q-51 0 -73 15.5t-24 17.5q-25 27 -35 62.5t-10 78.5zM750 1501q0 8 10 16q4 4 11 4t12 -16q12 -10 34 -12q18 -2 47 3t70 23q6 4 12 10q18 12 31 4q10 4 14 -22q2 -4 1 -8t1 -8q14 -45 31 -69t31 -36q16 -14 33 -18q12 6 17 1t5 -10 q0 -14 -6 -16q-4 -2 -6 -4q-29 -14 -54.5 -11t-47 16t-40 33.5t-30.5 39.5q-23 -4 -49.5 -4t-51 7t-44 22.5t-29.5 46.5q-2 4 -2 8z" />
<glyph unicode="&#xdc;" horiz-adv-x="1069" d="M14 170q0 70 21.5 150.5t56.5 163.5t81 165t93 156q113 174 254 350q16 14 35 14q35 -2 64.5 -29.5t39.5 -41.5q25 -31 25 -66q0 -16 -6 -30.5t-12 -24.5q-8 -12 -17 -21q-193 -219 -294 -362t-145 -232.5t-46 -134.5t2 -65q8 -35 49 -35q31 0 71 17.5t80 46t72.5 64.5 t46.5 75h2q31 100 86.5 210.5t122 220t135 209t125 174.5t92.5 120l35 45q15 14 35 14q35 -2 64.5 -29.5t40.5 -42.5q25 -31 24 -65q0 -16 -6 -30.5t-12 -25.5q-8 -12 -17 -20q-209 -211 -328.5 -375t-181 -281.5t-78 -193.5t-16.5 -108v-21q0 -4 2 -8q4 -25 16.5 -33 t30.5 -8t42 8t44.5 19.5t34.5 20.5l13 9q12 8 26 15.5t49 21.5q4 2 19 2q25 0 61.5 -7t59.5 -15l13 -6.5t7 -10.5q0 -10 -8 -10q-166 -78 -264.5 -104.5t-153.5 -26.5q-47 0 -70.5 14.5t-23.5 16.5q-20 18 -30.5 47.5t-14.5 62.5q-41 -35 -82 -64.5t-80 -45.5 q-47 -18 -81 -25.5t-62 -7.5q-51 0 -73 15.5t-24 17.5q-25 27 -35 62.5t-10 78.5zM803 1359.5q-2 17.5 1 39t10 43t13 35.5q12 29 38 40t48 1q25 -10 32 -36.5t-5 -55.5q-6 -14 -21.5 -31.5t-34 -32t-37 -22.5t-30.5 -2q-12 4 -14 21.5zM978 1359.5q-1 17.5 2 39t10 43 t14 35.5q12 29 37.5 40t48.5 1q25 -10 31.5 -36.5t-5.5 -55.5q-6 -14 -21.5 -31.5t-35 -32t-37.5 -22.5t-31 -2q-12 4 -13 21.5z" />
<glyph unicode="&#xdd;" horiz-adv-x="485" d="M10 100q0 16 4 27.5t9 22.5q6 10 12 18q35 45 70.5 96t74.5 107q-33 143 -50 295.5t-26 281.5q-8 150 -10 293q8 29 33 42t53.5 18.5t55 3.5t40.5 -5q43 -6 63.5 -26.5t27.5 -42.5q8 -25 2 -55q-37 -160 -41 -302.5t12 -263.5q43 68 85 134.5t81 129.5q55 88 101 166 t80 135.5t55 90.5l20 34q16 16 41 17q33 0 62.5 -22.5t41.5 -34.5q33 -33 33 -72q0 -29 -12.5 -47.5t-14.5 -20.5q-76 -82 -155.5 -184t-156.5 -212t-149.5 -219.5t-134 -205.5t-108.5 -170t-76 -113q-15 -16 -35 -16q-16 0 -30.5 9t-24.5 20q-18 18 -25.5 36.5t-7.5 34.5z M338 1417q-4 10 2 18q4 4 13 7.5t23 -7.5q27 -4 64 4q31 6 72 26t94 65q10 6 18 8q20 4 39 -17q2 -4 10.5 -14t15.5 -21.5t9 -23.5t-6 -18q-63 -35 -127 -54q-53 -16 -113.5 -16t-107.5 37q-4 2 -6 6z" />
<glyph unicode="&#xe0;" horiz-adv-x="659" d="M-96 127q-8 55 6 113.5t43 118t65 114.5q84 129 220 266q16 16 32.5 18.5t31.5 -1.5t26.5 -13.5t19.5 -17.5q33 -35 31 -64.5t-12 -48.5q2 0 3 1t3 1q6 2 15 1t24.5 -9t37 -26.5t54.5 -51.5q25 -25 28 -48t-2 -42q-6 -23 -20 -41q-55 -55 -88 -99t-49 -77 q-20 -37 -27 -65q-4 -27 3 -36t16 -11q8 -2 22 4q25 12 53.5 38.5t58 60.5t60 74t59.5 79q10 14 28 9t11 -16q-61 -94 -111 -157.5t-90 -105.5t-71 -62.5t-53 -28.5q-53 -18 -78 23q-25 35 -35 75q-68 -72 -118 -92t-85 -16q-39 4 -67 33q-37 45 -45 100zM20 115 q2 -23 11.5 -30t19.5 -5q13 2 27 10q41 41 85 101.5t83 121t67.5 109.5t38.5 65q6 10 7 26.5t-3 29t-16 15.5t-33 -11l-2 -2q-121 -119 -180 -201t-82 -133q-27 -59 -23 -96zM268 938q2 12 9.5 23.5t14.5 21.5t11 14q10 12 20.5 15.5t18.5 1.5t18 -8q51 -45 93 -64.5 t73 -26.5q37 -8 64 -4q14 10 23 7t14 -7q6 -8 2 -18q-2 -4 -7 -6q-47 -37 -107.5 -37t-113.5 16q-64 19 -127 54q-8 6 -6 18z" />
<glyph unicode="&#xe1;" horiz-adv-x="659" d="M-96 127q-8 55 6 113.5t43 118t65 114.5q84 129 220 266q16 16 32.5 18.5t31.5 -1.5t26.5 -13.5t19.5 -17.5q33 -35 31 -64.5t-12 -48.5q2 0 3 1t3 1q6 2 15 1t24.5 -9t37 -26.5t54.5 -51.5q25 -25 28 -48t-2 -42q-6 -23 -20 -41q-55 -55 -88 -99t-49 -77 q-20 -37 -27 -65q-4 -27 3 -36t16 -11q8 -2 22 4q25 12 53.5 38.5t58 60.5t60 74t59.5 79q10 14 28 9t11 -16q-61 -94 -111 -157.5t-90 -105.5t-71 -62.5t-53 -28.5q-53 -18 -78 23q-25 35 -35 75q-68 -72 -118 -92t-85 -16q-39 4 -67 33q-37 45 -45 100zM20 115 q2 -23 11.5 -30t19.5 -5q13 2 27 10q41 41 85 101.5t83 121t67.5 109.5t38.5 65q6 10 7 26.5t-3 29t-16 15.5t-33 -11l-2 -2q-121 -119 -180 -201t-82 -133q-27 -59 -23 -96zM273 893q-4 10 2 18q4 4 13 7.5t23 -7.5q27 -4 64 4q31 6 72 26t94 65q10 6 18 8q20 4 39 -17 q2 -4 10.5 -14t15.5 -21.5t9 -23.5t-6 -18q-63 -35 -127 -54q-53 -16 -113.5 -16t-107.5 37q-4 2 -6 6z" />
<glyph unicode="&#xe2;" horiz-adv-x="659" d="M-96 127q-8 55 6 113.5t43 118t65 114.5q84 129 220 266q16 16 32.5 18.5t31.5 -1.5t26.5 -13.5t19.5 -17.5q33 -35 31 -64.5t-12 -48.5q2 0 3 1t3 1q6 2 15 1t24.5 -9t37 -26.5t54.5 -51.5q25 -25 28 -48t-2 -42q-6 -23 -20 -41q-55 -55 -88 -99t-49 -77 q-20 -37 -27 -65q-4 -27 3 -36t16 -11q8 -2 22 4q25 12 53.5 38.5t58 60.5t60 74t59.5 79q10 14 28 9t11 -16q-61 -94 -111 -157.5t-90 -105.5t-71 -62.5t-53 -28.5q-53 -18 -78 23q-25 35 -35 75q-68 -72 -118 -92t-85 -16q-39 4 -67 33q-37 45 -45 100zM20 115 q2 -23 11.5 -30t19.5 -5q13 2 27 10q41 41 85 101.5t83 121t67.5 109.5t38.5 65q6 10 7 26.5t-3 29t-16 15.5t-33 -11l-2 -2q-121 -119 -180 -201t-82 -133q-27 -59 -23 -96zM322 969q0 8 10 16q4 4 11 4t12 -16q12 -10 34 -12q18 -2 47 3t70 23q6 4 12 10q18 12 31 4 q10 4 14 -22q2 -4 1 -8t1 -8q14 -45 31 -69t31 -36q16 -14 33 -18q12 6 17 1t5 -10q0 -14 -6 -16q-4 -2 -6 -4q-29 -14 -54.5 -11t-47 16t-40 33.5t-30.5 39.5q-23 -4 -49.5 -4t-51 7t-44 22.5t-29.5 46.5q-2 4 -2 8z" />
<glyph unicode="&#xe3;" horiz-adv-x="659" d="M-96 127q-8 55 6 113.5t43 118t65 114.5q84 129 220 266q16 16 32.5 18.5t31.5 -1.5t26.5 -13.5t19.5 -17.5q33 -35 31 -64.5t-12 -48.5q2 0 3 1t3 1q6 2 15 1t24.5 -9t37 -26.5t54.5 -51.5q25 -25 28 -48t-2 -42q-6 -23 -20 -41q-55 -55 -88 -99t-49 -77 q-20 -37 -27 -65q-4 -27 3 -36t16 -11q8 -2 22 4q25 12 53.5 38.5t58 60.5t60 74t59.5 79q10 14 28 9t11 -16q-61 -94 -111 -157.5t-90 -105.5t-71 -62.5t-53 -28.5q-53 -18 -78 23q-25 35 -35 75q-68 -72 -118 -92t-85 -16q-39 4 -67 33q-37 45 -45 100zM20 115 q2 -23 11.5 -30t19.5 -5q13 2 27 10q41 41 85 101.5t83 121t67.5 109.5t38.5 65q6 10 7 26.5t-3 29t-16 15.5t-33 -11l-2 -2q-121 -119 -180 -201t-82 -133q-27 -59 -23 -96zM359 950q-4 10 0 19q2 4 4 6q25 29 50.5 36t48 1t41 -18.5t28.5 -22.5h2q2 -4 4 -6l4 -4 q23 -23 41 -36.5t31 -21.5q14 -8 26 -12q10 10 14.5 9t4.5 -5q2 -10 -2 -18q-2 -4 -4 -7q-25 -29 -49.5 -36t-47 -0.5t-41 18.5t-28.5 22q-2 0 -2 3l-2 2l-9 8q-23 27 -40 40t-29 19q-14 8 -27 8q-10 -10 -14 -9t-4 5z" />
<glyph unicode="&#xe4;" horiz-adv-x="659" d="M-96 127q-8 55 6 113.5t43 118t65 114.5q84 129 220 266q16 16 32.5 18.5t31.5 -1.5t26.5 -13.5t19.5 -17.5q33 -35 31 -64.5t-12 -48.5q2 0 3 1t3 1q6 2 15 1t24.5 -9t37 -26.5t54.5 -51.5q25 -25 28 -48t-2 -42q-6 -23 -20 -41q-55 -55 -88 -99t-49 -77 q-20 -37 -27 -65q-4 -27 3 -36t16 -11q8 -2 22 4q25 12 53.5 38.5t58 60.5t60 74t59.5 79q10 14 28 9t11 -16q-61 -94 -111 -157.5t-90 -105.5t-71 -62.5t-53 -28.5q-53 -18 -78 23q-25 35 -35 75q-68 -72 -118 -92t-85 -16q-39 4 -67 33q-37 45 -45 100zM20 115 q2 -23 11.5 -30t19.5 -5q13 2 27 10q41 41 85 101.5t83 121t67.5 109.5t38.5 65q6 10 7 26.5t-3 29t-16 15.5t-33 -11l-2 -2q-121 -119 -180 -201t-82 -133q-27 -59 -23 -96zM352.5 867.5q-2.5 17.5 0.5 39t10.5 43t13.5 35.5q12 29 37.5 40t48.5 1q25 -10 31.5 -36.5 t-5.5 -55.5q-6 -14 -21 -31.5t-33.5 -32t-37 -22.5t-30.5 -2q-12 4 -14.5 21.5zM527.5 867.5q-1.5 17.5 1.5 39t10.5 43t13.5 35.5q12 29 37.5 40t48.5 1q25 -10 32 -36.5t-5 -55.5q-6 -14 -21.5 -31.5t-35 -32t-38 -22.5t-30.5 -2q-12 4 -13.5 21.5z" />
<glyph unicode="&#xe5;" horiz-adv-x="659" d="M-96 127q-8 55 6 113.5t43 118t65 114.5q84 129 220 266q16 16 32.5 18.5t31.5 -1.5t26.5 -13.5t19.5 -17.5q33 -35 31 -64.5t-12 -48.5q2 0 3 1t3 1q6 2 15 1t24.5 -9t37 -26.5t54.5 -51.5q25 -25 28 -48t-2 -42q-6 -23 -20 -41q-55 -55 -88 -99t-49 -77 q-20 -37 -27 -65q-4 -27 3 -36t16 -11q8 -2 22 4q25 12 53.5 38.5t58 60.5t60 74t59.5 79q10 14 28 9t11 -16q-61 -94 -111 -157.5t-90 -105.5t-71 -62.5t-53 -28.5q-53 -18 -78 23q-25 35 -35 75q-68 -72 -118 -92t-85 -16q-39 4 -67 33q-37 45 -45 100zM20 115 q2 -23 11.5 -30t19.5 -5q13 2 27 10q41 41 85 101.5t83 121t67.5 109.5t38.5 65q6 10 7 26.5t-3 29t-16 15.5t-33 -11l-2 -2q-121 -119 -180 -201t-82 -133q-27 -59 -23 -96zM427 871.5q-3 17.5 1 36t14 36t19 29.5q6 6 11 12t9 10q-4 14 8.5 23.5t14.5 9.5q4 4 12 4l2 2 q8 6 16 2q10 0 21.5 -4t19.5 -14q10 -14 13.5 -26.5t3.5 -26.5q-2 -25 -11.5 -42.5t-19.5 -31.5q-23 -25 -49.5 -44.5t-65.5 -4.5q-16 12 -19 29.5zM465.5 904q-11.5 -30 1.5 -34q12 -4 29.5 9.5t33.5 38.5q6 8 10.5 24t4.5 27.5t-6.5 13.5t-20.5 -16q-4 -2 -12 -2 q-29 -31 -40.5 -61z" />
<glyph unicode="&#xe6;" horiz-adv-x="731" d="M-125 126q-8 54 6.5 112.5t43 119t65.5 115.5q84 129 219 266q16 16 32.5 18.5t32 -1.5t26.5 -13.5t19 -17.5q35 -35 32 -64.5t-13 -48.5q2 0 3 1t5 1q10 4 25.5 -2t50.5 -34q25 35 48.5 63.5t39.5 50.5q20 25 37 45q20 18 38.5 19.5t35.5 -6.5v4q23 -8 45 -31 q18 -20 37.5 -57t33.5 -97q6 -16 -2 -39q-6 -18 -23.5 -46.5t-56.5 -63.5q-63 -53 -114 -96q-45 -37 -83 -70t-48 -43q-10 -6 -21 -8q-10 -2 -19.5 -1t-15.5 11q-12 -29 -17 -47.5t-7 -30.5q-2 -14 0 -22q4 -23 14 -32t23 -9q14 -2 30 6q63 23 115.5 70t91.5 95t62.5 85 t29.5 41q10 8 20.5 6t14.5 -6q2 -2 2 -7q0 -2 -2 -4q-84 -133 -144.5 -206.5t-106.5 -109.5t-80.5 -43t-63.5 -7q-20 0 -33.5 5t-23.5 11q-10 8 -21 17q-6 6 -8 10q-14 18 -24.5 39.5t-18.5 44.5q-72 -78 -126 -103.5t-89 -21.5q-43 2 -72 33q-37 45 -45 99zM-8 115 q2 -23 11 -30t20 -5q12 2 26 10q41 41 85 101.5t83 121t68 109.5t39 65q4 12 5 28.5t-3 29t-15.5 14.5t-31.5 -12q0 -2 -3 -2q-119 -119 -178 -201t-82 -133q-29 -59 -24 -96zM369 240q25 20 75 63t95 91t72.5 91t9.5 64q-39 -37 -71 -72t-58 -65q-4 -8 -7 -11l-4 -4l-7 -7 l-7 -7q-35 -43 -58.5 -79t-39.5 -64z" />
<glyph unicode="&#xe7;" horiz-adv-x="360" d="M-207 -51q-4 16 2.5 29.5t20.5 17.5q14 2 32.5 -8.5t10.5 -24.5q-10 -14 -12.5 -28.5t-0.5 -24.5q10 6 29 28.5t35 69.5q-8 4 -16 12l-7 7q-37 45 -44 99t6.5 112.5t43 118t66.5 114.5q84 129 219 266q31 31 64 17q2 0 17 -7.5t38 -33.5l4 -4q16 -23 30.5 -55.5 t24.5 -82.5q4 -20 -4 -43q-6 -20 -23.5 -46.5t-54.5 -61.5q-10 -10 -20 -19l-22.5 -18t-28.5 -23q-25 -20 -44.5 -28t-27.5 -2t1 25.5t40 54.5q37 41 60.5 76.5t13.5 58.5q-121 -119 -179.5 -201t-82.5 -133q-29 -61 -25 -98q2 -23 13.5 -31t23.5 -8q14 0 33 6 q61 23 114.5 70t92 94t62.5 85t30 42q10 6 19 4t13 -6q2 -2 2 -7v-2q-82 -131 -142 -204.5t-105 -109.5t-80 -44t-64 -8q-6 -12 -18 -29.5t-28.5 -35t-37 -30t-45.5 -14.5l-2 -2h-4h-4l-4 2q-23 4 -27 26.5t-8 37.5z" />
<glyph unicode="&#xe8;" horiz-adv-x="417" d="M-100.5 124q-8.5 54 6 112.5t43 119t65.5 115.5q84 129 219 266q20 18 39 19.5t35 -6.5q23 -12 45 -35q18 -20 38 -56t34 -90q6 -16 -2 -39q-6 -18 -23.5 -46.5t-56.5 -63.5q-63 -53 -115 -96q-45 -37 -83 -70t-48 -43q-10 -6 -20 -8t-19.5 -1t-15.5 11 q-12 -29 -17.5 -47.5t-7.5 -30.5q-2 -14 0 -22q2 -23 12.5 -32t22.5 -9q14 -2 33 6q63 23 115.5 70t91.5 95t62.5 85t29.5 41q10 8 20.5 6t14.5 -6q2 -2 2 -7q0 -2 -2 -4q-84 -133 -144.5 -206.5t-106.5 -109.5t-81 -43t-63 -7q-20 0 -34 5t-24 11q-10 9 -20 17 q-37 45 -45.5 99zM55 240q25 20 75 63t95 91t72.5 91.5t9.5 63.5q-106 -104 -164.5 -180t-87.5 -129zM176 938q2 12 9.5 23.5t14.5 21.5t11 14q10 12 20.5 15.5t18.5 1.5t18 -8q51 -45 93 -64.5t73 -26.5q37 -8 64 -4q14 10 23 7t14 -7q6 -8 2 -18q-2 -4 -7 -6 q-47 -37 -107.5 -37t-113.5 16q-64 19 -127 54q-8 6 -6 18z" />
<glyph unicode="&#xe9;" horiz-adv-x="417" d="M-100.5 124q-8.5 54 6 112.5t43 119t65.5 115.5q84 129 219 266q20 18 39 19.5t35 -6.5q23 -12 45 -35q18 -20 38 -56t34 -90q6 -16 -2 -39q-6 -18 -23.5 -46.5t-56.5 -63.5q-63 -53 -115 -96q-45 -37 -83 -70t-48 -43q-10 -6 -20 -8t-19.5 -1t-15.5 11 q-12 -29 -17.5 -47.5t-7.5 -30.5q-2 -14 0 -22q2 -23 12.5 -32t22.5 -9q14 -2 33 6q63 23 115.5 70t91.5 95t62.5 85t29.5 41q10 8 20.5 6t14.5 -6q2 -2 2 -7q0 -2 -2 -4q-84 -133 -144.5 -206.5t-106.5 -109.5t-81 -43t-63 -7q-20 0 -34 5t-24 11q-10 9 -20 17 q-37 45 -45.5 99zM55 240q25 20 75 63t95 91t72.5 91.5t9.5 63.5q-106 -104 -164.5 -180t-87.5 -129zM168 893q-4 10 2 18q4 4 13 7.5t23 -7.5q27 -4 64 4q31 6 72 26t94 65q10 6 18 8q20 4 39 -17q2 -4 10.5 -14t15.5 -21.5t9 -23.5t-6 -18q-63 -35 -127 -54 q-53 -16 -113.5 -16t-107.5 37q-4 2 -6 6z" />
<glyph unicode="&#xea;" horiz-adv-x="417" d="M-100.5 124q-8.5 54 6 112.5t43 119t65.5 115.5q84 129 219 266q20 18 39 19.5t35 -6.5q23 -12 45 -35q18 -20 38 -56t34 -90q6 -16 -2 -39q-6 -18 -23.5 -46.5t-56.5 -63.5q-63 -53 -115 -96q-45 -37 -83 -70t-48 -43q-10 -6 -20 -8t-19.5 -1t-15.5 11 q-12 -29 -17.5 -47.5t-7.5 -30.5q-2 -14 0 -22q2 -23 12.5 -32t22.5 -9q14 -2 33 6q63 23 115.5 70t91.5 95t62.5 85t29.5 41q10 8 20.5 6t14.5 -6q2 -2 2 -7q0 -2 -2 -4q-84 -133 -144.5 -206.5t-106.5 -109.5t-81 -43t-63 -7q-20 0 -34 5t-24 11q-10 9 -20 17 q-37 45 -45.5 99zM55 240q25 20 75 63t95 91t72.5 91.5t9.5 63.5q-106 -104 -164.5 -180t-87.5 -129zM234 969q0 8 10 16q4 4 11 4t12 -16q12 -10 34 -12q18 -2 47 3t70 23q6 4 12 10q18 12 31 4q10 4 14 -22q2 -4 1 -8t1 -8q14 -45 31 -69t31 -36q16 -14 33 -18q12 6 17 1 t5 -10q0 -14 -6 -16q-4 -2 -6 -4q-29 -14 -54.5 -11t-47 16t-40 33.5t-30.5 39.5q-23 -4 -49.5 -4t-51 7t-44 22.5t-29.5 46.5q-2 4 -2 8z" />
<glyph unicode="&#xeb;" horiz-adv-x="417" d="M-100.5 124q-8.5 54 6 112.5t43 119t65.5 115.5q84 129 219 266q20 18 39 19.5t35 -6.5q23 -12 45 -35q18 -20 38 -56t34 -90q6 -16 -2 -39q-6 -18 -23.5 -46.5t-56.5 -63.5q-63 -53 -115 -96q-45 -37 -83 -70t-48 -43q-10 -6 -20 -8t-19.5 -1t-15.5 11 q-12 -29 -17.5 -47.5t-7.5 -30.5q-2 -14 0 -22q2 -23 12.5 -32t22.5 -9q14 -2 33 6q63 23 115.5 70t91.5 95t62.5 85t29.5 41q10 8 20.5 6t14.5 -6q2 -2 2 -7q0 -2 -2 -4q-84 -133 -144.5 -206.5t-106.5 -109.5t-81 -43t-63 -7q-20 0 -34 5t-24 11q-10 9 -20 17 q-37 45 -45.5 99zM55 240q25 20 75 63t95 91t72.5 91.5t9.5 63.5q-106 -104 -164.5 -180t-87.5 -129zM262 867.5q-2 17.5 1 39t10 43t13 35.5q12 29 38 40t48 1q25 -10 32 -36.5t-5 -55.5q-6 -14 -21.5 -31.5t-34 -32t-37 -22.5t-30.5 -2q-12 4 -14 21.5zM437 867.5 q-1 17.5 2 39t10 43t14 35.5q12 29 37.5 40t48.5 1q25 -10 31.5 -36.5t-5.5 -55.5q-6 -14 -21.5 -31.5t-35 -32t-37.5 -22.5t-31 -2q-12 4 -13 21.5z" />
<glyph unicode="&#xec;" horiz-adv-x="399" d="M-119 124q8 -54 45 -99q10 -8 21 -17q10 -6 23.5 -11t33.5 -5q31 0 64.5 7t80 43t107.5 109.5t143 206.5q2 2 2 4q0 4 -2 7q-4 4 -13 6t-19 -6q-6 -4 -30 -41t-64 -85t-92 -95.5t-115 -69.5q-18 -8 -33 -6q-12 0 -22.5 9t-12.5 32q-4 39 29 106q29 57 97.5 148.5 t207.5 224.5q14 18 20 41q4 18 1 41.5t-27 48.5q-8 8 -19.5 17.5t-26 13.5t-31 2t-32.5 -19q-133 -137 -219 -266q-37 -55 -66.5 -115.5t-44 -119t-6.5 -112.5zM186.5 938q1.5 12 9 23.5t14.5 21.5t11 14q10 12 20.5 15.5t18.5 1.5t19 -8q51 -45 93 -64.5t72 -26.5 q37 -8 64 -4q14 10 23.5 7t13.5 -7q6 -8 2 -18q-2 -4 -6 -6q-47 -37 -107.5 -37t-114.5 16q-63 19 -126 54q-8 6 -6.5 18z" />
<glyph unicode="&#xed;" horiz-adv-x="399" d="M-119 124q-8 54 6.5 112.5t44 119t66.5 115.5q86 129 219 266q16 16 32.5 18.5t31 -1.5t25.5 -13.5t20 -17.5q25 -25 27.5 -48.5t-1.5 -41.5q-6 -23 -20 -41q-139 -133 -208 -224.5t-97 -148.5q-33 -68 -29 -106q2 -23 12 -32t23 -9q14 -2 33 6q63 23 115 70t92 95 t63.5 85t30.5 41q10 8 19 6t13 -6q2 -2 2 -7q0 -2 -2 -4q-82 -133 -143 -206.5t-107.5 -109.5t-80 -43t-64.5 -7q-20 0 -33.5 5t-23.5 11q-10 8 -21 17q-37 45 -45 99zM172 893q-4 10 2 18q4 4 13.5 7.5t23.5 -7.5q27 -4 63 4q31 6 72 26t94 65q10 6 19 8q20 4 39 -17 q2 -4 10 -14t15 -21.5t9 -23.5t-6 -18q-63 -35 -127 -54q-53 -16 -113.5 -16t-107.5 37q-4 2 -6 6z" />
<glyph unicode="&#xee;" horiz-adv-x="399" d="M-119 124q-8 54 6.5 112.5t44 119t66.5 115.5q86 129 219 266q16 16 32.5 18.5t31 -1.5t25.5 -13.5t20 -17.5q25 -25 27.5 -48.5t-1.5 -41.5q-6 -23 -20 -41q-139 -133 -208 -224.5t-97 -148.5q-33 -68 -29 -106q2 -23 12 -32t23 -9q14 -2 33 6q63 23 115 70t92 95 t63.5 85t30.5 41q10 8 19 6t13 -6q2 -2 2 -7q0 -2 -2 -4q-82 -133 -143 -206.5t-107.5 -109.5t-80 -43t-64.5 -7q-20 0 -33.5 5t-23.5 11q-10 8 -21 17q-37 45 -45 99zM190 969q0 8 11 16q4 4 11 4t11 -16q12 -10 35 -12q18 -2 47 3t70 23q6 4 12 10q18 12 31 4q10 4 14 -22 q2 -4 1 -8t1 -8q14 -45 30.5 -69t31.5 -36q16 -14 32 -18q12 6 17.5 1t5.5 -10q0 -14 -6 -16q-4 -2 -6 -4q-29 -14 -54.5 -11t-47 16t-40 33.5t-30.5 39.5q-23 -4 -49.5 -4t-51 7t-44 22.5t-29.5 46.5q-2 4 -3 8z" />
<glyph unicode="&#xef;" horiz-adv-x="399" d="M-119 124q-8 54 6.5 112.5t44 119t66.5 115.5q86 129 219 266q16 16 32.5 18.5t31 -1.5t25.5 -13.5t20 -17.5q25 -25 27.5 -48.5t-1.5 -41.5q-6 -23 -20 -41q-139 -133 -208 -224.5t-97 -148.5q-33 -68 -29 -106q2 -23 12 -32t23 -9q14 -2 33 6q63 23 115 70t92 95 t63.5 85t30.5 41q10 8 19 6t13 -6q2 -2 2 -7q0 -2 -2 -4q-82 -133 -143 -206.5t-107.5 -109.5t-80 -43t-64.5 -7q-20 0 -33.5 5t-23.5 11q-10 8 -21 17q-37 45 -45 99zM225.5 867.5q-2.5 17.5 0.5 39t10.5 43t13.5 35.5q12 29 37.5 40t48.5 1q25 -10 31.5 -36.5t-5.5 -55.5 q-6 -14 -21 -31.5t-33.5 -32t-37 -22.5t-30.5 -2q-12 4 -14.5 21.5zM400.5 867.5q-1.5 17.5 2 39t10.5 43t13 35.5q12 29 37.5 40t48.5 1q25 -10 32 -36.5t-5 -55.5q-6 -14 -21.5 -31.5t-35 -32t-38 -22.5t-30.5 -2q-12 4 -13.5 21.5z" />
<glyph unicode="&#xf0;" d="M-113 127q-6 57 9.5 120.5t48 129t71.5 127.5q92 143 236 299q16 16 32.5 18t32 -2t26.5 -13.5t19 -17.5q25 -25 28 -48t-1 -42q-6 -23 -20 -41q-4 -2 -5.5 -4t-3.5 -4q29 6 57.5 -6t53.5 -47q14 -20 12 -46t-8 -48q-8 -27 -22 -58q-27 -47 -42.5 -74.5t-24.5 -44 t-13 -22.5l-4 -6q-20 -37 -15.5 -48t17.5 -11q14 0 39 14q27 16 53 41.5t63 71.5q14 16 28.5 9t10.5 -16q-61 -92 -109 -132t-83 -50t-55.5 -1t-28.5 15q-53 -72 -94 -111.5t-75 -59t-60.5 -23.5t-51.5 -4q-20 0 -33.5 5t-23.5 11q-10 8 -21 17q-37 45 -43 102zM2 113 q2 -23 12.5 -32t22.5 -9q14 -2 33 6q51 23 96 80t80 112q-6 31 -4 64t6 67q4 27 9 54.5t9 50.5q7 24 13 49q2 4 2 9t2 9q-106 -113 -163 -197.5t-83 -144.5q-31 -68 -35 -118zM356 543q10 14 17 24q4 10 6 18.5t-2 10.5q-2 0 -4 -2q-4 -4 -4 -8zM397 842q-6 20 2 28 q4 4 11 4q37 10 59.5 18.5t44.5 18.5q0 2 -1 3t-1 4q-4 10 -13.5 28.5t-17.5 36.5q-10 23 -20 47q0 4 8 9t16 8q20 2 29 -5q4 -4 4 -8q10 -37 17.5 -58.5t17.5 -43.5q20 10 47 24.5t64 34.5q10 2 17 -15.5t9 -23.5q4 -12 2 -19t-4 -11q-4 -4 -6 -4q-35 -6 -60.5 -13.5 t-46.5 -15.5q10 -18 24.5 -45t35.5 -66q0 -10 -16.5 -16t-24.5 -8q-20 -6 -29 2q-4 4 -4 8q-14 66 -31 106h-2q-10 -6 -28.5 -14t-36.5 -16q-23 -8 -47 -19q-6 -2 -10.5 5.5t-8.5 15.5z" />
<glyph unicode="&#xf1;" horiz-adv-x="679" d="M-124 126q-3 58 17.5 129t58.5 149.5t85 154.5q106 178 268 383q16 16 36.5 14t41 -11t36 -22.5t23.5 -21.5q25 -25 28 -48.5t-1 -41.5q-6 -23 -20 -41q-111 -129 -189 -224t-131 -167q51 51 108.5 106.5t106.5 102.5t83 79.5t40 39.5q16 16 20 22t9 8q16 16 32.5 18.5 t31.5 -1.5t26.5 -13.5t19.5 -17.5q25 -25 28 -48.5t-1 -41.5q-6 -23 -21 -41q-139 -133 -207.5 -224.5t-97.5 -148.5q-33 -68 -28 -106q2 -23 12 -32t22 -9q14 -2 33 6q63 23 115.5 70t91.5 95t62.5 85t29.5 41q10 8 20.5 6t14.5 -6q2 -2 2 -7q0 -2 -2 -4 q-84 -133 -144.5 -206.5t-106.5 -109.5t-81 -43t-63 -7q-20 0 -34.5 5t-25.5 11q-12 8 -20 17q-41 51 -45 113.5t16 129.5l-203 -245q-10 -8 -20 -7.5t-19 4.5q-8 4 -18 11q-37 37 -40 95zM479 1054q-4 10 0 19q2 4 4 6q25 29 50.5 36t48 1t41 -18.5t28.5 -22.5h2q2 -4 4 -6 l4 -4q23 -23 41 -36.5t31 -21.5q14 -8 26 -12q10 10 14.5 9t4.5 -5q2 -10 -2 -18q-2 -4 -4 -7q-25 -29 -49.5 -36t-47 -0.5t-41 18.5t-28.5 22q-2 0 -2 3l-2 2l-9 8q-23 27 -40 40t-29 19q-14 8 -27 8q-10 -10 -14 -9t-4 5z" />
<glyph unicode="&#xf2;" d="M-113 127q-6 57 9.5 120.5t48 129t71.5 127.5q92 143 236 299q16 16 32.5 18t32 -2t26.5 -13.5t19 -17.5q25 -25 28 -48t-1 -42q-6 -23 -20 -41q-4 -2 -5.5 -4t-3.5 -4q29 6 57.5 -6t53.5 -47q14 -20 12 -46t-8 -48q-8 -27 -22 -58q-27 -47 -42.5 -74.5t-24.5 -44 t-13 -22.5l-4 -6q-20 -37 -15.5 -48t17.5 -11q14 0 39 14q27 16 53 41.5t63 71.5q14 16 28.5 9t10.5 -16q-61 -92 -109 -132t-83 -50t-55.5 -1t-28.5 15q-53 -72 -94 -111.5t-75 -59t-60.5 -23.5t-51.5 -4q-20 0 -33.5 5t-23.5 11q-10 8 -21 17q-37 45 -43 102zM2 113 q2 -23 12.5 -32t22.5 -9q14 -2 33 6q51 23 96 80t80 112q-6 31 -4 64t6 67q4 27 9 54.5t9 50.5q7 24 13 49q2 4 2 9t2 9q-106 -113 -163 -197.5t-83 -144.5q-31 -68 -35 -118zM303 938q2 12 9.5 23.5t14.5 21.5t11 14q10 12 20.5 15.5t18.5 1.5t18 -8q51 -45 93 -64.5 t73 -26.5q37 -8 64 -4q14 10 23 7t14 -7q6 -8 2 -18q-2 -4 -7 -6q-47 -37 -107.5 -37t-113.5 16q-64 19 -127 54q-8 6 -6 18zM356 543q10 14 17 24q4 10 6 18.5t-2 10.5q-2 0 -4 -2q-4 -4 -4 -8z" />
<glyph unicode="&#xf3;" d="M-113 127q-6 57 9.5 120.5t48 129t71.5 127.5q92 143 236 299q16 16 32.5 18t32 -2t26.5 -13.5t19 -17.5q25 -25 28 -48t-1 -42q-6 -23 -20 -41q-4 -2 -5.5 -4t-3.5 -4q29 6 57.5 -6t53.5 -47q14 -20 12 -46t-8 -48q-8 -27 -22 -58q-27 -47 -42.5 -74.5t-24.5 -44 t-13 -22.5l-4 -6q-20 -37 -15.5 -48t17.5 -11q14 0 39 14q27 16 53 41.5t63 71.5q14 16 28.5 9t10.5 -16q-61 -92 -109 -132t-83 -50t-55.5 -1t-28.5 15q-53 -72 -94 -111.5t-75 -59t-60.5 -23.5t-51.5 -4q-20 0 -33.5 5t-23.5 11q-10 8 -21 17q-37 45 -43 102zM2 113 q2 -23 12.5 -32t22.5 -9q14 -2 33 6q51 23 96 80t80 112q-6 31 -4 64t6 67q4 27 9 54.5t9 50.5q7 24 13 49q2 4 2 9t2 9q-106 -113 -163 -197.5t-83 -144.5q-31 -68 -35 -118zM306 893q-4 10 2 18q4 4 13 7.5t23 -7.5q27 -4 64 4q31 6 72 26t94 65q10 6 18 8q20 4 39 -17 q2 -4 10.5 -14t15.5 -21.5t9 -23.5t-6 -18q-63 -35 -127 -54q-53 -16 -113.5 -16t-107.5 37q-4 2 -6 6zM356 543q10 14 17 24q4 10 6 18.5t-2 10.5q-2 0 -4 -2q-4 -4 -4 -8z" />
<glyph unicode="&#xf4;" d="M-113 127q-6 57 9.5 120.5t48 129t71.5 127.5q92 143 236 299q16 16 32.5 18t32 -2t26.5 -13.5t19 -17.5q25 -25 28 -48t-1 -42q-6 -23 -20 -41q-4 -2 -5.5 -4t-3.5 -4q29 6 57.5 -6t53.5 -47q14 -20 12 -46t-8 -48q-8 -27 -22 -58q-27 -47 -42.5 -74.5t-24.5 -44 t-13 -22.5l-4 -6q-20 -37 -15.5 -48t17.5 -11q14 0 39 14q27 16 53 41.5t63 71.5q14 16 28.5 9t10.5 -16q-61 -92 -109 -132t-83 -50t-55.5 -1t-28.5 15q-53 -72 -94 -111.5t-75 -59t-60.5 -23.5t-51.5 -4q-20 0 -33.5 5t-23.5 11q-10 8 -21 17q-37 45 -43 102zM2 113 q2 -23 12.5 -32t22.5 -9q14 -2 33 6q51 23 96 80t80 112q-6 31 -4 64t6 67q4 27 9 54.5t9 50.5q7 24 13 49q2 4 2 9t2 9q-106 -113 -163 -197.5t-83 -144.5q-31 -68 -35 -118zM316 969q0 8 10 16q4 4 11 4t12 -16q12 -10 34 -12q18 -2 47 3t70 23q6 4 12 10q18 12 31 4 q10 4 14 -22q2 -4 1 -8t1 -8q14 -45 31 -69t31 -36q16 -14 33 -18q12 6 17 1t5 -10q0 -14 -6 -16q-4 -2 -6 -4q-29 -14 -54.5 -11t-47 16t-40 33.5t-30.5 39.5q-23 -4 -49.5 -4t-51 7t-44 22.5t-29.5 46.5q-2 4 -2 8zM356 543q10 14 17 24q4 10 6 18.5t-2 10.5q-2 0 -4 -2 q-4 -4 -4 -8z" />
<glyph unicode="&#xf5;" d="M-113 127q-6 57 9.5 120.5t48 129t71.5 127.5q92 143 236 299q16 16 32.5 18t32 -2t26.5 -13.5t19 -17.5q25 -25 28 -48t-1 -42q-6 -23 -20 -41q-4 -2 -5.5 -4t-3.5 -4q29 6 57.5 -6t53.5 -47q14 -20 12 -46t-8 -48q-8 -27 -22 -58q-27 -47 -42.5 -74.5t-24.5 -44 t-13 -22.5l-4 -6q-20 -37 -15.5 -48t17.5 -11q14 0 39 14q27 16 53 41.5t63 71.5q14 16 28.5 9t10.5 -16q-61 -92 -109 -132t-83 -50t-55.5 -1t-28.5 15q-53 -72 -94 -111.5t-75 -59t-60.5 -23.5t-51.5 -4q-20 0 -33.5 5t-23.5 11q-10 8 -21 17q-37 45 -43 102zM2 113 q2 -23 12.5 -32t22.5 -9q14 -2 33 6q51 23 96 80t80 112q-6 31 -4 64t6 67q4 27 9 54.5t9 50.5q7 24 13 49q2 4 2 9t2 9q-106 -113 -163 -197.5t-83 -144.5q-31 -68 -35 -118zM356 543q10 14 17 24q4 10 6 18.5t-2 10.5q-2 0 -4 -2q-4 -4 -4 -8zM369 950q-4 10 0 19q2 4 4 6 q25 29 50.5 36t48 1t41 -18.5t28.5 -22.5h2q2 -4 4 -6l4 -4q23 -23 41 -36.5t31 -21.5q14 -8 26 -12q10 10 14.5 9t4.5 -5q2 -10 -2 -18q-2 -4 -4 -7q-25 -29 -49.5 -36t-47 -0.5t-41 18.5t-28.5 22q-2 0 -2 3l-2 2l-9 8q-23 27 -40 40t-29 19q-14 8 -27 8q-10 -10 -14 -9 t-4 5z" />
<glyph unicode="&#xf6;" d="M-113 127q-6 57 9.5 120.5t48 129t71.5 127.5q92 143 236 299q16 16 32.5 18t32 -2t26.5 -13.5t19 -17.5q25 -25 28 -48t-1 -42q-6 -23 -20 -41q-4 -2 -5.5 -4t-3.5 -4q29 6 57.5 -6t53.5 -47q14 -20 12 -46t-8 -48q-8 -27 -22 -58q-27 -47 -42.5 -74.5t-24.5 -44 t-13 -22.5l-4 -6q-20 -37 -15.5 -48t17.5 -11q14 0 39 14q27 16 53 41.5t63 71.5q14 16 28.5 9t10.5 -16q-61 -92 -109 -132t-83 -50t-55.5 -1t-28.5 15q-53 -72 -94 -111.5t-75 -59t-60.5 -23.5t-51.5 -4q-20 0 -33.5 5t-23.5 11q-10 8 -21 17q-37 45 -43 102zM2 113 q2 -23 12.5 -32t22.5 -9q14 -2 33 6q51 23 96 80t80 112q-6 31 -4 64t6 67q4 27 9 54.5t9 50.5q7 24 13 49q2 4 2 9t2 9q-106 -113 -163 -197.5t-83 -144.5q-31 -68 -35 -118zM356 543q10 14 17 24q4 10 6 18.5t-2 10.5q-2 0 -4 -2q-4 -4 -4 -8zM363 867.5q-2 17.5 1 39 t10 43t13 35.5q12 29 38 40t48 1q25 -10 32 -36.5t-5 -55.5q-6 -14 -21.5 -31.5t-34 -32t-37 -22.5t-30.5 -2q-12 4 -14 21.5zM538 867.5q-1 17.5 2 39t10 43t14 35.5q12 29 37.5 40t48.5 1q25 -10 31.5 -36.5t-5.5 -55.5q-6 -14 -21.5 -31.5t-35 -32t-37.5 -22.5t-31 -2 q-12 4 -13 21.5z" />
<glyph unicode="&#xf7;" horiz-adv-x="1048" d="M271.5 413.5q-1.5 12.5 0.5 22.5q2 29 19 37q8 4 14 2q55 -6 89 -9t71 -1t90.5 7t149.5 17q6 -2 9 -11t4 -20.5t0 -21.5t-1 -14q-2 -18 -7 -26.5t-12 -12.5q-8 -4 -14 -2q-78 14 -132 19.5t-95 0.5q-16 -2 -45 -2h-58q-35 0 -71 -2q-10 4 -11.5 16.5zM411 205 q-3 24 4 45.5t21.5 41t26.5 34.5q-4 20 7 29.5t15 9.5q10 8 43 7t47 -22q16 -23 19.5 -37t3.5 -32q-4 -29 -15.5 -47.5t-21.5 -30.5q-23 -25 -51.5 -46.5t-77.5 -2.5q-18 27 -21 51zM411 564.5q-3 25.5 4 48t21.5 41t26.5 30.5q-4 20 7 30.5t15 8.5q10 10 43 8t47 -22 q16 -20 19.5 -35t3.5 -31q-4 -31 -15.5 -49.5t-21.5 -32.5q-10 -12 -22.5 -24.5t-27.5 -20.5t-34.5 -11t-44.5 7q-18 27 -21 52.5zM469 207q6 4 15.5 13.5t19.5 27.5q4 4 5 9t3 9q-2 0 -2 1t-2 1q-18 -16 -26.5 -34.5t-12.5 -26.5zM469 567q16 4 35 39q4 6 8 19l-4 4 q-18 -18 -26.5 -36t-12.5 -26z" />
<glyph unicode="&#xf8;" d="M-128 -69.5q-1 16.5 7 26.5q8 12 25 25q10 10 16 20t17 21l-5 4q-2 0 -2 2q-37 45 -43 101t9.5 118.5t48 128t71.5 127.5q92 143 234 297q16 16 32.5 19t31 -1t26.5 -14t20 -19q10 -8 15.5 -18t11.5 -20q18 39 47 81q25 25 40 13.5t28 -21.5q18 -18 18 -34.5t-6 -26.5 q-8 -12 -25 -23q-23 -25 -41 -49t-36 -47q29 -10 57 -43q14 -20 14 -47t-8 -49q-8 -29 -24 -58q-49 -90 -65.5 -116.5t-16.5 -28.5q-18 -37 -15.5 -49t15.5 -10q14 2 39 16q27 14 53 40t63 69q14 18 28.5 10t10.5 -15q-61 -92 -108 -132t-81 -50t-55.5 -1t-29.5 16 q-53 -72 -94 -112t-75 -59.5t-60.5 -22.5t-49.5 -3q-10 0 -17 1t-13 1q-14 -20 -24.5 -35.5t-18.5 -28.5q-8 -14 -17 -26q-16 -16 -17 -19.5t-12 7.5q-18 18 -19 34.5zM4 113q37 51 65.5 96t58.5 96t65.5 113.5t87.5 150.5l2 4q-106 -111 -161.5 -196.5t-82.5 -145.5 q-31 -68 -35 -118zM31 76q6 -2 13 -1t13 3q8 2 13 4q53 20 97 77.5t79 112.5q-6 31 -4 63t6 66v13q-25 -41 -45.5 -76t-42.5 -66q-20 -31 -55 -85t-74 -111z" />
<glyph unicode="&#xf9;" horiz-adv-x="757" d="M-115 140.5q-6 56.5 10.5 120t50.5 129t74 126.5q96 143 242 299q16 16 32.5 18.5t32 -2t27 -13.5t19.5 -17q25 -25 27.5 -48.5t-1.5 -41.5q-6 -23 -20 -41q-141 -133 -216 -234.5t-112 -171.5q-43 -82 -51 -139q2 -23 12.5 -31t22.5 -8q14 0 33 6q53 18 104 64.5 t96 99.5q25 78 69 154.5t89 138.5q53 72 111 139q16 16 32.5 19.5t30.5 -2t25.5 -14.5t19.5 -17q25 -25 28 -48.5t-1 -41.5q-6 -23 -21 -39q-123 -121 -183 -203t-85 -133q-29 -59 -27 -96q2 -23 12.5 -32t22.5 -9q14 -2 33 6q63 23 115.5 70t92.5 95t63.5 85t29.5 41 q10 8 19.5 6t13.5 -6q2 -2 2 -7q0 -2 -2 -4q-82 -133 -143.5 -206.5t-107.5 -109.5t-80 -43t-65 -7q-20 0 -33.5 5t-23.5 11q-10 8 -20 17q-45 57 -35 139q-45 -53 -81 -85t-65.5 -48.5t-53 -20.5t-44.5 -4q-20 0 -33.5 5t-23.5 12q-10 8 -21 16q-37 45 -43 101.5zM332 938 q2 12 9.5 23.5t14.5 21.5t11 14q10 12 20.5 15.5t18.5 1.5t18 -8q51 -45 93 -64.5t73 -26.5q37 -8 64 -4q14 10 23 7t14 -7q6 -8 2 -18q-2 -4 -7 -6q-47 -37 -107.5 -37t-113.5 16q-64 19 -127 54q-8 6 -6 18z" />
<glyph unicode="&#xfa;" horiz-adv-x="757" d="M-115 140.5q-6 56.5 10.5 120t50.5 129t74 126.5q96 143 242 299q16 16 32.5 18.5t32 -2t27 -13.5t19.5 -17q25 -25 27.5 -48.5t-1.5 -41.5q-6 -23 -20 -41q-141 -133 -216 -234.5t-112 -171.5q-43 -82 -51 -139q2 -23 12.5 -31t22.5 -8q14 0 33 6q53 18 104 64.5 t96 99.5q25 78 69 154.5t89 138.5q53 72 111 139q16 16 32.5 19.5t30.5 -2t25.5 -14.5t19.5 -17q25 -25 28 -48.5t-1 -41.5q-6 -23 -21 -39q-123 -121 -183 -203t-85 -133q-29 -59 -27 -96q2 -23 12.5 -32t22.5 -9q14 -2 33 6q63 23 115.5 70t92.5 95t63.5 85t29.5 41 q10 8 19.5 6t13.5 -6q2 -2 2 -7q0 -2 -2 -4q-82 -133 -143.5 -206.5t-107.5 -109.5t-80 -43t-65 -7q-20 0 -33.5 5t-23.5 11q-10 8 -20 17q-45 57 -35 139q-45 -53 -81 -85t-65.5 -48.5t-53 -20.5t-44.5 -4q-20 0 -33.5 5t-23.5 12q-10 8 -21 16q-37 45 -43 101.5zM342 893 q-4 10 2 18q4 4 13 7.5t23 -7.5q27 -4 64 4q31 6 72 26t94 65q10 6 18 8q20 4 39 -17q2 -4 10.5 -14t15.5 -21.5t9 -23.5t-6 -18q-63 -35 -127 -54q-53 -16 -113.5 -16t-107.5 37q-4 2 -6 6z" />
<glyph unicode="&#xfb;" horiz-adv-x="757" d="M-115 140.5q-6 56.5 10.5 120t50.5 129t74 126.5q96 143 242 299q16 16 32.5 18.5t32 -2t27 -13.5t19.5 -17q25 -25 27.5 -48.5t-1.5 -41.5q-6 -23 -20 -41q-141 -133 -216 -234.5t-112 -171.5q-43 -82 -51 -139q2 -23 12.5 -31t22.5 -8q14 0 33 6q53 18 104 64.5 t96 99.5q25 78 69 154.5t89 138.5q53 72 111 139q16 16 32.5 19.5t30.5 -2t25.5 -14.5t19.5 -17q25 -25 28 -48.5t-1 -41.5q-6 -23 -21 -39q-123 -121 -183 -203t-85 -133q-29 -59 -27 -96q2 -23 12.5 -32t22.5 -9q14 -2 33 6q63 23 115.5 70t92.5 95t63.5 85t29.5 41 q10 8 19.5 6t13.5 -6q2 -2 2 -7q0 -2 -2 -4q-82 -133 -143.5 -206.5t-107.5 -109.5t-80 -43t-65 -7q-20 0 -33.5 5t-23.5 11q-10 8 -20 17q-45 57 -35 139q-45 -53 -81 -85t-65.5 -48.5t-53 -20.5t-44.5 -4q-20 0 -33.5 5t-23.5 12q-10 8 -21 16q-37 45 -43 101.5zM342 969 q0 8 10 16q4 4 11 4t12 -16q12 -10 34 -12q18 -2 47 3t70 23q6 4 12 10q18 12 31 4q10 4 14 -22q2 -4 1 -8t1 -8q14 -45 31 -69t31 -36q16 -14 33 -18q12 6 17 1t5 -10q0 -14 -6 -16q-4 -2 -6 -4q-29 -14 -54.5 -11t-47 16t-40 33.5t-30.5 39.5q-23 -4 -49.5 -4t-51 7 t-44 22.5t-29.5 46.5q-2 4 -2 8z" />
<glyph unicode="&#xfc;" horiz-adv-x="757" d="M-115 140.5q-6 56.5 10.5 120t50.5 129t74 126.5q96 143 242 299q16 16 32.5 18.5t32 -2t27 -13.5t19.5 -17q25 -25 27.5 -48.5t-1.5 -41.5q-6 -23 -20 -41q-141 -133 -216 -234.5t-112 -171.5q-43 -82 -51 -139q2 -23 12.5 -31t22.5 -8q14 0 33 6q53 18 104 64.5 t96 99.5q25 78 69 154.5t89 138.5q53 72 111 139q16 16 32.5 19.5t30.5 -2t25.5 -14.5t19.5 -17q25 -25 28 -48.5t-1 -41.5q-6 -23 -21 -39q-123 -121 -183 -203t-85 -133q-29 -59 -27 -96q2 -23 12.5 -32t22.5 -9q14 -2 33 6q63 23 115.5 70t92.5 95t63.5 85t29.5 41 q10 8 19.5 6t13.5 -6q2 -2 2 -7q0 -2 -2 -4q-82 -133 -143.5 -206.5t-107.5 -109.5t-80 -43t-65 -7q-20 0 -33.5 5t-23.5 11q-10 8 -20 17q-45 57 -35 139q-45 -53 -81 -85t-65.5 -48.5t-53 -20.5t-44.5 -4q-20 0 -33.5 5t-23.5 12q-10 8 -21 16q-37 45 -43 101.5z M389 867.5q-2 17.5 1 39t10 43t13 35.5q12 29 38 40t48 1q25 -10 32 -36.5t-5 -55.5q-6 -14 -21.5 -31.5t-34 -32t-37 -22.5t-30.5 -2q-12 4 -14 21.5zM564 867.5q-1 17.5 2 39t10 43t14 35.5q12 29 37.5 40t48.5 1q25 -10 31.5 -36.5t-5.5 -55.5q-6 -14 -21.5 -31.5 t-35 -32t-37.5 -22.5t-31 -2q-12 4 -13 21.5z" />
<glyph unicode="&#xfd;" horiz-adv-x="788" d="M-250 -414q-4 20 4 43q6 20 22.5 45t51.5 52q57 49 104 90q41 35 77 65.5t46 40.5l13 6q4 2 11 4t13 0q39 55 70 104.5t57 94.5q-72 -82 -119 -103.5t-84 -19.5q-35 0 -55 15q-10 8 -18 16q-35 43 -40 96t10 112.5t47 121t71 118.5q90 135 227 281q14 14 29.5 17t29 -1 t24.5 -13t19 -15q23 -23 27 -45.5t0 -38.5q-6 -20 -20 -39q-131 -125 -203 -220.5t-107 -160.5q-39 -76 -47 -131q2 -23 12.5 -30t22.5 -7q14 0 31 6q49 16 98 60.5t91 95.5t75 97t49 69q35 57 75 109t75 91q39 45 77 84q31 29 60 14.5t43 -28.5q23 -23 27 -45.5t-1 -38.5 q-6 -20 -20 -39q-131 -125 -195.5 -211t-91.5 -139q-31 -63 -26 -100q0 -23 10 -31t22 -8q14 -2 31 6q57 20 107.5 65t87.5 90t59.5 80t26.5 39q10 6 19 4t13 -4v-6v-4q-78 -125 -135 -194.5t-100 -103.5t-76 -40t-59 -6q-20 0 -33.5 5t-24.5 11q-10 8 -18 15l-8 12t-8 14 q-68 -111 -136.5 -224.5t-121.5 -209.5q-63 -113 -121 -217q-16 -16 -33.5 -17t-35 7t-33 21.5t-25.5 25.5q-8 10 -20.5 30.5t-22.5 42t-18.5 42t-8.5 32.5zM-145 -387q47 59 89 113.5t79 107.5q-31 -29 -63 -59.5t-58.5 -61t-39.5 -57.5t-7 -43zM353 893q-4 10 2 18 q4 4 13 7.5t23 -7.5q27 -4 64 4q31 6 72 26t94 65q10 6 18 8q20 4 39 -17q2 -4 10.5 -14t15.5 -21.5t9 -23.5t-6 -18q-63 -35 -127 -54q-53 -16 -113.5 -16t-107.5 37q-4 2 -6 6z" />
<glyph unicode="&#xff;" horiz-adv-x="788" d="M-250 -414q-4 20 4 43q6 20 22.5 45t51.5 52q57 49 104 90q41 35 77 65.5t46 40.5l13 6q4 2 11 4t13 0q39 55 70 104.5t57 94.5q-72 -82 -119 -103.5t-84 -19.5q-35 0 -55 15q-10 8 -18 16q-35 43 -40 96t10 112.5t47 121t71 118.5q90 135 227 281q14 14 29.5 17t29 -1 t24.5 -13t19 -15q23 -23 27 -45.5t0 -38.5q-6 -20 -20 -39q-131 -125 -203 -220.5t-107 -160.5q-39 -76 -47 -131q2 -23 12.5 -30t22.5 -7q14 0 31 6q49 16 98 60.5t91 95.5t75 97t49 69q35 57 75 109t75 91q39 45 77 84q31 29 60 14.5t43 -28.5q23 -23 27 -45.5t-1 -38.5 q-6 -20 -20 -39q-131 -125 -195.5 -211t-91.5 -139q-31 -63 -26 -100q0 -23 10 -31t22 -8q14 -2 31 6q57 20 107.5 65t87.5 90t59.5 80t26.5 39q10 6 19 4t13 -4v-6v-4q-78 -125 -135 -194.5t-100 -103.5t-76 -40t-59 -6q-20 0 -33.5 5t-24.5 11q-10 8 -18 15l-8 12t-8 14 q-68 -111 -136.5 -224.5t-121.5 -209.5q-63 -113 -121 -217q-16 -16 -33.5 -17t-35 7t-33 21.5t-25.5 25.5q-8 10 -20.5 30.5t-22.5 42t-18.5 42t-8.5 32.5zM-145 -387q47 59 89 113.5t79 107.5q-31 -29 -63 -59.5t-58.5 -61t-39.5 -57.5t-7 -43zM397 867.5q-2 17.5 1 39 t10 43t13 35.5q12 29 38 40t48 1q25 -10 32 -36.5t-5 -55.5q-6 -14 -21.5 -31.5t-34 -32t-37 -22.5t-30.5 -2q-12 4 -14 21.5zM572 867.5q-1 17.5 2 39t10 43t14 35.5q12 29 37.5 40t48.5 1q25 -10 31.5 -36.5t-5.5 -55.5q-6 -14 -21.5 -31.5t-35 -32t-37.5 -22.5t-31 -2 q-12 4 -13 21.5z" />
<glyph unicode="&#x152;" horiz-adv-x="1316" d="M10 170q0 70 26.5 157t71 180t99.5 188.5t115 185.5q137 209 311 428q16 14 37 14q35 -2 63.5 -29.5t40.5 -42.5q23 -31 23 -65q0 -18 -2 -27q-10 -35 -41 -79t-62 -64l-2 -2h-2q-23 -16 -42 -33.5t-38 -34.5q-154 -172 -243 -306t-135 -232.5t-58 -162t-12 -93.5v-21 q0 -4 2 -8q6 -29 26 -29q25 0 63 24.5t68 55.5q137 147 219.5 286.5t125.5 250.5q23 53 35 97t20 77q8 37 12 65q2 8 2 15.5v13.5v16q0 23 10.5 51.5t24.5 54t29.5 45t23.5 21.5q10 4 27.5 2t25.5 -6q35 -18 51.5 -57t16.5 -92q0 -74 -27.5 -168t-77 -196.5t-118 -204 t-150.5 -189.5v-2q-23 -27 -54.5 -59.5t-68 -64.5t-75.5 -59.5t-76 -41.5q-47 -18 -81 -24.5t-62 -8.5q-49 -2 -72 14.5t-25 18.5q-45 51 -45 141zM489 170q0 94 46 215t116 248t150.5 247.5t150.5 216t116 153.5l46 59q14 14 35 14q35 -2 64.5 -29.5t39.5 -42.5 q25 -31 25 -65q0 -8 -2 -12l-33 -52q12 10 24 19q10 6 23.5 11t26.5 1q53 -33 71.5 -83t18.5 -103q0 -41 -7.5 -81t-17.5 -71q-10 -37 -24 -67q-47 -111 -104.5 -182.5t-108.5 -114.5q-59 -51 -121 -80q-80 -39 -135.5 -53.5t-92.5 -14.5q-39 0 -59 11.5t-31 27.5 q-6 8 -8 15.5t-4 11.5q-35 -82 -45 -135.5t-10 -81.5v-21q0 -4 2 -8q4 -25 16 -33t31 -8q20 0 42.5 8t43 19.5t33.5 20.5l14 9q12 8 26.5 15.5t49.5 21.5q6 2 18 2q25 0 63 -7t60 -15q6 -4 11 -6.5t7 -10.5q0 -10 -6 -10q-166 -78 -265 -104.5t-154 -26.5q-49 0 -72 14.5 t-23 16.5q-25 27 -36 62.5t-11 78.5zM762 465q0 -33 16 -45t33 -12h10q43 10 85 36.5t76 56t57 51.5l22 23q106 109 151 205.5t45 167.5q0 72 -39 105l4 4l-4 -4q-2 2 -6 2q-14 0 -40.5 -23.5t-55.5 -56.5l-12 -12l-5 -5q-16 -18 -31.5 -36.5t-31.5 -36.5q-25 -31 -52.5 -66 t-52 -65.5t-42 -54t-23.5 -31.5q-25 -35 -45.5 -65.5t-38.5 -59.5q-20 -47 -20 -78z" />
<glyph unicode="&#x153;" horiz-adv-x="790" d="M-156 127q-6 57 10.5 120.5t48 129t72.5 127.5q92 143 236 299q16 16 32.5 18t31 -2t26.5 -13t21 -18q25 -25 27.5 -48t-1.5 -42q-6 -23 -20 -41q-4 -2 -5 -4t-6 -4q63 14 113 -53q10 -16 11 -36.5t-3 -41.5q31 47 61.5 87t53.5 69q27 35 53 63q20 18 39 19.5t35 -6.5 q23 -16 45 -39q18 -23 38.5 -55.5t33.5 -86.5q6 -16 -2 -39q-6 -18 -23.5 -46.5t-56.5 -63.5q-33 -29 -68 -58q-29 -25 -61.5 -52t-61.5 -50q-23 -16 -34 -27.5t-27 -21.5q-18 -14 -33.5 -22.5t-32.5 -18.5q-4 -16 -6 -27.5t-2 -17.5v-12q4 -23 14.5 -32t22.5 -9q14 -2 31 6 q63 23 115.5 70t91 95t62.5 85t30 41q10 8 20 6t15 -6q2 -2 2 -7q0 -2 -2 -4q-84 -133 -144.5 -206.5t-106.5 -109.5t-81 -43t-64 -7q-20 0 -33.5 5t-23.5 11q-10 8 -21 17q-45 55 -34 141q-14 4 -22.5 11t-12.5 11q-53 -72 -94 -110.5t-75 -58t-60.5 -23.5t-51.5 -4 q-20 0 -34.5 5t-24.5 11q-12 8 -21 17q-37 45 -43 102zM-39 113q2 -23 12.5 -32t22.5 -9q14 -2 33 6q51 23 96 80t80 112q-6 31 -4 64t6 67q4 27 9 54.5t9 50.5q7 24 13 49q0 6 4 18q-106 -113 -162.5 -197.5t-83.5 -144.5q-31 -68 -35 -118zM313 543l17 24q6 10 8 18.5 t-2 10.5q-2 0 -4 -2q-4 -4 -4 -8zM428 242q2 0 3 1t3 1q27 25 76 67.5t92 88.5t69.5 87.5t8.5 61.5q-104 -104 -163.5 -179t-88.5 -128z" />
<glyph unicode="&#x178;" horiz-adv-x="485" d="M10 100q0 16 4 27.5t9 22.5q6 10 12 18q35 45 70.5 96t74.5 107q-33 143 -50 295.5t-26 281.5q-8 150 -10 293q8 29 33 42t53.5 18.5t55 3.5t40.5 -5q43 -6 63.5 -26.5t27.5 -42.5q8 -25 2 -55q-37 -160 -41 -302.5t12 -263.5q43 68 85 134.5t81 129.5q55 88 101 166 t80 135.5t55 90.5l20 34q16 16 41 17q33 0 62.5 -22.5t41.5 -34.5q33 -33 33 -72q0 -29 -12.5 -47.5t-14.5 -20.5q-76 -82 -155.5 -184t-156.5 -212t-149.5 -219.5t-134 -205.5t-108.5 -170t-76 -113q-15 -16 -35 -16q-16 0 -30.5 9t-24.5 20q-18 18 -25.5 36.5t-7.5 34.5z M412 1371.5q-2 17.5 1 39t10 43t13 35.5q12 29 38 40t48 1q25 -10 32 -36.5t-5 -55.5q-6 -14 -21.5 -31.5t-34 -32t-37 -22.5t-30.5 -2q-12 4 -14 21.5zM587 1371.5q-1 17.5 2 39t10 43t14 35.5q12 29 37.5 40t48.5 1q25 -10 31.5 -36.5t-5.5 -55.5q-6 -14 -21.5 -31.5 t-35 -32t-37.5 -22.5t-31 -2q-12 4 -13 21.5z" />
<glyph unicode="&#x2c6;" horiz-adv-x="604" d="M119 969q0 8 10 16q4 4 11 4t12 -16q12 -10 34 -12q18 -2 47 3t70 23q6 4 12 10q18 12 31 4q10 4 14 -22q2 -4 1 -8t1 -8q14 -45 31 -69t31 -36q16 -14 33 -18q12 6 17 1t5 -10q0 -14 -6 -16q-4 -2 -6 -4q-29 -14 -54.5 -11t-47 16t-40 33.5t-30.5 39.5q-23 -4 -49.5 -4 t-51 7t-44 22.5t-29.5 46.5q-2 4 -2 8z" />
<glyph unicode="&#x2dc;" horiz-adv-x="538" d="M117 950q-4 10 0 19q2 4 4 6q25 29 50.5 36t48 1t41 -18.5t28.5 -22.5h2q2 -4 4 -6l4 -4q23 -23 41 -36.5t31 -21.5q14 -8 26 -12q10 10 14.5 9t4.5 -5q2 -10 -2 -18q-2 -4 -4 -7q-25 -29 -49.5 -36t-47 -0.5t-41 18.5t-28.5 22q-2 0 -2 3l-2 2l-9 8q-23 27 -40 40 t-29 19q-14 8 -27 8q-10 -10 -14 -9t-4 5z" />
<glyph unicode="&#x2000;" horiz-adv-x="772" />
<glyph unicode="&#x2001;" horiz-adv-x="1544" />
<glyph unicode="&#x2002;" horiz-adv-x="772" />
<glyph unicode="&#x2003;" horiz-adv-x="1544" />
<glyph unicode="&#x2004;" horiz-adv-x="514" />
<glyph unicode="&#x2005;" horiz-adv-x="386" />
<glyph unicode="&#x2006;" horiz-adv-x="257" />
<glyph unicode="&#x2007;" horiz-adv-x="257" />
<glyph unicode="&#x2008;" horiz-adv-x="193" />
<glyph unicode="&#x2009;" horiz-adv-x="308" />
<glyph unicode="&#x200a;" horiz-adv-x="85" />
<glyph unicode="&#x2010;" horiz-adv-x="933" d="M273.5 415.5q-1.5 12.5 0.5 22.5q2 16 8.5 24.5t10.5 12.5q6 4 12 2q57 -6 91 -9t71 -2t90 7t150 16q12 -4 12 -30.5v-36.5q-6 -31 -19 -37q-8 -4 -14 -2q-78 16 -132 19.5t-95 0.5q-16 -2 -45 -2h-58q-35 0 -71 -2q-10 4 -11.5 16.5z" />
<glyph unicode="&#x2011;" horiz-adv-x="933" d="M273.5 415.5q-1.5 12.5 0.5 22.5q2 16 8.5 24.5t10.5 12.5q6 4 12 2q57 -6 91 -9t71 -2t90 7t150 16q12 -4 12 -30.5v-36.5q-6 -31 -19 -37q-8 -4 -14 -2q-78 16 -132 19.5t-95 0.5q-16 -2 -45 -2h-58q-35 0 -71 -2q-10 4 -11.5 16.5z" />
<glyph unicode="&#x2012;" horiz-adv-x="933" d="M273.5 415.5q-1.5 12.5 0.5 22.5q2 16 8.5 24.5t10.5 12.5q6 4 12 2q57 -6 91 -9t71 -2t90 7t150 16q12 -4 12 -30.5v-36.5q-6 -31 -19 -37q-8 -4 -14 -2q-78 16 -132 19.5t-95 0.5q-16 -2 -45 -2h-58q-35 0 -71 -2q-10 4 -11.5 16.5z" />
<glyph unicode="&#x2013;" horiz-adv-x="1510" d="M273.5 415.5q-3.5 12.5 1.5 22.5q4 16 19 24.5t24 12.5q14 4 28 2q131 -6 209 -9t163 -2t206.5 7t343.5 16q28 -4 28 -30.5v-36.5q-14 -31 -44 -37q-18 -4 -32 -2q-179 16 -303 19.5t-218 0.5q-36 -2 -103 -2h-133q-81 0 -163 -2q-23 4 -26.5 16.5z" />
<glyph unicode="&#x2014;" horiz-adv-x="2534" d="M275 415.5q-7 12.5 2 22.5q9 16 39 24.5t48 12.5q28 4 56 2q261 -6 417 -9t326 -2t413.5 7t688.5 16q55 -4 55 -30.5v-36.5q-28 -31 -87 -37q-37 -4 -64 -2q-359 16 -606.5 19.5t-436.5 0.5q-73 -2 -206 -2h-266q-161 0 -326 -2q-46 4 -53 16.5z" />
<glyph unicode="&#x202f;" horiz-adv-x="308" />
<glyph unicode="&#x205f;" horiz-adv-x="386" />
<glyph unicode="&#x20ac;" horiz-adv-x="1124" d="M49 356q4 23 14.5 31t22.5 8q14 0 31 -6h20q4 10 8.5 21.5t8.5 23.5q-10 0 -16.5 -1t-10.5 -1h-10h-16.5t-6.5 14q4 23 14.5 30t22.5 9q14 2 31 -4q4 -2 12 -2q43 94 99.5 193.5t116 191.5t117.5 174t104 142.5t75 96.5l29 36q14 12 35 12q35 -2 64.5 -29.5t39.5 -42.5 q25 -31 25 -65q0 -18 -7.5 -33.5t-15.5 -26.5q39 25 59.5 31t30.5 6h6q27 0 39.5 -19.5t12.5 -47.5q0 -43 -18.5 -103.5t-45.5 -128t-58.5 -134t-58 -119t-43.5 -85.5l-18 -34l-2 -2q-14 -14 -37 -15q-18 0 -37.5 9.5t-36 20.5t-29 22.5t-16.5 15.5q-25 25 -24 55 q0 29 15 49.5t13 20.5q84 127 135.5 207.5t79 129t36.5 69t11 26.5q-4 0 -11 -5t-9 -7q-41 -29 -85 -70t-83 -83t-67.5 -76t-41.5 -48q-78 -98 -133 -179t-92 -149h57.5t63.5 2q23 -2 23 -18t-5 -27q-4 -12 -13 -17t-19 -7q-12 -2 -25 0q-29 4 -55.5 8t-52.5 8 q-4 -10 -9.5 -20.5t-9.5 -20.5h59.5t65.5 2q23 -6 23 -20.5t-5 -24.5q-4 -12 -13 -17t-19 -7t-25 0q-29 4 -55.5 8t-52.5 6q-27 -70 -34 -116t-7 -70q0 -14 1 -20.5t1 -8.5q4 -23 16 -31t31 -10q18 0 41.5 9t44.5 20q23 12 47 28q12 8 26.5 15.5t49.5 21.5q4 2 18 2 q25 0 61.5 -6t59.5 -16q8 -4 13 -6t7 -11q0 -6 -8 -10q-166 -78 -264 -104.5t-154 -26.5q-57 0 -75.5 14.5t-18.5 16.5q-47 53 -47 141q0 39 8 81t23 89h-49q-4 0 -14.5 1t-8.5 13z" />
<glyph unicode="&#x25fc;" horiz-adv-x="921" d="M0 0v922h922v-922h-922z" />
<glyph unicode="&#xfb01;" horiz-adv-x="761" d="M-653 -354q-4 23 4 45q6 20 23.5 46.5t54.5 57.5q59 51 112 94q43 37 83 71t50 44l21 8q8 2 16 2t17 -10q94 125 149 210t84 140q-6 43 -4 52q0 8 4 8q4 20 13.5 41.5t20.5 38t24.5 26.5t25.5 8q66 127 133.5 241t120.5 204q63 102 119 194q14 14 30.5 15.5t33 -5 t30.5 -16.5t27 -18q20 -16 44.5 -55t45.5 -115q4 -23 -4 -47q-6 -23 -24.5 -49.5t-53.5 -55.5q-61 -51 -113 -94q-43 -37 -82 -69.5t-49 -43.5l-16 -8q-16 -8 -29 0q-41 -59 -74.5 -112.5t-64.5 -104.5q6 -53 22.5 -76.5t32.5 -31.5q20 -8 43 -5q25 10 53.5 33t59.5 56 q14 16 29.5 10t7.5 -17q-80 -90 -136.5 -123.5t-93.5 -41.5q-43 -8 -71 10q-8 4 -15.5 9t-13.5 11q-20 -41 -38.5 -79t-33.5 -62q-61 -117 -133 -229.5t-133 -202.5q-72 -104 -143 -201q-23 -16 -45.5 -13t-44 16t-39 32t-25.5 31q-14 20 -29.5 52t-25.5 79zM-541 -328 q66 80 123.5 150t104.5 129q-33 -27 -75 -66t-79 -78.5t-59.5 -76.5t-14.5 -58zM243 124q-8 54 6.5 112.5t44 119t66.5 115.5q86 129 219 266q16 16 32.5 18.5t31 -1.5t25.5 -13.5t20 -17.5q25 -25 27.5 -48.5t-1.5 -41.5q-6 -23 -20 -41q-139 -133 -208 -224.5t-97 -148.5 q-33 -68 -29 -106q2 -23 12 -32t23 -9q14 -2 33 6q63 23 115 70t92 95t63.5 85t30.5 41q10 8 19 6t13 -6q2 -2 2 -7q0 -2 -2 -4q-82 -133 -143 -206.5t-107.5 -109.5t-80 -43t-64.5 -7q-20 0 -33.5 5t-23.5 11q-10 8 -21 17q-37 45 -45 99zM317 690q33 29 72 66t69.5 72.5 t49 67.5t10.5 50q-111 -131 -201 -256zM756.5 855q2.5 26 15 56.5t30 60t31.5 48.5q29 35 69 45t70 -12q31 -23 34 -66t-26 -80q-12 -18 -41.5 -38.5t-61.5 -36t-62.5 -21.5t-44.5 6q-16 12 -13.5 38z" />
<glyph unicode="&#xfb02;" horiz-adv-x="763" d="M-653 -354q-4 23 4 45q6 20 23.5 46.5t54.5 57.5q59 51 112 94q43 37 83 71t50 44l21 8q8 2 16 2t17 -10q94 125 149 210t84 140q-6 43 -4 52q0 8 4 8q4 20 13.5 41.5t20.5 38t24.5 26.5t25.5 8q66 127 133.5 241t120.5 204q63 102 119 194q14 14 30.5 15.5t33 -5 t30.5 -16.5t27 -18q20 -16 44.5 -55t45.5 -115q4 -23 -4 -47q-6 -23 -24.5 -49.5t-53.5 -55.5q-61 -51 -113 -94q-43 -37 -82 -69.5t-49 -43.5l-16 -8q-16 -8 -29 0q-41 -59 -74.5 -112.5t-64.5 -104.5q6 -53 22.5 -76.5t32.5 -31.5q20 -8 43 -5q25 10 53.5 33t59.5 56 q14 16 29.5 10t7.5 -17q-80 -90 -136.5 -123.5t-93.5 -41.5q-43 -8 -71 10q-8 4 -15.5 9t-13.5 11q-20 -41 -38.5 -79t-33.5 -62q-61 -117 -133 -229.5t-133 -202.5q-72 -104 -143 -201q-23 -16 -45.5 -13t-44 16t-39 32t-25.5 31q-14 20 -29.5 52t-25.5 79zM-541 -328 q66 80 123.5 150t104.5 129q-33 -27 -75 -66t-79 -78.5t-59.5 -76.5t-14.5 -58zM251 141.5q2 71.5 32 159.5t79 185.5t106 193.5q133 223 330 477q14 18 31.5 22.5t34 -0.5t31 -15.5t24.5 -16.5q16 -12 48 -50t50 -124q4 -20 -4 -45q-6 -23 -23.5 -50.5t-54.5 -56.5 q-61 -51 -112 -94q-43 -37 -82 -70t-49 -43q-10 -4 -19 -8q-8 -4 -17 -4t-15 8q-117 -154 -175.5 -251t-80.5 -152q-29 -66 -25 -94q2 -23 12 -32t23 -9q14 -2 33 6q63 23 115 70t91 95t62.5 85t30.5 41q10 8 20 6t14 -6q2 -2 2 -7q0 -2 -2 -4q-84 -133 -144 -206.5 t-106.5 -109.5t-81 -43t-63.5 -7q-20 0 -34.5 5t-24.5 11q-12 8 -21 17q-37 45 -35 116.5zM317 690q33 29 72 66t69.5 72.5t49 67.5t10.5 50q-111 -131 -201 -256zM690 676q33 29 73.5 66.5t75.5 75.5t55.5 73t12.5 55q-63 -78 -116.5 -144.5t-100.5 -125.5z" />
</font>
</defs>
</svg>
